<mxfile host="Electron" agent="Mozilla/5.0 (Macintosh; Intel Mac OS X 10_15_7) AppleWebKit/537.36 (KHTML, like Gecko) draw.io/28.0.6 Chrome/138.0.7204.100 Electron/37.2.3 Safari/537.36" version="28.0.6" pages="2">
  <diagram name="Component Templates v1" id="Hf_kCL5WDnvOLtHVactw">
    <mxGraphModel dx="1188" dy="716" grid="1" gridSize="10" guides="1" tooltips="1" connect="1" arrows="1" fold="1" page="1" pageScale="1" pageWidth="827" pageHeight="1169" math="0" shadow="0">
      <root>
        <mxCell id="0" />
        <mxCell id="1" parent="0" />
        <mxCell id="xZOZEvGb6IZ7UE7chVDk-1" value="table_1" style="shape=table;startSize=30;container=1;collapsible=1;childLayout=tableLayout;fixedRows=1;rowLines=0;fontStyle=1;align=center;resizeLast=1;html=1;rounded=1;top=1;bottom=1;labelBackgroundColor=none;swimlaneFillColor=default;" parent="1" vertex="1">
          <mxGeometry x="40" y="40" width="280.0000000000001" height="150" as="geometry">
            <mxRectangle x="50" y="510" width="70" height="30" as="alternateBounds" />
          </mxGeometry>
        </mxCell>
        <mxCell id="xZOZEvGb6IZ7UE7chVDk-2" value="" style="shape=tableRow;horizontal=0;startSize=0;swimlaneHead=0;swimlaneBody=0;fillColor=none;collapsible=0;dropTarget=0;points=[[0,0.5],[1,0.5]];portConstraint=eastwest;top=0;left=0;right=0;bottom=1;fontStyle=0;labelBackgroundColor=none;" parent="xZOZEvGb6IZ7UE7chVDk-1" vertex="1">
          <mxGeometry y="30" width="280.0000000000001" height="30" as="geometry" />
        </mxCell>
        <mxCell id="xZOZEvGb6IZ7UE7chVDk-3" value="PK" style="shape=partialRectangle;connectable=0;fillColor=none;top=0;left=0;bottom=0;right=0;fontStyle=1;overflow=hidden;whiteSpace=wrap;html=1;labelBackgroundColor=none;" parent="xZOZEvGb6IZ7UE7chVDk-2" vertex="1">
          <mxGeometry width="30" height="30" as="geometry">
            <mxRectangle width="30" height="30" as="alternateBounds" />
          </mxGeometry>
        </mxCell>
        <mxCell id="xZOZEvGb6IZ7UE7chVDk-4" value="column1&lt;font style=&quot;font-weight: normal; color: rgb(204, 204, 204);&quot;&gt; UUID&lt;/font&gt;" style="shape=partialRectangle;connectable=0;fillColor=none;top=0;left=0;bottom=0;right=0;align=left;spacingLeft=6;fontStyle=1;overflow=hidden;whiteSpace=wrap;html=1;labelBackgroundColor=none;" parent="xZOZEvGb6IZ7UE7chVDk-2" vertex="1">
          <mxGeometry x="30" width="250.0000000000001" height="30" as="geometry">
            <mxRectangle width="250.0000000000001" height="30" as="alternateBounds" />
          </mxGeometry>
        </mxCell>
        <mxCell id="xZOZEvGb6IZ7UE7chVDk-5" value="" style="shape=tableRow;horizontal=0;startSize=0;swimlaneHead=0;swimlaneBody=0;collapsible=0;dropTarget=0;points=[[0,0.5],[1,0.5]];portConstraint=eastwest;top=0;left=0;right=0;bottom=0;fillColor=none;labelBackgroundColor=none;" parent="xZOZEvGb6IZ7UE7chVDk-1" vertex="1">
          <mxGeometry y="60" width="280.0000000000001" height="30" as="geometry" />
        </mxCell>
        <mxCell id="xZOZEvGb6IZ7UE7chVDk-6" value="FK" style="shape=partialRectangle;connectable=0;fillColor=none;top=0;left=0;bottom=0;right=0;editable=1;overflow=hidden;whiteSpace=wrap;html=1;labelBackgroundColor=none;" parent="xZOZEvGb6IZ7UE7chVDk-5" vertex="1">
          <mxGeometry width="30" height="30" as="geometry">
            <mxRectangle width="30" height="30" as="alternateBounds" />
          </mxGeometry>
        </mxCell>
        <mxCell id="xZOZEvGb6IZ7UE7chVDk-7" value="column2&amp;nbsp;&lt;font style=&quot;color: rgb(204, 204, 204);&quot;&gt;UUID, UNIQUE&lt;/font&gt;" style="shape=partialRectangle;connectable=0;fillColor=none;top=0;left=0;bottom=0;right=0;align=left;spacingLeft=6;overflow=hidden;whiteSpace=wrap;html=1;labelBackgroundColor=none;" parent="xZOZEvGb6IZ7UE7chVDk-5" vertex="1">
          <mxGeometry x="30" width="250.0000000000001" height="30" as="geometry">
            <mxRectangle width="250.0000000000001" height="30" as="alternateBounds" />
          </mxGeometry>
        </mxCell>
        <mxCell id="xZOZEvGb6IZ7UE7chVDk-8" value="" style="shape=tableRow;horizontal=0;startSize=0;swimlaneHead=0;swimlaneBody=0;collapsible=0;dropTarget=0;points=[[0,0.5],[1,0.5]];portConstraint=eastwest;top=0;left=0;right=0;bottom=0;fillColor=none;labelBackgroundColor=none;" parent="xZOZEvGb6IZ7UE7chVDk-1" vertex="1">
          <mxGeometry y="90" width="280.0000000000001" height="30" as="geometry" />
        </mxCell>
        <mxCell id="xZOZEvGb6IZ7UE7chVDk-9" value="" style="shape=partialRectangle;connectable=0;fillColor=none;top=0;left=0;bottom=0;right=0;editable=1;overflow=hidden;whiteSpace=wrap;html=1;labelBackgroundColor=none;" parent="xZOZEvGb6IZ7UE7chVDk-8" vertex="1">
          <mxGeometry width="30" height="30" as="geometry">
            <mxRectangle width="30" height="30" as="alternateBounds" />
          </mxGeometry>
        </mxCell>
        <mxCell id="xZOZEvGb6IZ7UE7chVDk-10" value="column3&amp;nbsp;&lt;span style=&quot;color: rgb(204, 204, 204);&quot;&gt;OBFUSCATED_TEXT, UNIQUE&lt;/span&gt;" style="shape=partialRectangle;connectable=0;fillColor=none;top=0;left=0;bottom=0;right=0;align=left;spacingLeft=6;overflow=hidden;whiteSpace=wrap;html=1;labelBackgroundColor=none;" parent="xZOZEvGb6IZ7UE7chVDk-8" vertex="1">
          <mxGeometry x="30" width="250.0000000000001" height="30" as="geometry">
            <mxRectangle width="250.0000000000001" height="30" as="alternateBounds" />
          </mxGeometry>
        </mxCell>
        <mxCell id="xZOZEvGb6IZ7UE7chVDk-11" value="" style="shape=tableRow;horizontal=0;startSize=0;swimlaneHead=0;swimlaneBody=0;collapsible=0;dropTarget=0;points=[[0,0.5],[1,0.5]];portConstraint=eastwest;top=0;left=0;right=0;bottom=0;fillColor=none;labelBackgroundColor=none;" parent="xZOZEvGb6IZ7UE7chVDk-1" vertex="1">
          <mxGeometry y="120" width="280.0000000000001" height="30" as="geometry" />
        </mxCell>
        <mxCell id="xZOZEvGb6IZ7UE7chVDk-12" value="" style="shape=partialRectangle;connectable=0;fillColor=none;top=0;left=0;bottom=0;right=0;editable=1;overflow=hidden;whiteSpace=wrap;html=1;labelBackgroundColor=none;" parent="xZOZEvGb6IZ7UE7chVDk-11" vertex="1">
          <mxGeometry width="30" height="30" as="geometry">
            <mxRectangle width="30" height="30" as="alternateBounds" />
          </mxGeometry>
        </mxCell>
        <mxCell id="xZOZEvGb6IZ7UE7chVDk-13" value="column4&amp;nbsp;&lt;font style=&quot;color: rgb(204, 204, 204);&quot;&gt;TIMESTAMPTZ&lt;/font&gt;" style="shape=partialRectangle;connectable=0;fillColor=none;top=0;left=0;bottom=0;right=0;align=left;spacingLeft=6;overflow=hidden;whiteSpace=wrap;html=1;labelBackgroundColor=none;" parent="xZOZEvGb6IZ7UE7chVDk-11" vertex="1">
          <mxGeometry x="30" width="250.0000000000001" height="30" as="geometry">
            <mxRectangle width="250.0000000000001" height="30" as="alternateBounds" />
          </mxGeometry>
        </mxCell>
        <mxCell id="CZFtHsj4eY6OVP69AacZ-18" style="edgeStyle=orthogonalEdgeStyle;rounded=1;orthogonalLoop=1;jettySize=auto;html=1;exitX=0;exitY=0.5;exitDx=0;exitDy=0;entryX=1;entryY=0.5;entryDx=0;entryDy=0;endArrow=none;endFill=0;curved=0;" parent="1" source="CZFtHsj4eY6OVP69AacZ-5" target="xZOZEvGb6IZ7UE7chVDk-2" edge="1">
          <mxGeometry relative="1" as="geometry">
            <Array as="points">
              <mxPoint x="340" y="115" />
              <mxPoint x="340" y="85" />
            </Array>
          </mxGeometry>
        </mxCell>
        <mxCell id="lKD77zYrqcJbKxE31uxd-1" value="belongs to" style="edgeLabel;html=1;align=center;verticalAlign=middle;resizable=0;points=[];" vertex="1" connectable="0" parent="CZFtHsj4eY6OVP69AacZ-18">
          <mxGeometry x="-0.26" relative="1" as="geometry">
            <mxPoint y="-1" as="offset" />
          </mxGeometry>
        </mxCell>
        <mxCell id="CZFtHsj4eY6OVP69AacZ-1" value="table_2" style="shape=table;startSize=30;container=1;collapsible=1;childLayout=tableLayout;fixedRows=1;rowLines=0;fontStyle=1;align=center;resizeLast=1;html=1;rounded=1;top=1;bottom=1;labelBackgroundColor=none;swimlaneFillColor=default;" parent="1" vertex="1">
          <mxGeometry x="440" y="40" width="200" height="180" as="geometry">
            <mxRectangle x="50" y="510" width="70" height="30" as="alternateBounds" />
          </mxGeometry>
        </mxCell>
        <mxCell id="CZFtHsj4eY6OVP69AacZ-2" value="" style="shape=tableRow;horizontal=0;startSize=0;swimlaneHead=0;swimlaneBody=0;fillColor=none;collapsible=0;dropTarget=0;points=[[0,0.5],[1,0.5]];portConstraint=eastwest;top=0;left=0;right=0;bottom=0;fontStyle=0;labelBackgroundColor=none;" parent="CZFtHsj4eY6OVP69AacZ-1" vertex="1">
          <mxGeometry y="30" width="200" height="30" as="geometry" />
        </mxCell>
        <mxCell id="CZFtHsj4eY6OVP69AacZ-3" value="FK" style="shape=partialRectangle;connectable=0;fillColor=none;top=0;left=0;bottom=0;right=0;fontStyle=1;overflow=hidden;whiteSpace=wrap;html=1;labelBackgroundColor=none;" parent="CZFtHsj4eY6OVP69AacZ-2" vertex="1">
          <mxGeometry width="30" height="30" as="geometry">
            <mxRectangle width="30" height="30" as="alternateBounds" />
          </mxGeometry>
        </mxCell>
        <mxCell id="CZFtHsj4eY6OVP69AacZ-4" value="column1&lt;font style=&quot;font-weight: normal; color: rgb(204, 204, 204);&quot;&gt;&amp;nbsp;UUID&lt;/font&gt;" style="shape=partialRectangle;connectable=0;fillColor=none;top=0;left=0;bottom=0;right=0;align=left;spacingLeft=6;fontStyle=1;overflow=hidden;whiteSpace=wrap;html=1;labelBackgroundColor=none;" parent="CZFtHsj4eY6OVP69AacZ-2" vertex="1">
          <mxGeometry x="30" width="170" height="30" as="geometry">
            <mxRectangle width="170" height="30" as="alternateBounds" />
          </mxGeometry>
        </mxCell>
        <mxCell id="CZFtHsj4eY6OVP69AacZ-5" value="" style="shape=tableRow;horizontal=0;startSize=0;swimlaneHead=0;swimlaneBody=0;fillColor=none;collapsible=0;dropTarget=0;points=[[0,0.5],[1,0.5]];portConstraint=eastwest;top=0;left=0;right=0;bottom=1;fontStyle=0;labelBackgroundColor=none;" parent="CZFtHsj4eY6OVP69AacZ-1" vertex="1">
          <mxGeometry y="60" width="200" height="30" as="geometry" />
        </mxCell>
        <mxCell id="CZFtHsj4eY6OVP69AacZ-6" value="FK" style="shape=partialRectangle;connectable=0;fillColor=none;top=0;left=0;bottom=0;right=0;fontStyle=1;overflow=hidden;whiteSpace=wrap;html=1;labelBackgroundColor=none;" parent="CZFtHsj4eY6OVP69AacZ-5" vertex="1">
          <mxGeometry width="30" height="30" as="geometry">
            <mxRectangle width="30" height="30" as="alternateBounds" />
          </mxGeometry>
        </mxCell>
        <mxCell id="CZFtHsj4eY6OVP69AacZ-7" value="column2&lt;font style=&quot;font-weight: normal; color: rgb(204, 204, 204);&quot;&gt; UUID&lt;/font&gt;" style="shape=partialRectangle;connectable=0;fillColor=none;top=0;left=0;bottom=0;right=0;align=left;spacingLeft=6;fontStyle=1;overflow=hidden;whiteSpace=wrap;html=1;labelBackgroundColor=none;" parent="CZFtHsj4eY6OVP69AacZ-5" vertex="1">
          <mxGeometry x="30" width="170" height="30" as="geometry">
            <mxRectangle width="170" height="30" as="alternateBounds" />
          </mxGeometry>
        </mxCell>
        <mxCell id="CZFtHsj4eY6OVP69AacZ-8" value="" style="shape=tableRow;horizontal=0;startSize=0;swimlaneHead=0;swimlaneBody=0;collapsible=0;dropTarget=0;points=[[0,0.5],[1,0.5]];portConstraint=eastwest;top=0;left=0;right=0;bottom=0;fillColor=none;labelBackgroundColor=none;" parent="CZFtHsj4eY6OVP69AacZ-1" vertex="1">
          <mxGeometry y="90" width="200" height="30" as="geometry" />
        </mxCell>
        <mxCell id="CZFtHsj4eY6OVP69AacZ-9" value="" style="shape=partialRectangle;connectable=0;fillColor=none;top=0;left=0;bottom=0;right=0;editable=1;overflow=hidden;whiteSpace=wrap;html=1;labelBackgroundColor=none;" parent="CZFtHsj4eY6OVP69AacZ-8" vertex="1">
          <mxGeometry width="30" height="30" as="geometry">
            <mxRectangle width="30" height="30" as="alternateBounds" />
          </mxGeometry>
        </mxCell>
        <mxCell id="CZFtHsj4eY6OVP69AacZ-10" value="column3&amp;nbsp;&lt;font style=&quot;color: rgb(204, 204, 204);&quot;&gt;ENUM&lt;/font&gt;" style="shape=partialRectangle;connectable=0;fillColor=none;top=0;left=0;bottom=0;right=0;align=left;spacingLeft=6;overflow=hidden;whiteSpace=wrap;html=1;labelBackgroundColor=none;" parent="CZFtHsj4eY6OVP69AacZ-8" vertex="1">
          <mxGeometry x="30" width="170" height="30" as="geometry">
            <mxRectangle width="170" height="30" as="alternateBounds" />
          </mxGeometry>
        </mxCell>
        <mxCell id="CZFtHsj4eY6OVP69AacZ-11" value="" style="shape=tableRow;horizontal=0;startSize=0;swimlaneHead=0;swimlaneBody=0;collapsible=0;dropTarget=0;points=[[0,0.5],[1,0.5]];portConstraint=eastwest;top=0;left=0;right=0;bottom=0;fillColor=none;labelBackgroundColor=none;" parent="CZFtHsj4eY6OVP69AacZ-1" vertex="1">
          <mxGeometry y="120" width="200" height="30" as="geometry" />
        </mxCell>
        <mxCell id="CZFtHsj4eY6OVP69AacZ-12" value="" style="shape=partialRectangle;connectable=0;fillColor=none;top=0;left=0;bottom=0;right=0;editable=1;overflow=hidden;whiteSpace=wrap;html=1;labelBackgroundColor=none;" parent="CZFtHsj4eY6OVP69AacZ-11" vertex="1">
          <mxGeometry width="30" height="30" as="geometry">
            <mxRectangle width="30" height="30" as="alternateBounds" />
          </mxGeometry>
        </mxCell>
        <mxCell id="CZFtHsj4eY6OVP69AacZ-13" value="column4&amp;nbsp;&lt;font style=&quot;color: rgb(204, 204, 204);&quot;&gt;TIMESTAMPTZ&lt;/font&gt;" style="shape=partialRectangle;connectable=0;fillColor=none;top=0;left=0;bottom=0;right=0;align=left;spacingLeft=6;overflow=hidden;whiteSpace=wrap;html=1;labelBackgroundColor=none;" parent="CZFtHsj4eY6OVP69AacZ-11" vertex="1">
          <mxGeometry x="30" width="170" height="30" as="geometry">
            <mxRectangle width="170" height="30" as="alternateBounds" />
          </mxGeometry>
        </mxCell>
        <mxCell id="CZFtHsj4eY6OVP69AacZ-14" value="" style="shape=tableRow;horizontal=0;startSize=0;swimlaneHead=0;swimlaneBody=0;collapsible=0;dropTarget=0;points=[[0,0.5],[1,0.5]];portConstraint=eastwest;top=0;left=0;right=0;bottom=0;fillColor=none;labelBackgroundColor=none;" parent="CZFtHsj4eY6OVP69AacZ-1" vertex="1">
          <mxGeometry y="150" width="200" height="30" as="geometry" />
        </mxCell>
        <mxCell id="CZFtHsj4eY6OVP69AacZ-15" value="" style="shape=partialRectangle;connectable=0;fillColor=none;top=0;left=0;bottom=0;right=0;editable=1;overflow=hidden;whiteSpace=wrap;html=1;labelBackgroundColor=none;" parent="CZFtHsj4eY6OVP69AacZ-14" vertex="1">
          <mxGeometry width="30" height="30" as="geometry">
            <mxRectangle width="30" height="30" as="alternateBounds" />
          </mxGeometry>
        </mxCell>
        <mxCell id="CZFtHsj4eY6OVP69AacZ-16" value="column5&amp;nbsp;&lt;span style=&quot;color: rgb(204, 204, 204);&quot;&gt;TIMESTAMPTZ&lt;/span&gt;" style="shape=partialRectangle;connectable=0;fillColor=none;top=0;left=0;bottom=0;right=0;align=left;spacingLeft=6;overflow=hidden;whiteSpace=wrap;html=1;labelBackgroundColor=none;" parent="CZFtHsj4eY6OVP69AacZ-14" vertex="1">
          <mxGeometry x="30" width="170" height="30" as="geometry">
            <mxRectangle width="170" height="30" as="alternateBounds" />
          </mxGeometry>
        </mxCell>
      </root>
    </mxGraphModel>
  </diagram>
  <diagram id="lEe4mdEnlFpeiVoyER4O" name="Database Schema v1">
    <mxGraphModel dx="2078" dy="1811" grid="1" gridSize="10" guides="1" tooltips="1" connect="1" arrows="1" fold="1" page="0" pageScale="1" pageWidth="827" pageHeight="1169" background="none" math="0" shadow="0">
      <root>
        <mxCell id="0" />
        <mxCell id="1" parent="0" />
        <mxCell id="gtdaIvUS_uVvHvJYpVgE-1" value="user" style="shape=table;startSize=30;container=1;collapsible=1;childLayout=tableLayout;fixedRows=1;rowLines=0;fontStyle=1;align=center;resizeLast=1;html=1;rounded=1;top=1;labelBackgroundColor=none;swimlaneFillColor=default;" parent="1" vertex="1">
          <mxGeometry x="40" y="480" width="280" height="570" as="geometry">
            <mxRectangle x="50" y="510" width="70" height="30" as="alternateBounds" />
          </mxGeometry>
        </mxCell>
        <mxCell id="gtdaIvUS_uVvHvJYpVgE-2" value="" style="shape=tableRow;horizontal=0;startSize=0;swimlaneHead=0;swimlaneBody=0;fillColor=none;collapsible=0;dropTarget=0;points=[[0,0.5],[1,0.5]];portConstraint=eastwest;top=0;left=0;right=0;bottom=1;fontStyle=0;labelBackgroundColor=none;" parent="gtdaIvUS_uVvHvJYpVgE-1" vertex="1">
          <mxGeometry y="30" width="280" height="30" as="geometry" />
        </mxCell>
        <mxCell id="gtdaIvUS_uVvHvJYpVgE-3" value="PK" style="shape=partialRectangle;connectable=0;fillColor=none;top=0;left=0;bottom=0;right=0;fontStyle=1;overflow=hidden;whiteSpace=wrap;html=1;labelBackgroundColor=none;" parent="gtdaIvUS_uVvHvJYpVgE-2" vertex="1">
          <mxGeometry width="30" height="30" as="geometry">
            <mxRectangle width="30" height="30" as="alternateBounds" />
          </mxGeometry>
        </mxCell>
        <mxCell id="gtdaIvUS_uVvHvJYpVgE-4" value="id&lt;font style=&quot;font-weight: normal; color: rgb(204, 204, 204);&quot;&gt; UUID&lt;/font&gt;" style="shape=partialRectangle;connectable=0;fillColor=none;top=0;left=0;bottom=0;right=0;align=left;spacingLeft=6;fontStyle=1;overflow=hidden;whiteSpace=wrap;html=1;labelBackgroundColor=none;" parent="gtdaIvUS_uVvHvJYpVgE-2" vertex="1">
          <mxGeometry x="30" width="250" height="30" as="geometry">
            <mxRectangle width="250" height="30" as="alternateBounds" />
          </mxGeometry>
        </mxCell>
        <mxCell id="gtdaIvUS_uVvHvJYpVgE-5" value="" style="shape=tableRow;horizontal=0;startSize=0;swimlaneHead=0;swimlaneBody=0;collapsible=0;dropTarget=0;points=[[0,0.5],[1,0.5]];portConstraint=eastwest;top=0;left=0;right=0;bottom=0;fillColor=none;labelBackgroundColor=none;" parent="gtdaIvUS_uVvHvJYpVgE-1" vertex="1">
          <mxGeometry y="60" width="280" height="30" as="geometry" />
        </mxCell>
        <mxCell id="gtdaIvUS_uVvHvJYpVgE-6" value="" style="shape=partialRectangle;connectable=0;fillColor=none;top=0;left=0;bottom=0;right=0;editable=1;overflow=hidden;whiteSpace=wrap;html=1;labelBackgroundColor=none;" parent="gtdaIvUS_uVvHvJYpVgE-5" vertex="1">
          <mxGeometry width="30" height="30" as="geometry">
            <mxRectangle width="30" height="30" as="alternateBounds" />
          </mxGeometry>
        </mxCell>
        <mxCell id="gtdaIvUS_uVvHvJYpVgE-7" value="email&amp;nbsp;&lt;font style=&quot;color: rgb(204, 204, 204);&quot;&gt;TEXT, UNIQUE&lt;/font&gt;" style="shape=partialRectangle;connectable=0;fillColor=none;top=0;left=0;bottom=0;right=0;align=left;spacingLeft=6;overflow=hidden;whiteSpace=wrap;html=1;labelBackgroundColor=none;" parent="gtdaIvUS_uVvHvJYpVgE-5" vertex="1">
          <mxGeometry x="30" width="250" height="30" as="geometry">
            <mxRectangle width="250" height="30" as="alternateBounds" />
          </mxGeometry>
        </mxCell>
        <mxCell id="gtdaIvUS_uVvHvJYpVgE-8" value="" style="shape=tableRow;horizontal=0;startSize=0;swimlaneHead=0;swimlaneBody=0;collapsible=0;dropTarget=0;points=[[0,0.5],[1,0.5]];portConstraint=eastwest;top=0;left=0;right=0;bottom=0;fillColor=none;labelBackgroundColor=none;" parent="gtdaIvUS_uVvHvJYpVgE-1" vertex="1">
          <mxGeometry y="90" width="280" height="30" as="geometry" />
        </mxCell>
        <mxCell id="gtdaIvUS_uVvHvJYpVgE-9" value="" style="shape=partialRectangle;connectable=0;fillColor=none;top=0;left=0;bottom=0;right=0;editable=1;overflow=hidden;whiteSpace=wrap;html=1;labelBackgroundColor=none;" parent="gtdaIvUS_uVvHvJYpVgE-8" vertex="1">
          <mxGeometry width="30" height="30" as="geometry">
            <mxRectangle width="30" height="30" as="alternateBounds" />
          </mxGeometry>
        </mxCell>
        <mxCell id="gtdaIvUS_uVvHvJYpVgE-10" value="firstName&amp;nbsp;&lt;font style=&quot;color: rgb(204, 204, 204);&quot;&gt;TEXT&lt;/font&gt;" style="shape=partialRectangle;connectable=0;fillColor=none;top=0;left=0;bottom=0;right=0;align=left;spacingLeft=6;overflow=hidden;whiteSpace=wrap;html=1;labelBackgroundColor=none;" parent="gtdaIvUS_uVvHvJYpVgE-8" vertex="1">
          <mxGeometry x="30" width="250" height="30" as="geometry">
            <mxRectangle width="250" height="30" as="alternateBounds" />
          </mxGeometry>
        </mxCell>
        <mxCell id="gtdaIvUS_uVvHvJYpVgE-11" value="" style="shape=tableRow;horizontal=0;startSize=0;swimlaneHead=0;swimlaneBody=0;collapsible=0;dropTarget=0;points=[[0,0.5],[1,0.5]];portConstraint=eastwest;top=0;left=0;right=0;bottom=0;fillColor=none;labelBackgroundColor=none;" parent="gtdaIvUS_uVvHvJYpVgE-1" vertex="1">
          <mxGeometry y="120" width="280" height="30" as="geometry" />
        </mxCell>
        <mxCell id="gtdaIvUS_uVvHvJYpVgE-12" value="" style="shape=partialRectangle;connectable=0;fillColor=none;top=0;left=0;bottom=0;right=0;editable=1;overflow=hidden;whiteSpace=wrap;html=1;labelBackgroundColor=none;" parent="gtdaIvUS_uVvHvJYpVgE-11" vertex="1">
          <mxGeometry width="30" height="30" as="geometry">
            <mxRectangle width="30" height="30" as="alternateBounds" />
          </mxGeometry>
        </mxCell>
        <mxCell id="gtdaIvUS_uVvHvJYpVgE-13" value="lastName&amp;nbsp;&lt;font style=&quot;color: rgb(204, 204, 204);&quot;&gt;TEXT&lt;/font&gt;" style="shape=partialRectangle;connectable=0;fillColor=none;top=0;left=0;bottom=0;right=0;align=left;spacingLeft=6;overflow=hidden;whiteSpace=wrap;html=1;labelBackgroundColor=none;" parent="gtdaIvUS_uVvHvJYpVgE-11" vertex="1">
          <mxGeometry x="30" width="250" height="30" as="geometry">
            <mxRectangle width="250" height="30" as="alternateBounds" />
          </mxGeometry>
        </mxCell>
        <mxCell id="gtdaIvUS_uVvHvJYpVgE-14" value="" style="shape=tableRow;horizontal=0;startSize=0;swimlaneHead=0;swimlaneBody=0;collapsible=0;dropTarget=0;points=[[0,0.5],[1,0.5]];portConstraint=eastwest;top=0;left=0;right=0;bottom=0;fillColor=none;labelBackgroundColor=none;" parent="gtdaIvUS_uVvHvJYpVgE-1" vertex="1">
          <mxGeometry y="150" width="280" height="30" as="geometry" />
        </mxCell>
        <mxCell id="gtdaIvUS_uVvHvJYpVgE-15" value="" style="shape=partialRectangle;connectable=0;fillColor=none;top=0;left=0;bottom=0;right=0;editable=1;overflow=hidden;whiteSpace=wrap;html=1;labelBackgroundColor=none;" parent="gtdaIvUS_uVvHvJYpVgE-14" vertex="1">
          <mxGeometry width="30" height="30" as="geometry">
            <mxRectangle width="30" height="30" as="alternateBounds" />
          </mxGeometry>
        </mxCell>
        <mxCell id="gtdaIvUS_uVvHvJYpVgE-16" value="passwordHash&amp;nbsp;&lt;font style=&quot;color: rgb(204, 204, 204);&quot;&gt;OBFUSCATED_TEXT&lt;/font&gt;" style="shape=partialRectangle;connectable=0;fillColor=none;top=0;left=0;bottom=0;right=0;align=left;spacingLeft=6;overflow=hidden;whiteSpace=wrap;html=1;labelBackgroundColor=none;" parent="gtdaIvUS_uVvHvJYpVgE-14" vertex="1">
          <mxGeometry x="30" width="250" height="30" as="geometry">
            <mxRectangle width="250" height="30" as="alternateBounds" />
          </mxGeometry>
        </mxCell>
        <mxCell id="gtdaIvUS_uVvHvJYpVgE-17" value="" style="shape=tableRow;horizontal=0;startSize=0;swimlaneHead=0;swimlaneBody=0;collapsible=0;dropTarget=0;points=[[0,0.5],[1,0.5]];portConstraint=eastwest;top=0;left=0;right=0;bottom=0;fillColor=none;labelBackgroundColor=none;" parent="gtdaIvUS_uVvHvJYpVgE-1" vertex="1">
          <mxGeometry y="180" width="280" height="30" as="geometry" />
        </mxCell>
        <mxCell id="gtdaIvUS_uVvHvJYpVgE-18" value="" style="shape=partialRectangle;connectable=0;fillColor=none;top=0;left=0;bottom=0;right=0;editable=1;overflow=hidden;whiteSpace=wrap;html=1;labelBackgroundColor=none;" parent="gtdaIvUS_uVvHvJYpVgE-17" vertex="1">
          <mxGeometry width="30" height="30" as="geometry">
            <mxRectangle width="30" height="30" as="alternateBounds" />
          </mxGeometry>
        </mxCell>
        <mxCell id="gtdaIvUS_uVvHvJYpVgE-19" value="role&amp;nbsp;&lt;font style=&quot;color: rgb(204, 204, 204);&quot;&gt;ENUM&lt;/font&gt;" style="shape=partialRectangle;connectable=0;fillColor=none;top=0;left=0;bottom=0;right=0;align=left;spacingLeft=6;overflow=hidden;whiteSpace=wrap;html=1;labelBackgroundColor=none;" parent="gtdaIvUS_uVvHvJYpVgE-17" vertex="1">
          <mxGeometry x="30" width="250" height="30" as="geometry">
            <mxRectangle width="250" height="30" as="alternateBounds" />
          </mxGeometry>
        </mxCell>
        <mxCell id="gtdaIvUS_uVvHvJYpVgE-20" value="" style="shape=tableRow;horizontal=0;startSize=0;swimlaneHead=0;swimlaneBody=0;collapsible=0;dropTarget=0;points=[[0,0.5],[1,0.5]];portConstraint=eastwest;top=0;left=0;right=0;bottom=1;fillColor=none;labelBackgroundColor=none;" parent="gtdaIvUS_uVvHvJYpVgE-1" vertex="1">
          <mxGeometry y="210" width="280" height="30" as="geometry" />
        </mxCell>
        <mxCell id="gtdaIvUS_uVvHvJYpVgE-21" value="" style="shape=partialRectangle;connectable=0;fillColor=none;top=0;left=0;bottom=0;right=0;editable=1;overflow=hidden;whiteSpace=wrap;html=1;labelBackgroundColor=none;" parent="gtdaIvUS_uVvHvJYpVgE-20" vertex="1">
          <mxGeometry width="30" height="30" as="geometry">
            <mxRectangle width="30" height="30" as="alternateBounds" />
          </mxGeometry>
        </mxCell>
        <mxCell id="gtdaIvUS_uVvHvJYpVgE-22" value="status&amp;nbsp;&lt;font style=&quot;color: rgb(204, 204, 204);&quot;&gt;ENUM&lt;/font&gt;" style="shape=partialRectangle;connectable=0;fillColor=none;top=0;left=0;bottom=0;right=0;align=left;spacingLeft=6;overflow=hidden;whiteSpace=wrap;html=1;labelBackgroundColor=none;" parent="gtdaIvUS_uVvHvJYpVgE-20" vertex="1">
          <mxGeometry x="30" width="250" height="30" as="geometry">
            <mxRectangle width="250" height="30" as="alternateBounds" />
          </mxGeometry>
        </mxCell>
        <mxCell id="gtdaIvUS_uVvHvJYpVgE-23" value="" style="shape=tableRow;horizontal=0;startSize=0;swimlaneHead=0;swimlaneBody=0;collapsible=0;dropTarget=0;points=[[0,0.5],[1,0.5]];portConstraint=eastwest;top=0;left=0;right=0;bottom=0;fillColor=none;labelBackgroundColor=none;" parent="gtdaIvUS_uVvHvJYpVgE-1" vertex="1">
          <mxGeometry y="240" width="280" height="30" as="geometry" />
        </mxCell>
        <mxCell id="gtdaIvUS_uVvHvJYpVgE-24" value="" style="shape=partialRectangle;connectable=0;fillColor=none;top=0;left=0;bottom=0;right=0;editable=1;overflow=hidden;whiteSpace=wrap;html=1;labelBackgroundColor=none;" parent="gtdaIvUS_uVvHvJYpVgE-23" vertex="1">
          <mxGeometry width="30" height="30" as="geometry">
            <mxRectangle width="30" height="30" as="alternateBounds" />
          </mxGeometry>
        </mxCell>
        <mxCell id="gtdaIvUS_uVvHvJYpVgE-25" value="areHotkeysShown&amp;nbsp;&lt;font style=&quot;color: rgb(204, 204, 204);&quot;&gt;BOOL&lt;/font&gt;" style="shape=partialRectangle;connectable=0;fillColor=none;top=0;left=0;bottom=0;right=0;align=left;spacingLeft=6;overflow=hidden;whiteSpace=wrap;html=1;labelBackgroundColor=none;" parent="gtdaIvUS_uVvHvJYpVgE-23" vertex="1">
          <mxGeometry x="30" width="250" height="30" as="geometry">
            <mxRectangle width="250" height="30" as="alternateBounds" />
          </mxGeometry>
        </mxCell>
        <mxCell id="gtdaIvUS_uVvHvJYpVgE-26" value="" style="shape=tableRow;horizontal=0;startSize=0;swimlaneHead=0;swimlaneBody=0;collapsible=0;dropTarget=0;points=[[0,0.5],[1,0.5]];portConstraint=eastwest;top=0;left=0;right=0;bottom=0;fillColor=none;labelBackgroundColor=none;" parent="gtdaIvUS_uVvHvJYpVgE-1" vertex="1">
          <mxGeometry y="270" width="280" height="30" as="geometry" />
        </mxCell>
        <mxCell id="gtdaIvUS_uVvHvJYpVgE-27" value="" style="shape=partialRectangle;connectable=0;fillColor=none;top=0;left=0;bottom=0;right=0;editable=1;overflow=hidden;whiteSpace=wrap;html=1;labelBackgroundColor=none;" parent="gtdaIvUS_uVvHvJYpVgE-26" vertex="1">
          <mxGeometry width="30" height="30" as="geometry">
            <mxRectangle width="30" height="30" as="alternateBounds" />
          </mxGeometry>
        </mxCell>
        <mxCell id="gtdaIvUS_uVvHvJYpVgE-28" value="reviewModeEnabled&amp;nbsp;&lt;font style=&quot;color: rgb(204, 204, 204);&quot;&gt;BOOL&lt;/font&gt;" style="shape=partialRectangle;connectable=0;fillColor=none;top=0;left=0;bottom=0;right=0;align=left;spacingLeft=6;overflow=hidden;whiteSpace=wrap;html=1;labelBackgroundColor=none;" parent="gtdaIvUS_uVvHvJYpVgE-26" vertex="1">
          <mxGeometry x="30" width="250" height="30" as="geometry">
            <mxRectangle width="250" height="30" as="alternateBounds" />
          </mxGeometry>
        </mxCell>
        <mxCell id="gtdaIvUS_uVvHvJYpVgE-29" value="" style="shape=tableRow;horizontal=0;startSize=0;swimlaneHead=0;swimlaneBody=0;collapsible=0;dropTarget=0;points=[[0,0.5],[1,0.5]];portConstraint=eastwest;top=0;left=0;right=0;bottom=1;fillColor=none;labelBackgroundColor=none;" parent="gtdaIvUS_uVvHvJYpVgE-1" vertex="1">
          <mxGeometry y="300" width="280" height="30" as="geometry" />
        </mxCell>
        <mxCell id="gtdaIvUS_uVvHvJYpVgE-30" value="" style="shape=partialRectangle;connectable=0;fillColor=none;top=0;left=0;bottom=0;right=0;editable=1;overflow=hidden;whiteSpace=wrap;html=1;labelBackgroundColor=none;" parent="gtdaIvUS_uVvHvJYpVgE-29" vertex="1">
          <mxGeometry width="30" height="30" as="geometry">
            <mxRectangle width="30" height="30" as="alternateBounds" />
          </mxGeometry>
        </mxCell>
        <mxCell id="gtdaIvUS_uVvHvJYpVgE-31" value="criteriaIds&amp;nbsp;&lt;font style=&quot;color: rgb(204, 204, 204);&quot;&gt;LIST&amp;lt;UUID&amp;gt;&lt;/font&gt;" style="shape=partialRectangle;connectable=0;fillColor=none;top=0;left=0;bottom=0;right=0;align=left;spacingLeft=6;overflow=hidden;whiteSpace=wrap;html=1;labelBackgroundColor=none;" parent="gtdaIvUS_uVvHvJYpVgE-29" vertex="1">
          <mxGeometry x="30" width="250" height="30" as="geometry">
            <mxRectangle width="250" height="30" as="alternateBounds" />
          </mxGeometry>
        </mxCell>
        <mxCell id="gtdaIvUS_uVvHvJYpVgE-32" value="" style="shape=tableRow;horizontal=0;startSize=0;swimlaneHead=0;swimlaneBody=0;collapsible=0;dropTarget=0;points=[[0,0.5],[1,0.5]];portConstraint=eastwest;top=0;left=0;right=0;bottom=0;fillColor=none;labelBackgroundColor=none;" parent="gtdaIvUS_uVvHvJYpVgE-1" vertex="1">
          <mxGeometry y="330" width="280" height="30" as="geometry" />
        </mxCell>
        <mxCell id="gtdaIvUS_uVvHvJYpVgE-33" value="" style="shape=partialRectangle;connectable=0;fillColor=none;top=0;left=0;bottom=0;right=0;editable=1;overflow=hidden;whiteSpace=wrap;html=1;labelBackgroundColor=none;" parent="gtdaIvUS_uVvHvJYpVgE-32" vertex="1">
          <mxGeometry width="30" height="30" as="geometry">
            <mxRectangle width="30" height="30" as="alternateBounds" />
          </mxGeometry>
        </mxCell>
        <mxCell id="gtdaIvUS_uVvHvJYpVgE-34" value="similarityThreshold&amp;nbsp;&lt;font style=&quot;color: rgb(204, 204, 204);&quot;&gt;FLOAT&lt;/font&gt;" style="shape=partialRectangle;connectable=0;fillColor=none;top=0;left=0;bottom=0;right=0;align=left;spacingLeft=6;overflow=hidden;whiteSpace=wrap;html=1;labelBackgroundColor=none;" parent="gtdaIvUS_uVvHvJYpVgE-32" vertex="1">
          <mxGeometry x="30" width="250" height="30" as="geometry">
            <mxRectangle width="250" height="30" as="alternateBounds" />
          </mxGeometry>
        </mxCell>
        <mxCell id="gtdaIvUS_uVvHvJYpVgE-35" value="" style="shape=tableRow;horizontal=0;startSize=0;swimlaneHead=0;swimlaneBody=0;collapsible=0;dropTarget=0;points=[[0,0.5],[1,0.5]];portConstraint=eastwest;top=0;left=0;right=0;bottom=0;fillColor=none;labelBackgroundColor=none;" parent="gtdaIvUS_uVvHvJYpVgE-1" vertex="1">
          <mxGeometry y="360" width="280" height="30" as="geometry" />
        </mxCell>
        <mxCell id="gtdaIvUS_uVvHvJYpVgE-36" value="" style="shape=partialRectangle;connectable=0;fillColor=none;top=0;left=0;bottom=0;right=0;editable=1;overflow=hidden;whiteSpace=wrap;html=1;labelBackgroundColor=none;" parent="gtdaIvUS_uVvHvJYpVgE-35" vertex="1">
          <mxGeometry width="30" height="30" as="geometry">
            <mxRectangle width="30" height="30" as="alternateBounds" />
          </mxGeometry>
        </mxCell>
        <mxCell id="gtdaIvUS_uVvHvJYpVgE-37" value="decisionMatrix&amp;nbsp;&lt;font style=&quot;color: rgb(204, 204, 204);&quot;&gt;BINARY&lt;/font&gt;" style="shape=partialRectangle;connectable=0;fillColor=none;top=0;left=0;bottom=0;right=0;align=left;spacingLeft=6;overflow=hidden;whiteSpace=wrap;html=1;labelBackgroundColor=none;" parent="gtdaIvUS_uVvHvJYpVgE-35" vertex="1">
          <mxGeometry x="30" width="250" height="30" as="geometry">
            <mxRectangle width="250" height="30" as="alternateBounds" />
          </mxGeometry>
        </mxCell>
        <mxCell id="gtdaIvUS_uVvHvJYpVgE-38" value="" style="shape=tableRow;horizontal=0;startSize=0;swimlaneHead=0;swimlaneBody=0;collapsible=0;dropTarget=0;points=[[0,0.5],[1,0.5]];portConstraint=eastwest;top=0;left=0;right=0;bottom=0;fillColor=none;labelBackgroundColor=none;" parent="gtdaIvUS_uVvHvJYpVgE-1" vertex="1">
          <mxGeometry y="390" width="280" height="30" as="geometry" />
        </mxCell>
        <mxCell id="gtdaIvUS_uVvHvJYpVgE-39" value="" style="shape=partialRectangle;connectable=0;fillColor=none;top=0;left=0;bottom=0;right=0;editable=1;overflow=hidden;whiteSpace=wrap;html=1;labelBackgroundColor=none;" parent="gtdaIvUS_uVvHvJYpVgE-38" vertex="1">
          <mxGeometry width="30" height="30" as="geometry">
            <mxRectangle width="30" height="30" as="alternateBounds" />
          </mxGeometry>
        </mxCell>
        <mxCell id="gtdaIvUS_uVvHvJYpVgE-40" value="fetchers&amp;nbsp;&lt;font style=&quot;color: rgb(204, 204, 204);&quot;&gt;JSON&lt;/font&gt;" style="shape=partialRectangle;connectable=0;fillColor=none;top=0;left=0;bottom=0;right=0;align=left;spacingLeft=6;overflow=hidden;whiteSpace=wrap;html=1;labelBackgroundColor=none;" parent="gtdaIvUS_uVvHvJYpVgE-38" vertex="1">
          <mxGeometry x="30" width="250" height="30" as="geometry">
            <mxRectangle width="250" height="30" as="alternateBounds" />
          </mxGeometry>
        </mxCell>
        <mxCell id="gtdaIvUS_uVvHvJYpVgE-41" value="" style="shape=tableRow;horizontal=0;startSize=0;swimlaneHead=0;swimlaneBody=0;collapsible=0;dropTarget=0;points=[[0,0.5],[1,0.5]];portConstraint=eastwest;top=0;left=0;right=0;bottom=0;fillColor=none;labelBackgroundColor=none;" parent="gtdaIvUS_uVvHvJYpVgE-1" vertex="1">
          <mxGeometry y="420" width="280" height="30" as="geometry" />
        </mxCell>
        <mxCell id="gtdaIvUS_uVvHvJYpVgE-42" value="" style="shape=partialRectangle;connectable=0;fillColor=none;top=0;left=0;bottom=0;right=0;editable=1;overflow=hidden;whiteSpace=wrap;html=1;labelBackgroundColor=none;" parent="gtdaIvUS_uVvHvJYpVgE-41" vertex="1">
          <mxGeometry width="30" height="30" as="geometry">
            <mxRectangle width="30" height="30" as="alternateBounds" />
          </mxGeometry>
        </mxCell>
        <mxCell id="gtdaIvUS_uVvHvJYpVgE-43" value="snowballingType&amp;nbsp;&lt;font style=&quot;color: rgb(204, 204, 204);&quot;&gt;ENUM&lt;/font&gt;" style="shape=partialRectangle;connectable=0;fillColor=none;top=0;left=0;bottom=0;right=0;align=left;spacingLeft=6;overflow=hidden;whiteSpace=wrap;html=1;labelBackgroundColor=none;" parent="gtdaIvUS_uVvHvJYpVgE-41" vertex="1">
          <mxGeometry x="30" width="250" height="30" as="geometry">
            <mxRectangle width="250" height="30" as="alternateBounds" />
          </mxGeometry>
        </mxCell>
        <mxCell id="gtdaIvUS_uVvHvJYpVgE-44" value="" style="shape=tableRow;horizontal=0;startSize=0;swimlaneHead=0;swimlaneBody=0;collapsible=0;dropTarget=0;points=[[0,0.5],[1,0.5]];portConstraint=eastwest;top=0;left=0;right=0;bottom=1;fillColor=none;labelBackgroundColor=none;" parent="gtdaIvUS_uVvHvJYpVgE-1" vertex="1">
          <mxGeometry y="450" width="280" height="30" as="geometry" />
        </mxCell>
        <mxCell id="gtdaIvUS_uVvHvJYpVgE-45" value="" style="shape=partialRectangle;connectable=0;fillColor=none;top=0;left=0;bottom=0;right=0;editable=1;overflow=hidden;whiteSpace=wrap;html=1;labelBackgroundColor=none;" parent="gtdaIvUS_uVvHvJYpVgE-44" vertex="1">
          <mxGeometry width="30" height="30" as="geometry">
            <mxRectangle width="30" height="30" as="alternateBounds" />
          </mxGeometry>
        </mxCell>
        <mxCell id="gtdaIvUS_uVvHvJYpVgE-46" value="reviewMaybeAllowed&amp;nbsp;&lt;font style=&quot;color: rgb(204, 204, 204);&quot;&gt;BOOL&lt;/font&gt;" style="shape=partialRectangle;connectable=0;fillColor=none;top=0;left=0;bottom=0;right=0;align=left;spacingLeft=6;overflow=hidden;whiteSpace=wrap;html=1;labelBackgroundColor=none;" parent="gtdaIvUS_uVvHvJYpVgE-44" vertex="1">
          <mxGeometry x="30" width="250" height="30" as="geometry">
            <mxRectangle width="250" height="30" as="alternateBounds" />
          </mxGeometry>
        </mxCell>
        <mxCell id="gtdaIvUS_uVvHvJYpVgE-47" value="" style="shape=tableRow;horizontal=0;startSize=0;swimlaneHead=0;swimlaneBody=0;collapsible=0;dropTarget=0;points=[[0,0.5],[1,0.5]];portConstraint=eastwest;top=0;left=0;right=0;bottom=0;fillColor=none;labelBackgroundColor=none;" parent="gtdaIvUS_uVvHvJYpVgE-1" vertex="1">
          <mxGeometry y="480" width="280" height="30" as="geometry" />
        </mxCell>
        <mxCell id="gtdaIvUS_uVvHvJYpVgE-48" value="" style="shape=partialRectangle;connectable=0;fillColor=none;top=0;left=0;bottom=0;right=0;editable=1;overflow=hidden;whiteSpace=wrap;html=1;labelBackgroundColor=none;" parent="gtdaIvUS_uVvHvJYpVgE-47" vertex="1">
          <mxGeometry width="30" height="30" as="geometry">
            <mxRectangle width="30" height="30" as="alternateBounds" />
          </mxGeometry>
        </mxCell>
        <mxCell id="gtdaIvUS_uVvHvJYpVgE-49" value="createdAt&amp;nbsp;&lt;font style=&quot;color: rgb(204, 204, 204);&quot;&gt;TIMESTAMPTZ&lt;/font&gt;" style="shape=partialRectangle;connectable=0;fillColor=none;top=0;left=0;bottom=0;right=0;align=left;spacingLeft=6;overflow=hidden;whiteSpace=wrap;html=1;labelBackgroundColor=none;" parent="gtdaIvUS_uVvHvJYpVgE-47" vertex="1">
          <mxGeometry x="30" width="250" height="30" as="geometry">
            <mxRectangle width="250" height="30" as="alternateBounds" />
          </mxGeometry>
        </mxCell>
        <mxCell id="gtdaIvUS_uVvHvJYpVgE-50" value="" style="shape=tableRow;horizontal=0;startSize=0;swimlaneHead=0;swimlaneBody=0;collapsible=0;dropTarget=0;points=[[0,0.5],[1,0.5]];portConstraint=eastwest;top=0;left=0;right=0;bottom=0;fillColor=none;labelBackgroundColor=none;" parent="gtdaIvUS_uVvHvJYpVgE-1" vertex="1">
          <mxGeometry y="510" width="280" height="30" as="geometry" />
        </mxCell>
        <mxCell id="gtdaIvUS_uVvHvJYpVgE-51" value="" style="shape=partialRectangle;connectable=0;fillColor=none;top=0;left=0;bottom=0;right=0;editable=1;overflow=hidden;whiteSpace=wrap;html=1;labelBackgroundColor=none;" parent="gtdaIvUS_uVvHvJYpVgE-50" vertex="1">
          <mxGeometry width="30" height="30" as="geometry">
            <mxRectangle width="30" height="30" as="alternateBounds" />
          </mxGeometry>
        </mxCell>
        <mxCell id="gtdaIvUS_uVvHvJYpVgE-52" value="modifiedAt&amp;nbsp;&lt;font style=&quot;color: rgb(204, 204, 204);&quot;&gt;TIMESTAMPTZ, NULLABLE&lt;/font&gt;" style="shape=partialRectangle;connectable=0;fillColor=none;top=0;left=0;bottom=0;right=0;align=left;spacingLeft=6;overflow=hidden;whiteSpace=wrap;html=1;labelBackgroundColor=none;" parent="gtdaIvUS_uVvHvJYpVgE-50" vertex="1">
          <mxGeometry x="30" width="250" height="30" as="geometry">
            <mxRectangle width="250" height="30" as="alternateBounds" />
          </mxGeometry>
        </mxCell>
        <mxCell id="gtdaIvUS_uVvHvJYpVgE-53" value="" style="shape=tableRow;horizontal=0;startSize=0;swimlaneHead=0;swimlaneBody=0;collapsible=0;dropTarget=0;points=[[0,0.5],[1,0.5]];portConstraint=eastwest;top=0;left=0;right=0;bottom=0;fillColor=none;labelBackgroundColor=none;" parent="gtdaIvUS_uVvHvJYpVgE-1" vertex="1">
          <mxGeometry y="540" width="280" height="30" as="geometry" />
        </mxCell>
        <mxCell id="gtdaIvUS_uVvHvJYpVgE-54" value="" style="shape=partialRectangle;connectable=0;fillColor=none;top=0;left=0;bottom=0;right=0;editable=1;overflow=hidden;whiteSpace=wrap;html=1;labelBackgroundColor=none;" parent="gtdaIvUS_uVvHvJYpVgE-53" vertex="1">
          <mxGeometry width="30" height="30" as="geometry">
            <mxRectangle width="30" height="30" as="alternateBounds" />
          </mxGeometry>
        </mxCell>
        <mxCell id="gtdaIvUS_uVvHvJYpVgE-55" value="deletedAt&amp;nbsp;&lt;font style=&quot;color: rgb(204, 204, 204);&quot;&gt;TIMESTAMPTZ, NULLABLE&lt;/font&gt;" style="shape=partialRectangle;connectable=0;fillColor=none;top=0;left=0;bottom=0;right=0;align=left;spacingLeft=6;overflow=hidden;whiteSpace=wrap;html=1;labelBackgroundColor=none;" parent="gtdaIvUS_uVvHvJYpVgE-53" vertex="1">
          <mxGeometry x="30" width="250" height="30" as="geometry">
            <mxRectangle width="250" height="30" as="alternateBounds" />
          </mxGeometry>
        </mxCell>
        <mxCell id="R-MKoHGWoA9p2bsHh0tM-1" value="verification_token" style="shape=table;startSize=30;container=1;collapsible=1;childLayout=tableLayout;fixedRows=1;rowLines=0;fontStyle=1;align=center;resizeLast=1;html=1;rounded=1;top=1;bottom=1;labelBackgroundColor=none;swimlaneFillColor=default;" parent="1" vertex="1">
          <mxGeometry x="-320" y="450" width="280.0000000000001" height="150" as="geometry">
            <mxRectangle x="50" y="510" width="70" height="30" as="alternateBounds" />
          </mxGeometry>
        </mxCell>
        <mxCell id="R-MKoHGWoA9p2bsHh0tM-2" value="" style="shape=tableRow;horizontal=0;startSize=0;swimlaneHead=0;swimlaneBody=0;fillColor=none;collapsible=0;dropTarget=0;points=[[0,0.5],[1,0.5]];portConstraint=eastwest;top=0;left=0;right=0;bottom=1;fontStyle=0;labelBackgroundColor=none;" parent="R-MKoHGWoA9p2bsHh0tM-1" vertex="1">
          <mxGeometry y="30" width="280.0000000000001" height="30" as="geometry" />
        </mxCell>
        <mxCell id="R-MKoHGWoA9p2bsHh0tM-3" value="PK" style="shape=partialRectangle;connectable=0;fillColor=none;top=0;left=0;bottom=0;right=0;fontStyle=1;overflow=hidden;whiteSpace=wrap;html=1;labelBackgroundColor=none;" parent="R-MKoHGWoA9p2bsHh0tM-2" vertex="1">
          <mxGeometry width="30" height="30" as="geometry">
            <mxRectangle width="30" height="30" as="alternateBounds" />
          </mxGeometry>
        </mxCell>
        <mxCell id="R-MKoHGWoA9p2bsHh0tM-4" value="id&lt;font style=&quot;font-weight: normal; color: rgb(204, 204, 204);&quot;&gt; UUID&lt;/font&gt;" style="shape=partialRectangle;connectable=0;fillColor=none;top=0;left=0;bottom=0;right=0;align=left;spacingLeft=6;fontStyle=1;overflow=hidden;whiteSpace=wrap;html=1;labelBackgroundColor=none;" parent="R-MKoHGWoA9p2bsHh0tM-2" vertex="1">
          <mxGeometry x="30" width="250.0000000000001" height="30" as="geometry">
            <mxRectangle width="250.0000000000001" height="30" as="alternateBounds" />
          </mxGeometry>
        </mxCell>
        <mxCell id="R-MKoHGWoA9p2bsHh0tM-5" value="" style="shape=tableRow;horizontal=0;startSize=0;swimlaneHead=0;swimlaneBody=0;collapsible=0;dropTarget=0;points=[[0,0.5],[1,0.5]];portConstraint=eastwest;top=0;left=0;right=0;bottom=0;fillColor=none;labelBackgroundColor=none;" parent="R-MKoHGWoA9p2bsHh0tM-1" vertex="1">
          <mxGeometry y="60" width="280.0000000000001" height="30" as="geometry" />
        </mxCell>
        <mxCell id="R-MKoHGWoA9p2bsHh0tM-6" value="FK" style="shape=partialRectangle;connectable=0;fillColor=none;top=0;left=0;bottom=0;right=0;editable=1;overflow=hidden;whiteSpace=wrap;html=1;labelBackgroundColor=none;" parent="R-MKoHGWoA9p2bsHh0tM-5" vertex="1">
          <mxGeometry width="30" height="30" as="geometry">
            <mxRectangle width="30" height="30" as="alternateBounds" />
          </mxGeometry>
        </mxCell>
        <mxCell id="R-MKoHGWoA9p2bsHh0tM-7" value="userId&amp;nbsp;&lt;font style=&quot;color: rgb(204, 204, 204);&quot;&gt;UUID, UNIQUE&lt;/font&gt;" style="shape=partialRectangle;connectable=0;fillColor=none;top=0;left=0;bottom=0;right=0;align=left;spacingLeft=6;overflow=hidden;whiteSpace=wrap;html=1;labelBackgroundColor=none;" parent="R-MKoHGWoA9p2bsHh0tM-5" vertex="1">
          <mxGeometry x="30" width="250.0000000000001" height="30" as="geometry">
            <mxRectangle width="250.0000000000001" height="30" as="alternateBounds" />
          </mxGeometry>
        </mxCell>
        <mxCell id="R-MKoHGWoA9p2bsHh0tM-8" value="" style="shape=tableRow;horizontal=0;startSize=0;swimlaneHead=0;swimlaneBody=0;collapsible=0;dropTarget=0;points=[[0,0.5],[1,0.5]];portConstraint=eastwest;top=0;left=0;right=0;bottom=0;fillColor=none;labelBackgroundColor=none;" parent="R-MKoHGWoA9p2bsHh0tM-1" vertex="1">
          <mxGeometry y="90" width="280.0000000000001" height="30" as="geometry" />
        </mxCell>
        <mxCell id="R-MKoHGWoA9p2bsHh0tM-9" value="" style="shape=partialRectangle;connectable=0;fillColor=none;top=0;left=0;bottom=0;right=0;editable=1;overflow=hidden;whiteSpace=wrap;html=1;labelBackgroundColor=none;" parent="R-MKoHGWoA9p2bsHh0tM-8" vertex="1">
          <mxGeometry width="30" height="30" as="geometry">
            <mxRectangle width="30" height="30" as="alternateBounds" />
          </mxGeometry>
        </mxCell>
        <mxCell id="R-MKoHGWoA9p2bsHh0tM-10" value="token&amp;nbsp;&lt;span style=&quot;color: rgb(204, 204, 204);&quot;&gt;OBFUSCATED_TEXT, UNIQUE&lt;/span&gt;" style="shape=partialRectangle;connectable=0;fillColor=none;top=0;left=0;bottom=0;right=0;align=left;spacingLeft=6;overflow=hidden;whiteSpace=wrap;html=1;labelBackgroundColor=none;" parent="R-MKoHGWoA9p2bsHh0tM-8" vertex="1">
          <mxGeometry x="30" width="250.0000000000001" height="30" as="geometry">
            <mxRectangle width="250.0000000000001" height="30" as="alternateBounds" />
          </mxGeometry>
        </mxCell>
        <mxCell id="R-MKoHGWoA9p2bsHh0tM-11" value="" style="shape=tableRow;horizontal=0;startSize=0;swimlaneHead=0;swimlaneBody=0;collapsible=0;dropTarget=0;points=[[0,0.5],[1,0.5]];portConstraint=eastwest;top=0;left=0;right=0;bottom=0;fillColor=none;labelBackgroundColor=none;" parent="R-MKoHGWoA9p2bsHh0tM-1" vertex="1">
          <mxGeometry y="120" width="280.0000000000001" height="30" as="geometry" />
        </mxCell>
        <mxCell id="R-MKoHGWoA9p2bsHh0tM-12" value="" style="shape=partialRectangle;connectable=0;fillColor=none;top=0;left=0;bottom=0;right=0;editable=1;overflow=hidden;whiteSpace=wrap;html=1;labelBackgroundColor=none;" parent="R-MKoHGWoA9p2bsHh0tM-11" vertex="1">
          <mxGeometry width="30" height="30" as="geometry">
            <mxRectangle width="30" height="30" as="alternateBounds" />
          </mxGeometry>
        </mxCell>
        <mxCell id="R-MKoHGWoA9p2bsHh0tM-13" value="expiresAt&amp;nbsp;&lt;font style=&quot;color: rgb(204, 204, 204);&quot;&gt;TIMESTAMPTZ&lt;/font&gt;" style="shape=partialRectangle;connectable=0;fillColor=none;top=0;left=0;bottom=0;right=0;align=left;spacingLeft=6;overflow=hidden;whiteSpace=wrap;html=1;labelBackgroundColor=none;" parent="R-MKoHGWoA9p2bsHh0tM-11" vertex="1">
          <mxGeometry x="30" width="250.0000000000001" height="30" as="geometry">
            <mxRectangle width="250.0000000000001" height="30" as="alternateBounds" />
          </mxGeometry>
        </mxCell>
        <mxCell id="R-MKoHGWoA9p2bsHh0tM-56" value="project" style="shape=table;startSize=30;container=1;collapsible=1;childLayout=tableLayout;fixedRows=1;rowLines=0;fontStyle=1;align=center;resizeLast=1;html=1;rounded=1;top=1;labelBackgroundColor=none;swimlaneFillColor=default;" parent="1" vertex="1">
          <mxGeometry x="760" y="480" width="279.9999999999998" height="600" as="geometry">
            <mxRectangle x="50" y="510" width="70" height="30" as="alternateBounds" />
          </mxGeometry>
        </mxCell>
        <mxCell id="R-MKoHGWoA9p2bsHh0tM-57" value="" style="shape=tableRow;horizontal=0;startSize=0;swimlaneHead=0;swimlaneBody=0;fillColor=none;collapsible=0;dropTarget=0;points=[[0,0.5],[1,0.5]];portConstraint=eastwest;top=0;left=0;right=0;bottom=1;fontStyle=0;labelBackgroundColor=none;" parent="R-MKoHGWoA9p2bsHh0tM-56" vertex="1">
          <mxGeometry y="30" width="279.9999999999998" height="30" as="geometry" />
        </mxCell>
        <mxCell id="R-MKoHGWoA9p2bsHh0tM-58" value="PK" style="shape=partialRectangle;connectable=0;fillColor=none;top=0;left=0;bottom=0;right=0;fontStyle=1;overflow=hidden;whiteSpace=wrap;html=1;labelBackgroundColor=none;" parent="R-MKoHGWoA9p2bsHh0tM-57" vertex="1">
          <mxGeometry width="30" height="30" as="geometry">
            <mxRectangle width="30" height="30" as="alternateBounds" />
          </mxGeometry>
        </mxCell>
        <mxCell id="R-MKoHGWoA9p2bsHh0tM-59" value="id&lt;font style=&quot;font-weight: normal; color: rgb(204, 204, 204);&quot;&gt; UUID&lt;/font&gt;" style="shape=partialRectangle;connectable=0;fillColor=none;top=0;left=0;bottom=0;right=0;align=left;spacingLeft=6;fontStyle=1;overflow=hidden;whiteSpace=wrap;html=1;labelBackgroundColor=none;" parent="R-MKoHGWoA9p2bsHh0tM-57" vertex="1">
          <mxGeometry x="30" width="249.99999999999977" height="30" as="geometry">
            <mxRectangle width="249.99999999999977" height="30" as="alternateBounds" />
          </mxGeometry>
        </mxCell>
        <mxCell id="R-MKoHGWoA9p2bsHh0tM-60" value="" style="shape=tableRow;horizontal=0;startSize=0;swimlaneHead=0;swimlaneBody=0;collapsible=0;dropTarget=0;points=[[0,0.5],[1,0.5]];portConstraint=eastwest;top=0;left=0;right=0;bottom=0;fillColor=none;labelBackgroundColor=none;" parent="R-MKoHGWoA9p2bsHh0tM-56" vertex="1">
          <mxGeometry y="60" width="279.9999999999998" height="30" as="geometry" />
        </mxCell>
        <mxCell id="R-MKoHGWoA9p2bsHh0tM-61" value="" style="shape=partialRectangle;connectable=0;fillColor=none;top=0;left=0;bottom=0;right=0;editable=1;overflow=hidden;whiteSpace=wrap;html=1;labelBackgroundColor=none;" parent="R-MKoHGWoA9p2bsHh0tM-60" vertex="1">
          <mxGeometry width="30" height="30" as="geometry">
            <mxRectangle width="30" height="30" as="alternateBounds" />
          </mxGeometry>
        </mxCell>
        <mxCell id="R-MKoHGWoA9p2bsHh0tM-62" value="name&amp;nbsp;&lt;font style=&quot;color: rgb(204, 204, 204);&quot;&gt;TEXT&lt;/font&gt;" style="shape=partialRectangle;connectable=0;fillColor=none;top=0;left=0;bottom=0;right=0;align=left;spacingLeft=6;overflow=hidden;whiteSpace=wrap;html=1;labelBackgroundColor=none;" parent="R-MKoHGWoA9p2bsHh0tM-60" vertex="1">
          <mxGeometry x="30" width="249.99999999999977" height="30" as="geometry">
            <mxRectangle width="249.99999999999977" height="30" as="alternateBounds" />
          </mxGeometry>
        </mxCell>
        <mxCell id="R-MKoHGWoA9p2bsHh0tM-63" value="" style="shape=tableRow;horizontal=0;startSize=0;swimlaneHead=0;swimlaneBody=0;collapsible=0;dropTarget=0;points=[[0,0.5],[1,0.5]];portConstraint=eastwest;top=0;left=0;right=0;bottom=0;fillColor=none;labelBackgroundColor=none;" parent="R-MKoHGWoA9p2bsHh0tM-56" vertex="1">
          <mxGeometry y="90" width="279.9999999999998" height="30" as="geometry" />
        </mxCell>
        <mxCell id="R-MKoHGWoA9p2bsHh0tM-64" value="" style="shape=partialRectangle;connectable=0;fillColor=none;top=0;left=0;bottom=0;right=0;editable=1;overflow=hidden;whiteSpace=wrap;html=1;labelBackgroundColor=none;" parent="R-MKoHGWoA9p2bsHh0tM-63" vertex="1">
          <mxGeometry width="30" height="30" as="geometry">
            <mxRectangle width="30" height="30" as="alternateBounds" />
          </mxGeometry>
        </mxCell>
        <mxCell id="R-MKoHGWoA9p2bsHh0tM-65" value="status&amp;nbsp;&lt;font style=&quot;color: rgb(204, 204, 204);&quot;&gt;ENUM&lt;/font&gt;" style="shape=partialRectangle;connectable=0;fillColor=none;top=0;left=0;bottom=0;right=0;align=left;spacingLeft=6;overflow=hidden;whiteSpace=wrap;html=1;labelBackgroundColor=none;" parent="R-MKoHGWoA9p2bsHh0tM-63" vertex="1">
          <mxGeometry x="30" width="249.99999999999977" height="30" as="geometry">
            <mxRectangle width="249.99999999999977" height="30" as="alternateBounds" />
          </mxGeometry>
        </mxCell>
        <mxCell id="R-MKoHGWoA9p2bsHh0tM-66" value="" style="shape=tableRow;horizontal=0;startSize=0;swimlaneHead=0;swimlaneBody=0;collapsible=0;dropTarget=0;points=[[0,0.5],[1,0.5]];portConstraint=eastwest;top=0;left=0;right=0;bottom=0;fillColor=none;labelBackgroundColor=none;" parent="R-MKoHGWoA9p2bsHh0tM-56" vertex="1">
          <mxGeometry y="120" width="279.9999999999998" height="30" as="geometry" />
        </mxCell>
        <mxCell id="R-MKoHGWoA9p2bsHh0tM-67" value="" style="shape=partialRectangle;connectable=0;fillColor=none;top=0;left=0;bottom=0;right=0;editable=1;overflow=hidden;whiteSpace=wrap;html=1;labelBackgroundColor=none;" parent="R-MKoHGWoA9p2bsHh0tM-66" vertex="1">
          <mxGeometry width="30" height="30" as="geometry">
            <mxRectangle width="30" height="30" as="alternateBounds" />
          </mxGeometry>
        </mxCell>
        <mxCell id="R-MKoHGWoA9p2bsHh0tM-68" value="currentStage&amp;nbsp;&lt;font style=&quot;color: rgb(204, 204, 204);&quot;&gt;LONG&lt;/font&gt;" style="shape=partialRectangle;connectable=0;fillColor=none;top=0;left=0;bottom=0;right=0;align=left;spacingLeft=6;overflow=hidden;whiteSpace=wrap;html=1;labelBackgroundColor=none;" parent="R-MKoHGWoA9p2bsHh0tM-66" vertex="1">
          <mxGeometry x="30" width="249.99999999999977" height="30" as="geometry">
            <mxRectangle width="249.99999999999977" height="30" as="alternateBounds" />
          </mxGeometry>
        </mxCell>
        <mxCell id="R-MKoHGWoA9p2bsHh0tM-69" value="" style="shape=tableRow;horizontal=0;startSize=0;swimlaneHead=0;swimlaneBody=0;collapsible=0;dropTarget=0;points=[[0,0.5],[1,0.5]];portConstraint=eastwest;top=0;left=0;right=0;bottom=0;fillColor=none;labelBackgroundColor=none;" parent="R-MKoHGWoA9p2bsHh0tM-56" vertex="1">
          <mxGeometry y="150" width="279.9999999999998" height="30" as="geometry" />
        </mxCell>
        <mxCell id="R-MKoHGWoA9p2bsHh0tM-70" value="" style="shape=partialRectangle;connectable=0;fillColor=none;top=0;left=0;bottom=0;right=0;editable=1;overflow=hidden;whiteSpace=wrap;html=1;labelBackgroundColor=none;" parent="R-MKoHGWoA9p2bsHh0tM-69" vertex="1">
          <mxGeometry width="30" height="30" as="geometry">
            <mxRectangle width="30" height="30" as="alternateBounds" />
          </mxGeometry>
        </mxCell>
        <mxCell id="R-MKoHGWoA9p2bsHh0tM-71" value="maxStage&amp;nbsp;&lt;font style=&quot;color: rgb(204, 204, 204);&quot;&gt;LONG&lt;/font&gt;" style="shape=partialRectangle;connectable=0;fillColor=none;top=0;left=0;bottom=0;right=0;align=left;spacingLeft=6;overflow=hidden;whiteSpace=wrap;html=1;labelBackgroundColor=none;" parent="R-MKoHGWoA9p2bsHh0tM-69" vertex="1">
          <mxGeometry x="30" width="249.99999999999977" height="30" as="geometry">
            <mxRectangle width="249.99999999999977" height="30" as="alternateBounds" />
          </mxGeometry>
        </mxCell>
        <mxCell id="R-MKoHGWoA9p2bsHh0tM-72" value="" style="shape=tableRow;horizontal=0;startSize=0;swimlaneHead=0;swimlaneBody=0;collapsible=0;dropTarget=0;points=[[0,0.5],[1,0.5]];portConstraint=eastwest;top=0;left=0;right=0;bottom=0;fillColor=none;labelBackgroundColor=none;" parent="R-MKoHGWoA9p2bsHh0tM-56" vertex="1">
          <mxGeometry y="180" width="279.9999999999998" height="30" as="geometry" />
        </mxCell>
        <mxCell id="R-MKoHGWoA9p2bsHh0tM-73" value="" style="shape=partialRectangle;connectable=0;fillColor=none;top=0;left=0;bottom=0;right=0;editable=1;overflow=hidden;whiteSpace=wrap;html=1;labelBackgroundColor=none;" parent="R-MKoHGWoA9p2bsHh0tM-72" vertex="1">
          <mxGeometry width="30" height="30" as="geometry">
            <mxRectangle width="30" height="30" as="alternateBounds" />
          </mxGeometry>
        </mxCell>
        <mxCell id="R-MKoHGWoA9p2bsHh0tM-74" value="similarityThreshold&amp;nbsp;&lt;font style=&quot;color: rgb(204, 204, 204);&quot;&gt;FLOAT&lt;/font&gt;" style="shape=partialRectangle;connectable=0;fillColor=none;top=0;left=0;bottom=0;right=0;align=left;spacingLeft=6;overflow=hidden;whiteSpace=wrap;html=1;labelBackgroundColor=none;" parent="R-MKoHGWoA9p2bsHh0tM-72" vertex="1">
          <mxGeometry x="30" width="249.99999999999977" height="30" as="geometry">
            <mxRectangle width="249.99999999999977" height="30" as="alternateBounds" />
          </mxGeometry>
        </mxCell>
        <mxCell id="R-MKoHGWoA9p2bsHh0tM-75" value="" style="shape=tableRow;horizontal=0;startSize=0;swimlaneHead=0;swimlaneBody=0;collapsible=0;dropTarget=0;points=[[0,0.5],[1,0.5]];portConstraint=eastwest;top=0;left=0;right=0;bottom=0;fillColor=none;labelBackgroundColor=none;" parent="R-MKoHGWoA9p2bsHh0tM-56" vertex="1">
          <mxGeometry y="210" width="279.9999999999998" height="30" as="geometry" />
        </mxCell>
        <mxCell id="R-MKoHGWoA9p2bsHh0tM-76" value="" style="shape=partialRectangle;connectable=0;fillColor=none;top=0;left=0;bottom=0;right=0;editable=1;overflow=hidden;whiteSpace=wrap;html=1;labelBackgroundColor=none;" parent="R-MKoHGWoA9p2bsHh0tM-75" vertex="1">
          <mxGeometry width="30" height="30" as="geometry">
            <mxRectangle width="30" height="30" as="alternateBounds" />
          </mxGeometry>
        </mxCell>
        <mxCell id="R-MKoHGWoA9p2bsHh0tM-77" value="snowballingType&amp;nbsp;&lt;font style=&quot;color: rgb(204, 204, 204);&quot;&gt;ENUM&lt;/font&gt;" style="shape=partialRectangle;connectable=0;fillColor=none;top=0;left=0;bottom=0;right=0;align=left;spacingLeft=6;overflow=hidden;whiteSpace=wrap;html=1;labelBackgroundColor=none;" parent="R-MKoHGWoA9p2bsHh0tM-75" vertex="1">
          <mxGeometry x="30" width="249.99999999999977" height="30" as="geometry">
            <mxRectangle width="249.99999999999977" height="30" as="alternateBounds" />
          </mxGeometry>
        </mxCell>
        <mxCell id="R-MKoHGWoA9p2bsHh0tM-78" value="" style="shape=tableRow;horizontal=0;startSize=0;swimlaneHead=0;swimlaneBody=0;collapsible=0;dropTarget=0;points=[[0,0.5],[1,0.5]];portConstraint=eastwest;top=0;left=0;right=0;bottom=0;fillColor=none;labelBackgroundColor=none;" parent="R-MKoHGWoA9p2bsHh0tM-56" vertex="1">
          <mxGeometry y="240" width="279.9999999999998" height="30" as="geometry" />
        </mxCell>
        <mxCell id="R-MKoHGWoA9p2bsHh0tM-79" value="" style="shape=partialRectangle;connectable=0;fillColor=none;top=0;left=0;bottom=0;right=0;editable=1;overflow=hidden;whiteSpace=wrap;html=1;labelBackgroundColor=none;" parent="R-MKoHGWoA9p2bsHh0tM-78" vertex="1">
          <mxGeometry width="30" height="30" as="geometry">
            <mxRectangle width="30" height="30" as="alternateBounds" />
          </mxGeometry>
        </mxCell>
        <mxCell id="R-MKoHGWoA9p2bsHh0tM-80" value="reviewMaybeAllow&amp;nbsp;&lt;font style=&quot;color: rgb(204, 204, 204);&quot;&gt;BOOL&lt;/font&gt;" style="shape=partialRectangle;connectable=0;fillColor=none;top=0;left=0;bottom=0;right=0;align=left;spacingLeft=6;overflow=hidden;whiteSpace=wrap;html=1;labelBackgroundColor=none;" parent="R-MKoHGWoA9p2bsHh0tM-78" vertex="1">
          <mxGeometry x="30" width="249.99999999999977" height="30" as="geometry">
            <mxRectangle width="249.99999999999977" height="30" as="alternateBounds" />
          </mxGeometry>
        </mxCell>
        <mxCell id="R-MKoHGWoA9p2bsHh0tM-81" value="" style="shape=tableRow;horizontal=0;startSize=0;swimlaneHead=0;swimlaneBody=0;collapsible=0;dropTarget=0;points=[[0,0.5],[1,0.5]];portConstraint=eastwest;top=0;left=0;right=0;bottom=0;fillColor=none;labelBackgroundColor=none;" parent="R-MKoHGWoA9p2bsHh0tM-56" vertex="1">
          <mxGeometry y="270" width="279.9999999999998" height="30" as="geometry" />
        </mxCell>
        <mxCell id="R-MKoHGWoA9p2bsHh0tM-82" value="" style="shape=partialRectangle;connectable=0;fillColor=none;top=0;left=0;bottom=0;right=0;editable=1;overflow=hidden;whiteSpace=wrap;html=1;labelBackgroundColor=none;" parent="R-MKoHGWoA9p2bsHh0tM-81" vertex="1">
          <mxGeometry width="30" height="30" as="geometry">
            <mxRectangle width="30" height="30" as="alternateBounds" />
          </mxGeometry>
        </mxCell>
        <mxCell id="R-MKoHGWoA9p2bsHh0tM-83" value="reviewDecisionMatrix&amp;nbsp;&lt;font style=&quot;color: rgb(204, 204, 204);&quot;&gt;BINARY&lt;/font&gt;" style="shape=partialRectangle;connectable=0;fillColor=none;top=0;left=0;bottom=0;right=0;align=left;spacingLeft=6;overflow=hidden;whiteSpace=wrap;html=1;labelBackgroundColor=none;" parent="R-MKoHGWoA9p2bsHh0tM-81" vertex="1">
          <mxGeometry x="30" width="249.99999999999977" height="30" as="geometry">
            <mxRectangle width="249.99999999999977" height="30" as="alternateBounds" />
          </mxGeometry>
        </mxCell>
        <mxCell id="R-MKoHGWoA9p2bsHh0tM-84" value="" style="shape=tableRow;horizontal=0;startSize=0;swimlaneHead=0;swimlaneBody=0;collapsible=0;dropTarget=0;points=[[0,0.5],[1,0.5]];portConstraint=eastwest;top=0;left=0;right=0;bottom=0;fillColor=none;labelBackgroundColor=none;" parent="R-MKoHGWoA9p2bsHh0tM-56" vertex="1">
          <mxGeometry y="300" width="279.9999999999998" height="30" as="geometry" />
        </mxCell>
        <mxCell id="R-MKoHGWoA9p2bsHh0tM-85" value="" style="shape=partialRectangle;connectable=0;fillColor=none;top=0;left=0;bottom=0;right=0;editable=1;overflow=hidden;whiteSpace=wrap;html=1;labelBackgroundColor=none;" parent="R-MKoHGWoA9p2bsHh0tM-84" vertex="1">
          <mxGeometry width="30" height="30" as="geometry">
            <mxRectangle width="30" height="30" as="alternateBounds" />
          </mxGeometry>
        </mxCell>
        <mxCell id="R-MKoHGWoA9p2bsHh0tM-86" value="fetchers&amp;nbsp;&lt;font style=&quot;color: rgb(204, 204, 204);&quot;&gt;JSON&lt;/font&gt;" style="shape=partialRectangle;connectable=0;fillColor=none;top=0;left=0;bottom=0;right=0;align=left;spacingLeft=6;overflow=hidden;whiteSpace=wrap;html=1;labelBackgroundColor=none;" parent="R-MKoHGWoA9p2bsHh0tM-84" vertex="1">
          <mxGeometry x="30" width="249.99999999999977" height="30" as="geometry">
            <mxRectangle width="249.99999999999977" height="30" as="alternateBounds" />
          </mxGeometry>
        </mxCell>
        <mxCell id="R-MKoHGWoA9p2bsHh0tM-87" value="" style="shape=tableRow;horizontal=0;startSize=0;swimlaneHead=0;swimlaneBody=0;collapsible=0;dropTarget=0;points=[[0,0.5],[1,0.5]];portConstraint=eastwest;top=0;left=0;right=0;bottom=1;fillColor=none;labelBackgroundColor=none;" parent="R-MKoHGWoA9p2bsHh0tM-56" vertex="1">
          <mxGeometry y="330" width="279.9999999999998" height="30" as="geometry" />
        </mxCell>
        <mxCell id="R-MKoHGWoA9p2bsHh0tM-88" value="" style="shape=partialRectangle;connectable=0;fillColor=none;top=0;left=0;bottom=0;right=0;editable=1;overflow=hidden;whiteSpace=wrap;html=1;labelBackgroundColor=none;" parent="R-MKoHGWoA9p2bsHh0tM-87" vertex="1">
          <mxGeometry width="30" height="30" as="geometry">
            <mxRectangle width="30" height="30" as="alternateBounds" />
          </mxGeometry>
        </mxCell>
        <mxCell id="R-MKoHGWoA9p2bsHh0tM-89" value="currentStageStartedAt&amp;nbsp;&lt;font style=&quot;color: rgb(204, 204, 204);&quot;&gt;TIMESTAMPTZ&lt;/font&gt;" style="shape=partialRectangle;connectable=0;fillColor=none;top=0;left=0;bottom=0;right=0;align=left;spacingLeft=6;overflow=hidden;whiteSpace=wrap;html=1;labelBackgroundColor=none;" parent="R-MKoHGWoA9p2bsHh0tM-87" vertex="1">
          <mxGeometry x="30" width="249.99999999999977" height="30" as="geometry">
            <mxRectangle width="249.99999999999977" height="30" as="alternateBounds" />
          </mxGeometry>
        </mxCell>
        <mxCell id="R-MKoHGWoA9p2bsHh0tM-90" value="" style="shape=tableRow;horizontal=0;startSize=0;swimlaneHead=0;swimlaneBody=0;collapsible=0;dropTarget=0;points=[[0,0.5],[1,0.5]];portConstraint=eastwest;top=0;left=0;right=0;bottom=0;fillColor=none;labelBackgroundColor=none;" parent="R-MKoHGWoA9p2bsHh0tM-56" vertex="1">
          <mxGeometry y="360" width="279.9999999999998" height="30" as="geometry" />
        </mxCell>
        <mxCell id="R-MKoHGWoA9p2bsHh0tM-91" value="" style="shape=partialRectangle;connectable=0;fillColor=none;top=0;left=0;bottom=0;right=0;editable=1;overflow=hidden;whiteSpace=wrap;html=1;labelBackgroundColor=none;" parent="R-MKoHGWoA9p2bsHh0tM-90" vertex="1">
          <mxGeometry width="30" height="30" as="geometry">
            <mxRectangle width="30" height="30" as="alternateBounds" />
          </mxGeometry>
        </mxCell>
        <mxCell id="R-MKoHGWoA9p2bsHh0tM-92" value="createdAt&amp;nbsp;&lt;span style=&quot;color: rgb(204, 204, 204);&quot;&gt;TIMESTAMPTZ&lt;/span&gt;" style="shape=partialRectangle;connectable=0;fillColor=none;top=0;left=0;bottom=0;right=0;align=left;spacingLeft=6;overflow=hidden;whiteSpace=wrap;html=1;labelBackgroundColor=none;" parent="R-MKoHGWoA9p2bsHh0tM-90" vertex="1">
          <mxGeometry x="30" width="249.99999999999977" height="30" as="geometry">
            <mxRectangle width="249.99999999999977" height="30" as="alternateBounds" />
          </mxGeometry>
        </mxCell>
        <mxCell id="R-MKoHGWoA9p2bsHh0tM-93" value="" style="shape=tableRow;horizontal=0;startSize=0;swimlaneHead=0;swimlaneBody=0;collapsible=0;dropTarget=0;points=[[0,0.5],[1,0.5]];portConstraint=eastwest;top=0;left=0;right=0;bottom=0;fillColor=none;labelBackgroundColor=none;" parent="R-MKoHGWoA9p2bsHh0tM-56" vertex="1">
          <mxGeometry y="390" width="279.9999999999998" height="30" as="geometry" />
        </mxCell>
        <mxCell id="R-MKoHGWoA9p2bsHh0tM-94" value="FK" style="shape=partialRectangle;connectable=0;fillColor=none;top=0;left=0;bottom=0;right=0;editable=1;overflow=hidden;whiteSpace=wrap;html=1;labelBackgroundColor=none;" parent="R-MKoHGWoA9p2bsHh0tM-93" vertex="1">
          <mxGeometry width="30" height="30" as="geometry">
            <mxRectangle width="30" height="30" as="alternateBounds" />
          </mxGeometry>
        </mxCell>
        <mxCell id="R-MKoHGWoA9p2bsHh0tM-95" value="createdBy&amp;nbsp;&lt;font style=&quot;color: rgb(204, 204, 204);&quot;&gt;UUID&lt;/font&gt;" style="shape=partialRectangle;connectable=0;fillColor=none;top=0;left=0;bottom=0;right=0;align=left;spacingLeft=6;overflow=hidden;whiteSpace=wrap;html=1;labelBackgroundColor=none;" parent="R-MKoHGWoA9p2bsHh0tM-93" vertex="1">
          <mxGeometry x="30" width="249.99999999999977" height="30" as="geometry">
            <mxRectangle width="249.99999999999977" height="30" as="alternateBounds" />
          </mxGeometry>
        </mxCell>
        <mxCell id="R-MKoHGWoA9p2bsHh0tM-96" value="" style="shape=tableRow;horizontal=0;startSize=0;swimlaneHead=0;swimlaneBody=0;collapsible=0;dropTarget=0;points=[[0,0.5],[1,0.5]];portConstraint=eastwest;top=0;left=0;right=0;bottom=0;fillColor=none;labelBackgroundColor=none;" parent="R-MKoHGWoA9p2bsHh0tM-56" vertex="1">
          <mxGeometry y="420" width="279.9999999999998" height="30" as="geometry" />
        </mxCell>
        <mxCell id="R-MKoHGWoA9p2bsHh0tM-97" value="" style="shape=partialRectangle;connectable=0;fillColor=none;top=0;left=0;bottom=0;right=0;editable=1;overflow=hidden;whiteSpace=wrap;html=1;labelBackgroundColor=none;" parent="R-MKoHGWoA9p2bsHh0tM-96" vertex="1">
          <mxGeometry width="30" height="30" as="geometry">
            <mxRectangle width="30" height="30" as="alternateBounds" />
          </mxGeometry>
        </mxCell>
        <mxCell id="R-MKoHGWoA9p2bsHh0tM-98" value="modifiedAt&amp;nbsp;&lt;span style=&quot;color: rgb(204, 204, 204);&quot;&gt;TIMESTAMPTZ, NULLABLE&lt;/span&gt;" style="shape=partialRectangle;connectable=0;fillColor=none;top=0;left=0;bottom=0;right=0;align=left;spacingLeft=6;overflow=hidden;whiteSpace=wrap;html=1;labelBackgroundColor=none;" parent="R-MKoHGWoA9p2bsHh0tM-96" vertex="1">
          <mxGeometry x="30" width="249.99999999999977" height="30" as="geometry">
            <mxRectangle width="249.99999999999977" height="30" as="alternateBounds" />
          </mxGeometry>
        </mxCell>
        <mxCell id="R-MKoHGWoA9p2bsHh0tM-99" value="" style="shape=tableRow;horizontal=0;startSize=0;swimlaneHead=0;swimlaneBody=0;collapsible=0;dropTarget=0;points=[[0,0.5],[1,0.5]];portConstraint=eastwest;top=0;left=0;right=0;bottom=0;fillColor=none;labelBackgroundColor=none;" parent="R-MKoHGWoA9p2bsHh0tM-56" vertex="1">
          <mxGeometry y="450" width="279.9999999999998" height="30" as="geometry" />
        </mxCell>
        <mxCell id="R-MKoHGWoA9p2bsHh0tM-100" value="FK" style="shape=partialRectangle;connectable=0;fillColor=none;top=0;left=0;bottom=0;right=0;editable=1;overflow=hidden;whiteSpace=wrap;html=1;labelBackgroundColor=none;" parent="R-MKoHGWoA9p2bsHh0tM-99" vertex="1">
          <mxGeometry width="30" height="30" as="geometry">
            <mxRectangle width="30" height="30" as="alternateBounds" />
          </mxGeometry>
        </mxCell>
        <mxCell id="R-MKoHGWoA9p2bsHh0tM-101" value="modifiedBy&amp;nbsp;&lt;font style=&quot;color: rgb(204, 204, 204);&quot;&gt;UUID, NULLABLE&lt;/font&gt;" style="shape=partialRectangle;connectable=0;fillColor=none;top=0;left=0;bottom=0;right=0;align=left;spacingLeft=6;overflow=hidden;whiteSpace=wrap;html=1;labelBackgroundColor=none;" parent="R-MKoHGWoA9p2bsHh0tM-99" vertex="1">
          <mxGeometry x="30" width="249.99999999999977" height="30" as="geometry">
            <mxRectangle width="249.99999999999977" height="30" as="alternateBounds" />
          </mxGeometry>
        </mxCell>
        <mxCell id="R-MKoHGWoA9p2bsHh0tM-102" value="" style="shape=tableRow;horizontal=0;startSize=0;swimlaneHead=0;swimlaneBody=0;collapsible=0;dropTarget=0;points=[[0,0.5],[1,0.5]];portConstraint=eastwest;top=0;left=0;right=0;bottom=0;fillColor=none;labelBackgroundColor=none;" parent="R-MKoHGWoA9p2bsHh0tM-56" vertex="1">
          <mxGeometry y="480" width="279.9999999999998" height="30" as="geometry" />
        </mxCell>
        <mxCell id="R-MKoHGWoA9p2bsHh0tM-103" value="" style="shape=partialRectangle;connectable=0;fillColor=none;top=0;left=0;bottom=0;right=0;editable=1;overflow=hidden;whiteSpace=wrap;html=1;labelBackgroundColor=none;" parent="R-MKoHGWoA9p2bsHh0tM-102" vertex="1">
          <mxGeometry width="30" height="30" as="geometry">
            <mxRectangle width="30" height="30" as="alternateBounds" />
          </mxGeometry>
        </mxCell>
        <mxCell id="R-MKoHGWoA9p2bsHh0tM-104" value="deletedAt&amp;nbsp;&lt;span style=&quot;color: rgb(204, 204, 204);&quot;&gt;TIMESTAMPTZ, NULLABLE&lt;/span&gt;" style="shape=partialRectangle;connectable=0;fillColor=none;top=0;left=0;bottom=0;right=0;align=left;spacingLeft=6;overflow=hidden;whiteSpace=wrap;html=1;labelBackgroundColor=none;" parent="R-MKoHGWoA9p2bsHh0tM-102" vertex="1">
          <mxGeometry x="30" width="249.99999999999977" height="30" as="geometry">
            <mxRectangle width="249.99999999999977" height="30" as="alternateBounds" />
          </mxGeometry>
        </mxCell>
        <mxCell id="R-MKoHGWoA9p2bsHh0tM-111" value="" style="shape=tableRow;horizontal=0;startSize=0;swimlaneHead=0;swimlaneBody=0;collapsible=0;dropTarget=0;points=[[0,0.5],[1,0.5]];portConstraint=eastwest;top=0;left=0;right=0;bottom=0;fillColor=none;labelBackgroundColor=none;" parent="R-MKoHGWoA9p2bsHh0tM-56" vertex="1">
          <mxGeometry y="510" width="279.9999999999998" height="30" as="geometry" />
        </mxCell>
        <mxCell id="R-MKoHGWoA9p2bsHh0tM-112" value="FK" style="shape=partialRectangle;connectable=0;fillColor=none;top=0;left=0;bottom=0;right=0;editable=1;overflow=hidden;whiteSpace=wrap;html=1;labelBackgroundColor=none;" parent="R-MKoHGWoA9p2bsHh0tM-111" vertex="1">
          <mxGeometry width="30" height="30" as="geometry">
            <mxRectangle width="30" height="30" as="alternateBounds" />
          </mxGeometry>
        </mxCell>
        <mxCell id="R-MKoHGWoA9p2bsHh0tM-113" value="deletedBy&amp;nbsp;&lt;font style=&quot;color: rgb(204, 204, 204);&quot;&gt;UUID, NULLABLE&lt;/font&gt;" style="shape=partialRectangle;connectable=0;fillColor=none;top=0;left=0;bottom=0;right=0;align=left;spacingLeft=6;overflow=hidden;whiteSpace=wrap;html=1;labelBackgroundColor=none;" parent="R-MKoHGWoA9p2bsHh0tM-111" vertex="1">
          <mxGeometry x="30" width="249.99999999999977" height="30" as="geometry">
            <mxRectangle width="249.99999999999977" height="30" as="alternateBounds" />
          </mxGeometry>
        </mxCell>
        <mxCell id="R-MKoHGWoA9p2bsHh0tM-117" value="" style="shape=tableRow;horizontal=0;startSize=0;swimlaneHead=0;swimlaneBody=0;collapsible=0;dropTarget=0;points=[[0,0.5],[1,0.5]];portConstraint=eastwest;top=0;left=0;right=0;bottom=0;fillColor=none;labelBackgroundColor=none;" parent="R-MKoHGWoA9p2bsHh0tM-56" vertex="1">
          <mxGeometry y="540" width="279.9999999999998" height="30" as="geometry" />
        </mxCell>
        <mxCell id="R-MKoHGWoA9p2bsHh0tM-118" value="" style="shape=partialRectangle;connectable=0;fillColor=none;top=0;left=0;bottom=0;right=0;editable=1;overflow=hidden;whiteSpace=wrap;html=1;labelBackgroundColor=none;" parent="R-MKoHGWoA9p2bsHh0tM-117" vertex="1">
          <mxGeometry width="30" height="30" as="geometry">
            <mxRectangle width="30" height="30" as="alternateBounds" />
          </mxGeometry>
        </mxCell>
        <mxCell id="R-MKoHGWoA9p2bsHh0tM-119" value="archivedAt&amp;nbsp;&lt;font style=&quot;color: rgb(204, 204, 204);&quot;&gt;TIMESTAMPTZ, NULLABLE&lt;/font&gt;" style="shape=partialRectangle;connectable=0;fillColor=none;top=0;left=0;bottom=0;right=0;align=left;spacingLeft=6;overflow=hidden;whiteSpace=wrap;html=1;labelBackgroundColor=none;" parent="R-MKoHGWoA9p2bsHh0tM-117" vertex="1">
          <mxGeometry x="30" width="249.99999999999977" height="30" as="geometry">
            <mxRectangle width="249.99999999999977" height="30" as="alternateBounds" />
          </mxGeometry>
        </mxCell>
        <mxCell id="R-MKoHGWoA9p2bsHh0tM-120" value="" style="shape=tableRow;horizontal=0;startSize=0;swimlaneHead=0;swimlaneBody=0;collapsible=0;dropTarget=0;points=[[0,0.5],[1,0.5]];portConstraint=eastwest;top=0;left=0;right=0;bottom=0;fillColor=none;labelBackgroundColor=none;" parent="R-MKoHGWoA9p2bsHh0tM-56" vertex="1">
          <mxGeometry y="570" width="279.9999999999998" height="30" as="geometry" />
        </mxCell>
        <mxCell id="R-MKoHGWoA9p2bsHh0tM-121" value="FK" style="shape=partialRectangle;connectable=0;fillColor=none;top=0;left=0;bottom=0;right=0;editable=1;overflow=hidden;whiteSpace=wrap;html=1;labelBackgroundColor=none;" parent="R-MKoHGWoA9p2bsHh0tM-120" vertex="1">
          <mxGeometry width="30" height="30" as="geometry">
            <mxRectangle width="30" height="30" as="alternateBounds" />
          </mxGeometry>
        </mxCell>
        <mxCell id="R-MKoHGWoA9p2bsHh0tM-122" value="archivedBy&amp;nbsp;&lt;font style=&quot;color: rgb(204, 204, 204);&quot;&gt;UUID, NULLABLE&lt;/font&gt;" style="shape=partialRectangle;connectable=0;fillColor=none;top=0;left=0;bottom=0;right=0;align=left;spacingLeft=6;overflow=hidden;whiteSpace=wrap;html=1;labelBackgroundColor=none;" parent="R-MKoHGWoA9p2bsHh0tM-120" vertex="1">
          <mxGeometry x="30" width="249.99999999999977" height="30" as="geometry">
            <mxRectangle width="249.99999999999977" height="30" as="alternateBounds" />
          </mxGeometry>
        </mxCell>
        <mxCell id="R-MKoHGWoA9p2bsHh0tM-123" value="pdf" style="shape=table;startSize=30;container=1;collapsible=1;childLayout=tableLayout;fixedRows=1;rowLines=0;fontStyle=1;align=center;resizeLast=1;html=1;rounded=1;top=1;bottom=1;labelBackgroundColor=none;swimlaneFillColor=default;" parent="1" vertex="1">
          <mxGeometry x="400" width="120" height="90" as="geometry">
            <mxRectangle x="50" y="510" width="70" height="30" as="alternateBounds" />
          </mxGeometry>
        </mxCell>
        <mxCell id="R-MKoHGWoA9p2bsHh0tM-124" value="" style="shape=tableRow;horizontal=0;startSize=0;swimlaneHead=0;swimlaneBody=0;fillColor=none;collapsible=0;dropTarget=0;points=[[0,0.5],[1,0.5]];portConstraint=eastwest;top=0;left=0;right=0;bottom=1;fontStyle=0;labelBackgroundColor=none;" parent="R-MKoHGWoA9p2bsHh0tM-123" vertex="1">
          <mxGeometry y="30" width="120" height="30" as="geometry" />
        </mxCell>
        <mxCell id="R-MKoHGWoA9p2bsHh0tM-125" value="PK" style="shape=partialRectangle;connectable=0;fillColor=none;top=0;left=0;bottom=0;right=0;fontStyle=1;overflow=hidden;whiteSpace=wrap;html=1;labelBackgroundColor=none;" parent="R-MKoHGWoA9p2bsHh0tM-124" vertex="1">
          <mxGeometry width="30" height="30" as="geometry">
            <mxRectangle width="30" height="30" as="alternateBounds" />
          </mxGeometry>
        </mxCell>
        <mxCell id="R-MKoHGWoA9p2bsHh0tM-126" value="id&lt;font style=&quot;font-weight: normal; color: rgb(204, 204, 204);&quot;&gt; UUID&lt;/font&gt;" style="shape=partialRectangle;connectable=0;fillColor=none;top=0;left=0;bottom=0;right=0;align=left;spacingLeft=6;fontStyle=1;overflow=hidden;whiteSpace=wrap;html=1;labelBackgroundColor=none;" parent="R-MKoHGWoA9p2bsHh0tM-124" vertex="1">
          <mxGeometry x="30" width="90" height="30" as="geometry">
            <mxRectangle width="90" height="30" as="alternateBounds" />
          </mxGeometry>
        </mxCell>
        <mxCell id="R-MKoHGWoA9p2bsHh0tM-127" value="" style="shape=tableRow;horizontal=0;startSize=0;swimlaneHead=0;swimlaneBody=0;collapsible=0;dropTarget=0;points=[[0,0.5],[1,0.5]];portConstraint=eastwest;top=0;left=0;right=0;bottom=0;fillColor=none;labelBackgroundColor=none;" parent="R-MKoHGWoA9p2bsHh0tM-123" vertex="1">
          <mxGeometry y="60" width="120" height="30" as="geometry" />
        </mxCell>
        <mxCell id="R-MKoHGWoA9p2bsHh0tM-128" value="" style="shape=partialRectangle;connectable=0;fillColor=none;top=0;left=0;bottom=0;right=0;editable=1;overflow=hidden;whiteSpace=wrap;html=1;labelBackgroundColor=none;" parent="R-MKoHGWoA9p2bsHh0tM-127" vertex="1">
          <mxGeometry width="30" height="30" as="geometry">
            <mxRectangle width="30" height="30" as="alternateBounds" />
          </mxGeometry>
        </mxCell>
        <mxCell id="R-MKoHGWoA9p2bsHh0tM-129" value="data &lt;font color=&quot;#cccccc&quot;&gt;BLOB&lt;/font&gt;" style="shape=partialRectangle;connectable=0;fillColor=none;top=0;left=0;bottom=0;right=0;align=left;spacingLeft=6;overflow=hidden;whiteSpace=wrap;html=1;labelBackgroundColor=none;" parent="R-MKoHGWoA9p2bsHh0tM-127" vertex="1">
          <mxGeometry x="30" width="90" height="30" as="geometry">
            <mxRectangle width="90" height="30" as="alternateBounds" />
          </mxGeometry>
        </mxCell>
        <mxCell id="R-MKoHGWoA9p2bsHh0tM-143" value="paper" style="shape=table;startSize=30;container=1;collapsible=1;childLayout=tableLayout;fixedRows=1;rowLines=0;fontStyle=1;align=center;resizeLast=1;html=1;rounded=1;top=1;labelBackgroundColor=none;swimlaneFillColor=default;" parent="1" vertex="1">
          <mxGeometry x="400" y="-440" width="280" height="420" as="geometry">
            <mxRectangle x="50" y="510" width="70" height="30" as="alternateBounds" />
          </mxGeometry>
        </mxCell>
        <mxCell id="R-MKoHGWoA9p2bsHh0tM-144" value="" style="shape=tableRow;horizontal=0;startSize=0;swimlaneHead=0;swimlaneBody=0;fillColor=none;collapsible=0;dropTarget=0;points=[[0,0.5],[1,0.5]];portConstraint=eastwest;top=0;left=0;right=0;bottom=1;fontStyle=0;labelBackgroundColor=none;" parent="R-MKoHGWoA9p2bsHh0tM-143" vertex="1">
          <mxGeometry y="30" width="280" height="30" as="geometry" />
        </mxCell>
        <mxCell id="R-MKoHGWoA9p2bsHh0tM-145" value="PK" style="shape=partialRectangle;connectable=0;fillColor=none;top=0;left=0;bottom=0;right=0;fontStyle=1;overflow=hidden;whiteSpace=wrap;html=1;labelBackgroundColor=none;" parent="R-MKoHGWoA9p2bsHh0tM-144" vertex="1">
          <mxGeometry width="30" height="30" as="geometry">
            <mxRectangle width="30" height="30" as="alternateBounds" />
          </mxGeometry>
        </mxCell>
        <mxCell id="R-MKoHGWoA9p2bsHh0tM-146" value="id&lt;font style=&quot;font-weight: normal; color: rgb(204, 204, 204);&quot;&gt; UUID, UNIQUE&lt;/font&gt;" style="shape=partialRectangle;connectable=0;fillColor=none;top=0;left=0;bottom=0;right=0;align=left;spacingLeft=6;fontStyle=1;overflow=hidden;whiteSpace=wrap;html=1;labelBackgroundColor=none;" parent="R-MKoHGWoA9p2bsHh0tM-144" vertex="1">
          <mxGeometry x="30" width="250" height="30" as="geometry">
            <mxRectangle width="250" height="30" as="alternateBounds" />
          </mxGeometry>
        </mxCell>
        <mxCell id="R-MKoHGWoA9p2bsHh0tM-147" value="" style="shape=tableRow;horizontal=0;startSize=0;swimlaneHead=0;swimlaneBody=0;collapsible=0;dropTarget=0;points=[[0,0.5],[1,0.5]];portConstraint=eastwest;top=0;left=0;right=0;bottom=0;fillColor=none;labelBackgroundColor=none;" parent="R-MKoHGWoA9p2bsHh0tM-143" vertex="1">
          <mxGeometry y="60" width="280" height="30" as="geometry" />
        </mxCell>
        <mxCell id="R-MKoHGWoA9p2bsHh0tM-148" value="" style="shape=partialRectangle;connectable=0;fillColor=none;top=0;left=0;bottom=0;right=0;editable=1;overflow=hidden;whiteSpace=wrap;html=1;labelBackgroundColor=none;" parent="R-MKoHGWoA9p2bsHh0tM-147" vertex="1">
          <mxGeometry width="30" height="30" as="geometry">
            <mxRectangle width="30" height="30" as="alternateBounds" />
          </mxGeometry>
        </mxCell>
        <mxCell id="R-MKoHGWoA9p2bsHh0tM-149" value="title&amp;nbsp;&lt;font style=&quot;color: rgb(204, 204, 204);&quot;&gt;TEXT&lt;/font&gt;" style="shape=partialRectangle;connectable=0;fillColor=none;top=0;left=0;bottom=0;right=0;align=left;spacingLeft=6;overflow=hidden;whiteSpace=wrap;html=1;labelBackgroundColor=none;" parent="R-MKoHGWoA9p2bsHh0tM-147" vertex="1">
          <mxGeometry x="30" width="250" height="30" as="geometry">
            <mxRectangle width="250" height="30" as="alternateBounds" />
          </mxGeometry>
        </mxCell>
        <mxCell id="R-MKoHGWoA9p2bsHh0tM-150" value="" style="shape=tableRow;horizontal=0;startSize=0;swimlaneHead=0;swimlaneBody=0;collapsible=0;dropTarget=0;points=[[0,0.5],[1,0.5]];portConstraint=eastwest;top=0;left=0;right=0;bottom=0;fillColor=none;labelBackgroundColor=none;" parent="R-MKoHGWoA9p2bsHh0tM-143" vertex="1">
          <mxGeometry y="90" width="280" height="30" as="geometry" />
        </mxCell>
        <mxCell id="R-MKoHGWoA9p2bsHh0tM-151" value="" style="shape=partialRectangle;connectable=0;fillColor=none;top=0;left=0;bottom=0;right=0;editable=1;overflow=hidden;whiteSpace=wrap;html=1;labelBackgroundColor=none;" parent="R-MKoHGWoA9p2bsHh0tM-150" vertex="1">
          <mxGeometry width="30" height="30" as="geometry">
            <mxRectangle width="30" height="30" as="alternateBounds" />
          </mxGeometry>
        </mxCell>
        <mxCell id="R-MKoHGWoA9p2bsHh0tM-152" value="externalId&amp;nbsp;&lt;font style=&quot;color: rgb(204, 204, 204);&quot;&gt;TEXT, UNIQUE, NULLABLE&lt;/font&gt;" style="shape=partialRectangle;connectable=0;fillColor=none;top=0;left=0;bottom=0;right=0;align=left;spacingLeft=6;overflow=hidden;whiteSpace=wrap;html=1;labelBackgroundColor=none;" parent="R-MKoHGWoA9p2bsHh0tM-150" vertex="1">
          <mxGeometry x="30" width="250" height="30" as="geometry">
            <mxRectangle width="250" height="30" as="alternateBounds" />
          </mxGeometry>
        </mxCell>
        <mxCell id="R-MKoHGWoA9p2bsHh0tM-153" value="" style="shape=tableRow;horizontal=0;startSize=0;swimlaneHead=0;swimlaneBody=0;collapsible=0;dropTarget=0;points=[[0,0.5],[1,0.5]];portConstraint=eastwest;top=0;left=0;right=0;bottom=0;fillColor=none;labelBackgroundColor=none;" parent="R-MKoHGWoA9p2bsHh0tM-143" vertex="1">
          <mxGeometry y="120" width="280" height="30" as="geometry" />
        </mxCell>
        <mxCell id="R-MKoHGWoA9p2bsHh0tM-154" value="" style="shape=partialRectangle;connectable=0;fillColor=none;top=0;left=0;bottom=0;right=0;editable=1;overflow=hidden;whiteSpace=wrap;html=1;labelBackgroundColor=none;" parent="R-MKoHGWoA9p2bsHh0tM-153" vertex="1">
          <mxGeometry width="30" height="30" as="geometry">
            <mxRectangle width="30" height="30" as="alternateBounds" />
          </mxGeometry>
        </mxCell>
        <mxCell id="R-MKoHGWoA9p2bsHh0tM-155" value="abstract&amp;nbsp;&lt;font style=&quot;color: rgb(204, 204, 204);&quot;&gt;TEXT&lt;/font&gt;" style="shape=partialRectangle;connectable=0;fillColor=none;top=0;left=0;bottom=0;right=0;align=left;spacingLeft=6;overflow=hidden;whiteSpace=wrap;html=1;labelBackgroundColor=none;" parent="R-MKoHGWoA9p2bsHh0tM-153" vertex="1">
          <mxGeometry x="30" width="250" height="30" as="geometry">
            <mxRectangle width="250" height="30" as="alternateBounds" />
          </mxGeometry>
        </mxCell>
        <mxCell id="R-MKoHGWoA9p2bsHh0tM-156" value="" style="shape=tableRow;horizontal=0;startSize=0;swimlaneHead=0;swimlaneBody=0;collapsible=0;dropTarget=0;points=[[0,0.5],[1,0.5]];portConstraint=eastwest;top=0;left=0;right=0;bottom=0;fillColor=none;labelBackgroundColor=none;" parent="R-MKoHGWoA9p2bsHh0tM-143" vertex="1">
          <mxGeometry y="150" width="280" height="30" as="geometry" />
        </mxCell>
        <mxCell id="R-MKoHGWoA9p2bsHh0tM-157" value="" style="shape=partialRectangle;connectable=0;fillColor=none;top=0;left=0;bottom=0;right=0;editable=1;overflow=hidden;whiteSpace=wrap;html=1;labelBackgroundColor=none;" parent="R-MKoHGWoA9p2bsHh0tM-156" vertex="1">
          <mxGeometry width="30" height="30" as="geometry">
            <mxRectangle width="30" height="30" as="alternateBounds" />
          </mxGeometry>
        </mxCell>
        <mxCell id="R-MKoHGWoA9p2bsHh0tM-158" value="year&amp;nbsp;&lt;font style=&quot;color: rgb(204, 204, 204);&quot;&gt;INTEGER&lt;/font&gt;" style="shape=partialRectangle;connectable=0;fillColor=none;top=0;left=0;bottom=0;right=0;align=left;spacingLeft=6;overflow=hidden;whiteSpace=wrap;html=1;labelBackgroundColor=none;" parent="R-MKoHGWoA9p2bsHh0tM-156" vertex="1">
          <mxGeometry x="30" width="250" height="30" as="geometry">
            <mxRectangle width="250" height="30" as="alternateBounds" />
          </mxGeometry>
        </mxCell>
        <mxCell id="R-MKoHGWoA9p2bsHh0tM-159" value="" style="shape=tableRow;horizontal=0;startSize=0;swimlaneHead=0;swimlaneBody=0;collapsible=0;dropTarget=0;points=[[0,0.5],[1,0.5]];portConstraint=eastwest;top=0;left=0;right=0;bottom=0;fillColor=none;labelBackgroundColor=none;" parent="R-MKoHGWoA9p2bsHh0tM-143" vertex="1">
          <mxGeometry y="180" width="280" height="30" as="geometry" />
        </mxCell>
        <mxCell id="R-MKoHGWoA9p2bsHh0tM-160" value="" style="shape=partialRectangle;connectable=0;fillColor=none;top=0;left=0;bottom=0;right=0;editable=1;overflow=hidden;whiteSpace=wrap;html=1;labelBackgroundColor=none;" parent="R-MKoHGWoA9p2bsHh0tM-159" vertex="1">
          <mxGeometry width="30" height="30" as="geometry">
            <mxRectangle width="30" height="30" as="alternateBounds" />
          </mxGeometry>
        </mxCell>
        <mxCell id="R-MKoHGWoA9p2bsHh0tM-161" value="publisher&amp;nbsp;&lt;font style=&quot;color: rgb(204, 204, 204);&quot;&gt;TEXT&lt;/font&gt;" style="shape=partialRectangle;connectable=0;fillColor=none;top=0;left=0;bottom=0;right=0;align=left;spacingLeft=6;overflow=hidden;whiteSpace=wrap;html=1;labelBackgroundColor=none;" parent="R-MKoHGWoA9p2bsHh0tM-159" vertex="1">
          <mxGeometry x="30" width="250" height="30" as="geometry">
            <mxRectangle width="250" height="30" as="alternateBounds" />
          </mxGeometry>
        </mxCell>
        <mxCell id="R-MKoHGWoA9p2bsHh0tM-162" value="" style="shape=tableRow;horizontal=0;startSize=0;swimlaneHead=0;swimlaneBody=0;collapsible=0;dropTarget=0;points=[[0,0.5],[1,0.5]];portConstraint=eastwest;top=0;left=0;right=0;bottom=0;fillColor=none;labelBackgroundColor=none;" parent="R-MKoHGWoA9p2bsHh0tM-143" vertex="1">
          <mxGeometry y="210" width="280" height="30" as="geometry" />
        </mxCell>
        <mxCell id="R-MKoHGWoA9p2bsHh0tM-163" value="" style="shape=partialRectangle;connectable=0;fillColor=none;top=0;left=0;bottom=0;right=0;editable=1;overflow=hidden;whiteSpace=wrap;html=1;labelBackgroundColor=none;" parent="R-MKoHGWoA9p2bsHh0tM-162" vertex="1">
          <mxGeometry width="30" height="30" as="geometry">
            <mxRectangle width="30" height="30" as="alternateBounds" />
          </mxGeometry>
        </mxCell>
        <mxCell id="R-MKoHGWoA9p2bsHh0tM-164" value="publicationType&amp;nbsp;&lt;font style=&quot;color: rgb(204, 204, 204);&quot;&gt;TEXT&lt;/font&gt;" style="shape=partialRectangle;connectable=0;fillColor=none;top=0;left=0;bottom=0;right=0;align=left;spacingLeft=6;overflow=hidden;whiteSpace=wrap;html=1;labelBackgroundColor=none;" parent="R-MKoHGWoA9p2bsHh0tM-162" vertex="1">
          <mxGeometry x="30" width="250" height="30" as="geometry">
            <mxRectangle width="250" height="30" as="alternateBounds" />
          </mxGeometry>
        </mxCell>
        <mxCell id="R-MKoHGWoA9p2bsHh0tM-165" value="" style="shape=tableRow;horizontal=0;startSize=0;swimlaneHead=0;swimlaneBody=0;collapsible=0;dropTarget=0;points=[[0,0.5],[1,0.5]];portConstraint=eastwest;top=0;left=0;right=0;bottom=0;fillColor=none;labelBackgroundColor=none;" parent="R-MKoHGWoA9p2bsHh0tM-143" vertex="1">
          <mxGeometry y="240" width="280" height="30" as="geometry" />
        </mxCell>
        <mxCell id="R-MKoHGWoA9p2bsHh0tM-166" value="" style="shape=partialRectangle;connectable=0;fillColor=none;top=0;left=0;bottom=0;right=0;editable=1;overflow=hidden;whiteSpace=wrap;html=1;labelBackgroundColor=none;" parent="R-MKoHGWoA9p2bsHh0tM-165" vertex="1">
          <mxGeometry width="30" height="30" as="geometry">
            <mxRectangle width="30" height="30" as="alternateBounds" />
          </mxGeometry>
        </mxCell>
        <mxCell id="R-MKoHGWoA9p2bsHh0tM-167" value="publicationName&amp;nbsp;&lt;font style=&quot;color: rgb(204, 204, 204);&quot;&gt;TEXT&lt;/font&gt;" style="shape=partialRectangle;connectable=0;fillColor=none;top=0;left=0;bottom=0;right=0;align=left;spacingLeft=6;overflow=hidden;whiteSpace=wrap;html=1;labelBackgroundColor=none;" parent="R-MKoHGWoA9p2bsHh0tM-165" vertex="1">
          <mxGeometry x="30" width="250" height="30" as="geometry">
            <mxRectangle width="250" height="30" as="alternateBounds" />
          </mxGeometry>
        </mxCell>
        <mxCell id="R-MKoHGWoA9p2bsHh0tM-174" value="" style="shape=tableRow;horizontal=0;startSize=0;swimlaneHead=0;swimlaneBody=0;collapsible=0;dropTarget=0;points=[[0,0.5],[1,0.5]];portConstraint=eastwest;top=0;left=0;right=0;bottom=1;fillColor=none;labelBackgroundColor=none;" parent="R-MKoHGWoA9p2bsHh0tM-143" vertex="1">
          <mxGeometry y="270" width="280" height="30" as="geometry" />
        </mxCell>
        <mxCell id="R-MKoHGWoA9p2bsHh0tM-175" value="FK" style="shape=partialRectangle;connectable=0;fillColor=none;top=0;left=0;bottom=0;right=0;editable=1;overflow=hidden;whiteSpace=wrap;html=1;labelBackgroundColor=none;" parent="R-MKoHGWoA9p2bsHh0tM-174" vertex="1">
          <mxGeometry width="30" height="30" as="geometry">
            <mxRectangle width="30" height="30" as="alternateBounds" />
          </mxGeometry>
        </mxCell>
        <mxCell id="R-MKoHGWoA9p2bsHh0tM-176" value="pdfId&amp;nbsp;&lt;font style=&quot;color: rgb(204, 204, 204);&quot;&gt;UUID, NULLABLE&lt;/font&gt;" style="shape=partialRectangle;connectable=0;fillColor=none;top=0;left=0;bottom=0;right=0;align=left;spacingLeft=6;overflow=hidden;whiteSpace=wrap;html=1;labelBackgroundColor=none;" parent="R-MKoHGWoA9p2bsHh0tM-174" vertex="1">
          <mxGeometry x="30" width="250" height="30" as="geometry">
            <mxRectangle width="250" height="30" as="alternateBounds" />
          </mxGeometry>
        </mxCell>
        <mxCell id="R-MKoHGWoA9p2bsHh0tM-177" value="" style="shape=tableRow;horizontal=0;startSize=0;swimlaneHead=0;swimlaneBody=0;collapsible=0;dropTarget=0;points=[[0,0.5],[1,0.5]];portConstraint=eastwest;top=0;left=0;right=0;bottom=0;fillColor=none;labelBackgroundColor=none;" parent="R-MKoHGWoA9p2bsHh0tM-143" vertex="1">
          <mxGeometry y="300" width="280" height="30" as="geometry" />
        </mxCell>
        <mxCell id="R-MKoHGWoA9p2bsHh0tM-178" value="" style="shape=partialRectangle;connectable=0;fillColor=none;top=0;left=0;bottom=0;right=0;editable=1;overflow=hidden;whiteSpace=wrap;html=1;labelBackgroundColor=none;" parent="R-MKoHGWoA9p2bsHh0tM-177" vertex="1">
          <mxGeometry width="30" height="30" as="geometry">
            <mxRectangle width="30" height="30" as="alternateBounds" />
          </mxGeometry>
        </mxCell>
        <mxCell id="R-MKoHGWoA9p2bsHh0tM-179" value="fetcherMetadata&amp;nbsp;&lt;span style=&quot;color: rgb(204, 204, 204);&quot;&gt;STRINGMAP&lt;/span&gt;" style="shape=partialRectangle;connectable=0;fillColor=none;top=0;left=0;bottom=0;right=0;align=left;spacingLeft=6;overflow=hidden;whiteSpace=wrap;html=1;labelBackgroundColor=none;" parent="R-MKoHGWoA9p2bsHh0tM-177" vertex="1">
          <mxGeometry x="30" width="250" height="30" as="geometry">
            <mxRectangle width="250" height="30" as="alternateBounds" />
          </mxGeometry>
        </mxCell>
        <mxCell id="R-MKoHGWoA9p2bsHh0tM-180" value="" style="shape=tableRow;horizontal=0;startSize=0;swimlaneHead=0;swimlaneBody=0;collapsible=0;dropTarget=0;points=[[0,0.5],[1,0.5]];portConstraint=eastwest;top=0;left=0;right=0;bottom=0;fillColor=none;labelBackgroundColor=none;" parent="R-MKoHGWoA9p2bsHh0tM-143" vertex="1">
          <mxGeometry y="330" width="280" height="30" as="geometry" />
        </mxCell>
        <mxCell id="R-MKoHGWoA9p2bsHh0tM-181" value="" style="shape=partialRectangle;connectable=0;fillColor=none;top=0;left=0;bottom=0;right=0;editable=1;overflow=hidden;whiteSpace=wrap;html=1;labelBackgroundColor=none;" parent="R-MKoHGWoA9p2bsHh0tM-180" vertex="1">
          <mxGeometry width="30" height="30" as="geometry">
            <mxRectangle width="30" height="30" as="alternateBounds" />
          </mxGeometry>
        </mxCell>
        <mxCell id="R-MKoHGWoA9p2bsHh0tM-182" value="createdAt&amp;nbsp;&lt;span style=&quot;color: rgb(204, 204, 204);&quot;&gt;TIMESTAMPTZ&lt;/span&gt;" style="shape=partialRectangle;connectable=0;fillColor=none;top=0;left=0;bottom=0;right=0;align=left;spacingLeft=6;overflow=hidden;whiteSpace=wrap;html=1;labelBackgroundColor=none;" parent="R-MKoHGWoA9p2bsHh0tM-180" vertex="1">
          <mxGeometry x="30" width="250" height="30" as="geometry">
            <mxRectangle width="250" height="30" as="alternateBounds" />
          </mxGeometry>
        </mxCell>
        <mxCell id="R-MKoHGWoA9p2bsHh0tM-183" value="" style="shape=tableRow;horizontal=0;startSize=0;swimlaneHead=0;swimlaneBody=0;collapsible=0;dropTarget=0;points=[[0,0.5],[1,0.5]];portConstraint=eastwest;top=0;left=0;right=0;bottom=0;fillColor=none;labelBackgroundColor=none;" parent="R-MKoHGWoA9p2bsHh0tM-143" vertex="1">
          <mxGeometry y="360" width="280" height="30" as="geometry" />
        </mxCell>
        <mxCell id="R-MKoHGWoA9p2bsHh0tM-184" value="" style="shape=partialRectangle;connectable=0;fillColor=none;top=0;left=0;bottom=0;right=0;editable=1;overflow=hidden;whiteSpace=wrap;html=1;labelBackgroundColor=none;" parent="R-MKoHGWoA9p2bsHh0tM-183" vertex="1">
          <mxGeometry width="30" height="30" as="geometry">
            <mxRectangle width="30" height="30" as="alternateBounds" />
          </mxGeometry>
        </mxCell>
        <mxCell id="R-MKoHGWoA9p2bsHh0tM-185" value="modifiedAt&amp;nbsp;&lt;span style=&quot;color: rgb(204, 204, 204);&quot;&gt;TIMESTAMPTZ, NULLABLE&lt;/span&gt;" style="shape=partialRectangle;connectable=0;fillColor=none;top=0;left=0;bottom=0;right=0;align=left;spacingLeft=6;overflow=hidden;whiteSpace=wrap;html=1;labelBackgroundColor=none;" parent="R-MKoHGWoA9p2bsHh0tM-183" vertex="1">
          <mxGeometry x="30" width="250" height="30" as="geometry">
            <mxRectangle width="250" height="30" as="alternateBounds" />
          </mxGeometry>
        </mxCell>
        <mxCell id="R-MKoHGWoA9p2bsHh0tM-186" value="" style="shape=tableRow;horizontal=0;startSize=0;swimlaneHead=0;swimlaneBody=0;collapsible=0;dropTarget=0;points=[[0,0.5],[1,0.5]];portConstraint=eastwest;top=0;left=0;right=0;bottom=0;fillColor=none;labelBackgroundColor=none;" parent="R-MKoHGWoA9p2bsHh0tM-143" vertex="1">
          <mxGeometry y="390" width="280" height="30" as="geometry" />
        </mxCell>
        <mxCell id="R-MKoHGWoA9p2bsHh0tM-187" value="FK" style="shape=partialRectangle;connectable=0;fillColor=none;top=0;left=0;bottom=0;right=0;editable=1;overflow=hidden;whiteSpace=wrap;html=1;labelBackgroundColor=none;" parent="R-MKoHGWoA9p2bsHh0tM-186" vertex="1">
          <mxGeometry width="30" height="30" as="geometry">
            <mxRectangle width="30" height="30" as="alternateBounds" />
          </mxGeometry>
        </mxCell>
        <mxCell id="R-MKoHGWoA9p2bsHh0tM-188" value="modifiedBy&amp;nbsp;&lt;font style=&quot;color: rgb(204, 204, 204);&quot;&gt;UUID, NULLABLE&lt;/font&gt;" style="shape=partialRectangle;connectable=0;fillColor=none;top=0;left=0;bottom=0;right=0;align=left;spacingLeft=6;overflow=hidden;whiteSpace=wrap;html=1;labelBackgroundColor=none;" parent="R-MKoHGWoA9p2bsHh0tM-186" vertex="1">
          <mxGeometry x="30" width="250" height="30" as="geometry">
            <mxRectangle width="250" height="30" as="alternateBounds" />
          </mxGeometry>
        </mxCell>
        <mxCell id="R-MKoHGWoA9p2bsHh0tM-201" value="criterion" style="shape=table;startSize=30;container=1;collapsible=1;childLayout=tableLayout;fixedRows=1;rowLines=0;fontStyle=1;align=center;resizeLast=1;html=1;rounded=1;top=1;bottom=1;labelBackgroundColor=none;swimlaneFillColor=default;" parent="1" vertex="1">
          <mxGeometry x="1480" y="130" width="250" height="270" as="geometry">
            <mxRectangle x="50" y="510" width="70" height="30" as="alternateBounds" />
          </mxGeometry>
        </mxCell>
        <mxCell id="R-MKoHGWoA9p2bsHh0tM-202" value="" style="shape=tableRow;horizontal=0;startSize=0;swimlaneHead=0;swimlaneBody=0;fillColor=none;collapsible=0;dropTarget=0;points=[[0,0.5],[1,0.5]];portConstraint=eastwest;top=0;left=0;right=0;bottom=1;fontStyle=0;labelBackgroundColor=none;" parent="R-MKoHGWoA9p2bsHh0tM-201" vertex="1">
          <mxGeometry y="30" width="250" height="30" as="geometry" />
        </mxCell>
        <mxCell id="R-MKoHGWoA9p2bsHh0tM-203" value="PK" style="shape=partialRectangle;connectable=0;fillColor=none;top=0;left=0;bottom=0;right=0;fontStyle=1;overflow=hidden;whiteSpace=wrap;html=1;labelBackgroundColor=none;" parent="R-MKoHGWoA9p2bsHh0tM-202" vertex="1">
          <mxGeometry width="30" height="30" as="geometry">
            <mxRectangle width="30" height="30" as="alternateBounds" />
          </mxGeometry>
        </mxCell>
        <mxCell id="R-MKoHGWoA9p2bsHh0tM-204" value="id&lt;font style=&quot;font-weight: normal; color: rgb(204, 204, 204);&quot;&gt; UUID&lt;/font&gt;" style="shape=partialRectangle;connectable=0;fillColor=none;top=0;left=0;bottom=0;right=0;align=left;spacingLeft=6;fontStyle=1;overflow=hidden;whiteSpace=wrap;html=1;labelBackgroundColor=none;" parent="R-MKoHGWoA9p2bsHh0tM-202" vertex="1">
          <mxGeometry x="30" width="220" height="30" as="geometry">
            <mxRectangle width="220" height="30" as="alternateBounds" />
          </mxGeometry>
        </mxCell>
        <mxCell id="R-MKoHGWoA9p2bsHh0tM-205" value="" style="shape=tableRow;horizontal=0;startSize=0;swimlaneHead=0;swimlaneBody=0;collapsible=0;dropTarget=0;points=[[0,0.5],[1,0.5]];portConstraint=eastwest;top=0;left=0;right=0;bottom=0;fillColor=none;labelBackgroundColor=none;" parent="R-MKoHGWoA9p2bsHh0tM-201" vertex="1">
          <mxGeometry y="60" width="250" height="30" as="geometry" />
        </mxCell>
        <mxCell id="R-MKoHGWoA9p2bsHh0tM-206" value="" style="shape=partialRectangle;connectable=0;fillColor=none;top=0;left=0;bottom=0;right=0;editable=1;overflow=hidden;whiteSpace=wrap;html=1;labelBackgroundColor=none;" parent="R-MKoHGWoA9p2bsHh0tM-205" vertex="1">
          <mxGeometry width="30" height="30" as="geometry">
            <mxRectangle width="30" height="30" as="alternateBounds" />
          </mxGeometry>
        </mxCell>
        <mxCell id="R-MKoHGWoA9p2bsHh0tM-207" value="tag &lt;font color=&quot;#cccccc&quot;&gt;TEXT&lt;/font&gt;" style="shape=partialRectangle;connectable=0;fillColor=none;top=0;left=0;bottom=0;right=0;align=left;spacingLeft=6;overflow=hidden;whiteSpace=wrap;html=1;labelBackgroundColor=none;" parent="R-MKoHGWoA9p2bsHh0tM-205" vertex="1">
          <mxGeometry x="30" width="220" height="30" as="geometry">
            <mxRectangle width="220" height="30" as="alternateBounds" />
          </mxGeometry>
        </mxCell>
        <mxCell id="R-MKoHGWoA9p2bsHh0tM-208" value="" style="shape=tableRow;horizontal=0;startSize=0;swimlaneHead=0;swimlaneBody=0;collapsible=0;dropTarget=0;points=[[0,0.5],[1,0.5]];portConstraint=eastwest;top=0;left=0;right=0;bottom=0;fillColor=none;labelBackgroundColor=none;" parent="R-MKoHGWoA9p2bsHh0tM-201" vertex="1">
          <mxGeometry y="90" width="250" height="30" as="geometry" />
        </mxCell>
        <mxCell id="R-MKoHGWoA9p2bsHh0tM-209" value="" style="shape=partialRectangle;connectable=0;fillColor=none;top=0;left=0;bottom=0;right=0;editable=1;overflow=hidden;whiteSpace=wrap;html=1;labelBackgroundColor=none;" parent="R-MKoHGWoA9p2bsHh0tM-208" vertex="1">
          <mxGeometry width="30" height="30" as="geometry">
            <mxRectangle width="30" height="30" as="alternateBounds" />
          </mxGeometry>
        </mxCell>
        <mxCell id="R-MKoHGWoA9p2bsHh0tM-210" value="name&amp;nbsp;&lt;span style=&quot;color: rgb(204, 204, 204);&quot;&gt;TEXT&lt;/span&gt;" style="shape=partialRectangle;connectable=0;fillColor=none;top=0;left=0;bottom=0;right=0;align=left;spacingLeft=6;overflow=hidden;whiteSpace=wrap;html=1;labelBackgroundColor=none;" parent="R-MKoHGWoA9p2bsHh0tM-208" vertex="1">
          <mxGeometry x="30" width="220" height="30" as="geometry">
            <mxRectangle width="220" height="30" as="alternateBounds" />
          </mxGeometry>
        </mxCell>
        <mxCell id="R-MKoHGWoA9p2bsHh0tM-211" value="" style="shape=tableRow;horizontal=0;startSize=0;swimlaneHead=0;swimlaneBody=0;collapsible=0;dropTarget=0;points=[[0,0.5],[1,0.5]];portConstraint=eastwest;top=0;left=0;right=0;bottom=0;fillColor=none;labelBackgroundColor=none;" parent="R-MKoHGWoA9p2bsHh0tM-201" vertex="1">
          <mxGeometry y="120" width="250" height="30" as="geometry" />
        </mxCell>
        <mxCell id="R-MKoHGWoA9p2bsHh0tM-212" value="" style="shape=partialRectangle;connectable=0;fillColor=none;top=0;left=0;bottom=0;right=0;editable=1;overflow=hidden;whiteSpace=wrap;html=1;labelBackgroundColor=none;" parent="R-MKoHGWoA9p2bsHh0tM-211" vertex="1">
          <mxGeometry width="30" height="30" as="geometry">
            <mxRectangle width="30" height="30" as="alternateBounds" />
          </mxGeometry>
        </mxCell>
        <mxCell id="R-MKoHGWoA9p2bsHh0tM-213" value="description&amp;nbsp;&lt;font style=&quot;color: rgb(204, 204, 204);&quot;&gt;TEXT&lt;/font&gt;" style="shape=partialRectangle;connectable=0;fillColor=none;top=0;left=0;bottom=0;right=0;align=left;spacingLeft=6;overflow=hidden;whiteSpace=wrap;html=1;labelBackgroundColor=none;" parent="R-MKoHGWoA9p2bsHh0tM-211" vertex="1">
          <mxGeometry x="30" width="220" height="30" as="geometry">
            <mxRectangle width="220" height="30" as="alternateBounds" />
          </mxGeometry>
        </mxCell>
        <mxCell id="R-MKoHGWoA9p2bsHh0tM-214" value="" style="shape=tableRow;horizontal=0;startSize=0;swimlaneHead=0;swimlaneBody=0;collapsible=0;dropTarget=0;points=[[0,0.5],[1,0.5]];portConstraint=eastwest;top=0;left=0;right=0;bottom=0;fillColor=none;labelBackgroundColor=none;" parent="R-MKoHGWoA9p2bsHh0tM-201" vertex="1">
          <mxGeometry y="150" width="250" height="30" as="geometry" />
        </mxCell>
        <mxCell id="R-MKoHGWoA9p2bsHh0tM-215" value="" style="shape=partialRectangle;connectable=0;fillColor=none;top=0;left=0;bottom=0;right=0;editable=1;overflow=hidden;whiteSpace=wrap;html=1;labelBackgroundColor=none;" parent="R-MKoHGWoA9p2bsHh0tM-214" vertex="1">
          <mxGeometry width="30" height="30" as="geometry">
            <mxRectangle width="30" height="30" as="alternateBounds" />
          </mxGeometry>
        </mxCell>
        <mxCell id="R-MKoHGWoA9p2bsHh0tM-216" value="category&amp;nbsp;&lt;font style=&quot;color: rgb(204, 204, 204);&quot;&gt;ENUM&lt;/font&gt;" style="shape=partialRectangle;connectable=0;fillColor=none;top=0;left=0;bottom=0;right=0;align=left;spacingLeft=6;overflow=hidden;whiteSpace=wrap;html=1;labelBackgroundColor=none;" parent="R-MKoHGWoA9p2bsHh0tM-214" vertex="1">
          <mxGeometry x="30" width="220" height="30" as="geometry">
            <mxRectangle width="220" height="30" as="alternateBounds" />
          </mxGeometry>
        </mxCell>
        <mxCell id="R-MKoHGWoA9p2bsHh0tM-217" value="" style="shape=tableRow;horizontal=0;startSize=0;swimlaneHead=0;swimlaneBody=0;collapsible=0;dropTarget=0;points=[[0,0.5],[1,0.5]];portConstraint=eastwest;top=0;left=0;right=0;bottom=1;fillColor=none;labelBackgroundColor=none;" parent="R-MKoHGWoA9p2bsHh0tM-201" vertex="1">
          <mxGeometry y="180" width="250" height="30" as="geometry" />
        </mxCell>
        <mxCell id="R-MKoHGWoA9p2bsHh0tM-218" value="FK" style="shape=partialRectangle;connectable=0;fillColor=none;top=0;left=0;bottom=0;right=0;editable=1;overflow=hidden;whiteSpace=wrap;html=1;labelBackgroundColor=none;" parent="R-MKoHGWoA9p2bsHh0tM-217" vertex="1">
          <mxGeometry width="30" height="30" as="geometry">
            <mxRectangle width="30" height="30" as="alternateBounds" />
          </mxGeometry>
        </mxCell>
        <mxCell id="R-MKoHGWoA9p2bsHh0tM-219" value="projectId&amp;nbsp;&lt;font style=&quot;color: rgb(204, 204, 204);&quot;&gt;UUID, NULLABLE&lt;/font&gt;" style="shape=partialRectangle;connectable=0;fillColor=none;top=0;left=0;bottom=0;right=0;align=left;spacingLeft=6;overflow=hidden;whiteSpace=wrap;html=1;labelBackgroundColor=none;" parent="R-MKoHGWoA9p2bsHh0tM-217" vertex="1">
          <mxGeometry x="30" width="220" height="30" as="geometry">
            <mxRectangle width="220" height="30" as="alternateBounds" />
          </mxGeometry>
        </mxCell>
        <mxCell id="R-MKoHGWoA9p2bsHh0tM-220" value="" style="shape=tableRow;horizontal=0;startSize=0;swimlaneHead=0;swimlaneBody=0;collapsible=0;dropTarget=0;points=[[0,0.5],[1,0.5]];portConstraint=eastwest;top=0;left=0;right=0;bottom=0;fillColor=none;labelBackgroundColor=none;" parent="R-MKoHGWoA9p2bsHh0tM-201" vertex="1">
          <mxGeometry y="210" width="250" height="30" as="geometry" />
        </mxCell>
        <mxCell id="R-MKoHGWoA9p2bsHh0tM-221" value="" style="shape=partialRectangle;connectable=0;fillColor=none;top=0;left=0;bottom=0;right=0;editable=1;overflow=hidden;whiteSpace=wrap;html=1;labelBackgroundColor=none;" parent="R-MKoHGWoA9p2bsHh0tM-220" vertex="1">
          <mxGeometry width="30" height="30" as="geometry">
            <mxRectangle width="30" height="30" as="alternateBounds" />
          </mxGeometry>
        </mxCell>
        <mxCell id="R-MKoHGWoA9p2bsHh0tM-222" value="createdAt&amp;nbsp;&lt;font style=&quot;color: rgb(204, 204, 204);&quot;&gt;TIMESTAMPTZ&lt;/font&gt;" style="shape=partialRectangle;connectable=0;fillColor=none;top=0;left=0;bottom=0;right=0;align=left;spacingLeft=6;overflow=hidden;whiteSpace=wrap;html=1;labelBackgroundColor=none;" parent="R-MKoHGWoA9p2bsHh0tM-220" vertex="1">
          <mxGeometry x="30" width="220" height="30" as="geometry">
            <mxRectangle width="220" height="30" as="alternateBounds" />
          </mxGeometry>
        </mxCell>
        <mxCell id="R-MKoHGWoA9p2bsHh0tM-223" value="" style="shape=tableRow;horizontal=0;startSize=0;swimlaneHead=0;swimlaneBody=0;collapsible=0;dropTarget=0;points=[[0,0.5],[1,0.5]];portConstraint=eastwest;top=0;left=0;right=0;bottom=0;fillColor=none;labelBackgroundColor=none;" parent="R-MKoHGWoA9p2bsHh0tM-201" vertex="1">
          <mxGeometry y="240" width="250" height="30" as="geometry" />
        </mxCell>
        <mxCell id="R-MKoHGWoA9p2bsHh0tM-224" value="FK" style="shape=partialRectangle;connectable=0;fillColor=none;top=0;left=0;bottom=0;right=0;editable=1;overflow=hidden;whiteSpace=wrap;html=1;labelBackgroundColor=none;" parent="R-MKoHGWoA9p2bsHh0tM-223" vertex="1">
          <mxGeometry width="30" height="30" as="geometry">
            <mxRectangle width="30" height="30" as="alternateBounds" />
          </mxGeometry>
        </mxCell>
        <mxCell id="R-MKoHGWoA9p2bsHh0tM-225" value="createdBy&amp;nbsp;&lt;font style=&quot;color: rgb(204, 204, 204);&quot;&gt;UUID&lt;/font&gt;" style="shape=partialRectangle;connectable=0;fillColor=none;top=0;left=0;bottom=0;right=0;align=left;spacingLeft=6;overflow=hidden;whiteSpace=wrap;html=1;labelBackgroundColor=none;" parent="R-MKoHGWoA9p2bsHh0tM-223" vertex="1">
          <mxGeometry x="30" width="220" height="30" as="geometry">
            <mxRectangle width="220" height="30" as="alternateBounds" />
          </mxGeometry>
        </mxCell>
        <mxCell id="R-MKoHGWoA9p2bsHh0tM-226" value="author" style="shape=table;startSize=30;container=1;collapsible=1;childLayout=tableLayout;fixedRows=1;rowLines=0;fontStyle=1;align=center;resizeLast=1;html=1;rounded=1;top=1;bottom=1;labelBackgroundColor=none;swimlaneFillColor=default;" parent="1" vertex="1">
          <mxGeometry x="40" y="-310" width="280" height="210" as="geometry">
            <mxRectangle x="50" y="510" width="70" height="30" as="alternateBounds" />
          </mxGeometry>
        </mxCell>
        <mxCell id="R-MKoHGWoA9p2bsHh0tM-227" value="" style="shape=tableRow;horizontal=0;startSize=0;swimlaneHead=0;swimlaneBody=0;fillColor=none;collapsible=0;dropTarget=0;points=[[0,0.5],[1,0.5]];portConstraint=eastwest;top=0;left=0;right=0;bottom=1;fontStyle=0;labelBackgroundColor=none;" parent="R-MKoHGWoA9p2bsHh0tM-226" vertex="1">
          <mxGeometry y="30" width="280" height="30" as="geometry" />
        </mxCell>
        <mxCell id="R-MKoHGWoA9p2bsHh0tM-228" value="PK" style="shape=partialRectangle;connectable=0;fillColor=none;top=0;left=0;bottom=0;right=0;fontStyle=1;overflow=hidden;whiteSpace=wrap;html=1;labelBackgroundColor=none;" parent="R-MKoHGWoA9p2bsHh0tM-227" vertex="1">
          <mxGeometry width="30" height="30" as="geometry">
            <mxRectangle width="30" height="30" as="alternateBounds" />
          </mxGeometry>
        </mxCell>
        <mxCell id="R-MKoHGWoA9p2bsHh0tM-229" value="id&lt;font style=&quot;font-weight: normal; color: rgb(204, 204, 204);&quot;&gt; UUID, UNIQUE&lt;/font&gt;" style="shape=partialRectangle;connectable=0;fillColor=none;top=0;left=0;bottom=0;right=0;align=left;spacingLeft=6;fontStyle=1;overflow=hidden;whiteSpace=wrap;html=1;labelBackgroundColor=none;" parent="R-MKoHGWoA9p2bsHh0tM-227" vertex="1">
          <mxGeometry x="30" width="250" height="30" as="geometry">
            <mxRectangle width="250" height="30" as="alternateBounds" />
          </mxGeometry>
        </mxCell>
        <mxCell id="R-MKoHGWoA9p2bsHh0tM-230" value="" style="shape=tableRow;horizontal=0;startSize=0;swimlaneHead=0;swimlaneBody=0;collapsible=0;dropTarget=0;points=[[0,0.5],[1,0.5]];portConstraint=eastwest;top=0;left=0;right=0;bottom=0;fillColor=none;labelBackgroundColor=none;" parent="R-MKoHGWoA9p2bsHh0tM-226" vertex="1">
          <mxGeometry y="60" width="280" height="30" as="geometry" />
        </mxCell>
        <mxCell id="R-MKoHGWoA9p2bsHh0tM-231" value="" style="shape=partialRectangle;connectable=0;fillColor=none;top=0;left=0;bottom=0;right=0;editable=1;overflow=hidden;whiteSpace=wrap;html=1;labelBackgroundColor=none;" parent="R-MKoHGWoA9p2bsHh0tM-230" vertex="1">
          <mxGeometry width="30" height="30" as="geometry">
            <mxRectangle width="30" height="30" as="alternateBounds" />
          </mxGeometry>
        </mxCell>
        <mxCell id="R-MKoHGWoA9p2bsHh0tM-232" value="firstName&amp;nbsp;&lt;font color=&quot;#cccccc&quot;&gt;TEXT&lt;/font&gt;" style="shape=partialRectangle;connectable=0;fillColor=none;top=0;left=0;bottom=0;right=0;align=left;spacingLeft=6;overflow=hidden;whiteSpace=wrap;html=1;labelBackgroundColor=none;" parent="R-MKoHGWoA9p2bsHh0tM-230" vertex="1">
          <mxGeometry x="30" width="250" height="30" as="geometry">
            <mxRectangle width="250" height="30" as="alternateBounds" />
          </mxGeometry>
        </mxCell>
        <mxCell id="R-MKoHGWoA9p2bsHh0tM-233" value="" style="shape=tableRow;horizontal=0;startSize=0;swimlaneHead=0;swimlaneBody=0;collapsible=0;dropTarget=0;points=[[0,0.5],[1,0.5]];portConstraint=eastwest;top=0;left=0;right=0;bottom=0;fillColor=none;labelBackgroundColor=none;" parent="R-MKoHGWoA9p2bsHh0tM-226" vertex="1">
          <mxGeometry y="90" width="280" height="30" as="geometry" />
        </mxCell>
        <mxCell id="R-MKoHGWoA9p2bsHh0tM-234" value="" style="shape=partialRectangle;connectable=0;fillColor=none;top=0;left=0;bottom=0;right=0;editable=1;overflow=hidden;whiteSpace=wrap;html=1;labelBackgroundColor=none;" parent="R-MKoHGWoA9p2bsHh0tM-233" vertex="1">
          <mxGeometry width="30" height="30" as="geometry">
            <mxRectangle width="30" height="30" as="alternateBounds" />
          </mxGeometry>
        </mxCell>
        <mxCell id="R-MKoHGWoA9p2bsHh0tM-235" value="lastName&amp;nbsp;&lt;span style=&quot;color: rgb(204, 204, 204);&quot;&gt;TEXT&lt;/span&gt;" style="shape=partialRectangle;connectable=0;fillColor=none;top=0;left=0;bottom=0;right=0;align=left;spacingLeft=6;overflow=hidden;whiteSpace=wrap;html=1;labelBackgroundColor=none;" parent="R-MKoHGWoA9p2bsHh0tM-233" vertex="1">
          <mxGeometry x="30" width="250" height="30" as="geometry">
            <mxRectangle width="250" height="30" as="alternateBounds" />
          </mxGeometry>
        </mxCell>
        <mxCell id="R-MKoHGWoA9p2bsHh0tM-236" value="" style="shape=tableRow;horizontal=0;startSize=0;swimlaneHead=0;swimlaneBody=0;collapsible=0;dropTarget=0;points=[[0,0.5],[1,0.5]];portConstraint=eastwest;top=0;left=0;right=0;bottom=1;fillColor=none;labelBackgroundColor=none;" parent="R-MKoHGWoA9p2bsHh0tM-226" vertex="1">
          <mxGeometry y="120" width="280" height="30" as="geometry" />
        </mxCell>
        <mxCell id="R-MKoHGWoA9p2bsHh0tM-237" value="" style="shape=partialRectangle;connectable=0;fillColor=none;top=0;left=0;bottom=0;right=0;editable=1;overflow=hidden;whiteSpace=wrap;html=1;labelBackgroundColor=none;" parent="R-MKoHGWoA9p2bsHh0tM-236" vertex="1">
          <mxGeometry width="30" height="30" as="geometry">
            <mxRectangle width="30" height="30" as="alternateBounds" />
          </mxGeometry>
        </mxCell>
        <mxCell id="R-MKoHGWoA9p2bsHh0tM-238" value="orcid&amp;nbsp;&lt;font style=&quot;color: rgb(204, 204, 204);&quot;&gt;TEXT, NULLABLE&lt;/font&gt;" style="shape=partialRectangle;connectable=0;fillColor=none;top=0;left=0;bottom=0;right=0;align=left;spacingLeft=6;overflow=hidden;whiteSpace=wrap;html=1;labelBackgroundColor=none;" parent="R-MKoHGWoA9p2bsHh0tM-236" vertex="1">
          <mxGeometry x="30" width="250" height="30" as="geometry">
            <mxRectangle width="250" height="30" as="alternateBounds" />
          </mxGeometry>
        </mxCell>
        <mxCell id="R-MKoHGWoA9p2bsHh0tM-245" value="" style="shape=tableRow;horizontal=0;startSize=0;swimlaneHead=0;swimlaneBody=0;collapsible=0;dropTarget=0;points=[[0,0.5],[1,0.5]];portConstraint=eastwest;top=0;left=0;right=0;bottom=0;fillColor=none;labelBackgroundColor=none;" parent="R-MKoHGWoA9p2bsHh0tM-226" vertex="1">
          <mxGeometry y="150" width="280" height="30" as="geometry" />
        </mxCell>
        <mxCell id="R-MKoHGWoA9p2bsHh0tM-246" value="" style="shape=partialRectangle;connectable=0;fillColor=none;top=0;left=0;bottom=0;right=0;editable=1;overflow=hidden;whiteSpace=wrap;html=1;labelBackgroundColor=none;" parent="R-MKoHGWoA9p2bsHh0tM-245" vertex="1">
          <mxGeometry width="30" height="30" as="geometry">
            <mxRectangle width="30" height="30" as="alternateBounds" />
          </mxGeometry>
        </mxCell>
        <mxCell id="R-MKoHGWoA9p2bsHh0tM-247" value="createdAt&amp;nbsp;&lt;font style=&quot;color: rgb(204, 204, 204);&quot;&gt;TIMESTAMPTZ&lt;/font&gt;" style="shape=partialRectangle;connectable=0;fillColor=none;top=0;left=0;bottom=0;right=0;align=left;spacingLeft=6;overflow=hidden;whiteSpace=wrap;html=1;labelBackgroundColor=none;" parent="R-MKoHGWoA9p2bsHh0tM-245" vertex="1">
          <mxGeometry x="30" width="250" height="30" as="geometry">
            <mxRectangle width="250" height="30" as="alternateBounds" />
          </mxGeometry>
        </mxCell>
        <mxCell id="R-MKoHGWoA9p2bsHh0tM-248" value="" style="shape=tableRow;horizontal=0;startSize=0;swimlaneHead=0;swimlaneBody=0;collapsible=0;dropTarget=0;points=[[0,0.5],[1,0.5]];portConstraint=eastwest;top=0;left=0;right=0;bottom=0;fillColor=none;labelBackgroundColor=none;" parent="R-MKoHGWoA9p2bsHh0tM-226" vertex="1">
          <mxGeometry y="180" width="280" height="30" as="geometry" />
        </mxCell>
        <mxCell id="R-MKoHGWoA9p2bsHh0tM-249" value="" style="shape=partialRectangle;connectable=0;fillColor=none;top=0;left=0;bottom=0;right=0;editable=1;overflow=hidden;whiteSpace=wrap;html=1;labelBackgroundColor=none;" parent="R-MKoHGWoA9p2bsHh0tM-248" vertex="1">
          <mxGeometry width="30" height="30" as="geometry">
            <mxRectangle width="30" height="30" as="alternateBounds" />
          </mxGeometry>
        </mxCell>
        <mxCell id="R-MKoHGWoA9p2bsHh0tM-250" value="modifiedAt&amp;nbsp;&lt;font style=&quot;color: rgb(204, 204, 204);&quot;&gt;TIMESTAMPTZ, NULLABLE&lt;/font&gt;" style="shape=partialRectangle;connectable=0;fillColor=none;top=0;left=0;bottom=0;right=0;align=left;spacingLeft=6;overflow=hidden;whiteSpace=wrap;html=1;labelBackgroundColor=none;" parent="R-MKoHGWoA9p2bsHh0tM-248" vertex="1">
          <mxGeometry x="30" width="250" height="30" as="geometry">
            <mxRectangle width="250" height="30" as="alternateBounds" />
          </mxGeometry>
        </mxCell>
        <mxCell id="R3BKQV-CwE8eGaamidav-1" style="edgeStyle=orthogonalEdgeStyle;rounded=1;orthogonalLoop=1;jettySize=auto;html=1;endArrow=none;endFill=0;curved=0;exitX=1;exitY=0.5;exitDx=0;exitDy=0;entryX=0;entryY=0.5;entryDx=0;entryDy=0;labelBackgroundColor=none;fontColor=default;" parent="1" source="R-MKoHGWoA9p2bsHh0tM-252" target="R-MKoHGWoA9p2bsHh0tM-144" edge="1">
          <mxGeometry relative="1" as="geometry" />
        </mxCell>
        <mxCell id="R-MKoHGWoA9p2bsHh0tM-251" value="author_of_paper" style="shape=table;startSize=30;container=1;collapsible=1;childLayout=tableLayout;fixedRows=1;rowLines=0;fontStyle=1;align=center;resizeLast=1;html=1;rounded=1;top=1;bottom=1;labelBackgroundColor=none;swimlaneFillColor=default;" parent="1" vertex="1">
          <mxGeometry x="40" y="-440" width="160" height="90" as="geometry">
            <mxRectangle x="60" y="-420" width="70" height="30" as="alternateBounds" />
          </mxGeometry>
        </mxCell>
        <mxCell id="R-MKoHGWoA9p2bsHh0tM-252" value="" style="shape=tableRow;horizontal=0;startSize=0;swimlaneHead=0;swimlaneBody=0;fillColor=none;collapsible=0;dropTarget=0;points=[[0,0.5],[1,0.5]];portConstraint=eastwest;top=0;left=0;right=0;bottom=0;fontStyle=0;labelBackgroundColor=none;" parent="R-MKoHGWoA9p2bsHh0tM-251" vertex="1">
          <mxGeometry y="30" width="160" height="30" as="geometry" />
        </mxCell>
        <mxCell id="R-MKoHGWoA9p2bsHh0tM-253" value="FK" style="shape=partialRectangle;connectable=0;fillColor=none;top=0;left=0;bottom=0;right=0;fontStyle=1;overflow=hidden;whiteSpace=wrap;html=1;labelBackgroundColor=none;" parent="R-MKoHGWoA9p2bsHh0tM-252" vertex="1">
          <mxGeometry width="30" height="30" as="geometry">
            <mxRectangle width="30" height="30" as="alternateBounds" />
          </mxGeometry>
        </mxCell>
        <mxCell id="R-MKoHGWoA9p2bsHh0tM-254" value="paperId&lt;font style=&quot;font-weight: normal; color: rgb(204, 204, 204);&quot;&gt; UUID&lt;/font&gt;" style="shape=partialRectangle;connectable=0;fillColor=none;top=0;left=0;bottom=0;right=0;align=left;spacingLeft=6;fontStyle=1;overflow=hidden;whiteSpace=wrap;html=1;labelBackgroundColor=none;" parent="R-MKoHGWoA9p2bsHh0tM-252" vertex="1">
          <mxGeometry x="30" width="130" height="30" as="geometry">
            <mxRectangle width="130" height="30" as="alternateBounds" />
          </mxGeometry>
        </mxCell>
        <mxCell id="R-MKoHGWoA9p2bsHh0tM-255" value="" style="shape=tableRow;horizontal=0;startSize=0;swimlaneHead=0;swimlaneBody=0;collapsible=0;dropTarget=0;points=[[0,0.5],[1,0.5]];portConstraint=eastwest;top=0;left=0;right=0;bottom=0;fillColor=none;fontStyle=0;labelBackgroundColor=none;" parent="R-MKoHGWoA9p2bsHh0tM-251" vertex="1">
          <mxGeometry y="60" width="160" height="30" as="geometry" />
        </mxCell>
        <mxCell id="R-MKoHGWoA9p2bsHh0tM-256" value="&lt;b&gt;FK&lt;/b&gt;" style="shape=partialRectangle;connectable=0;fillColor=none;top=0;left=0;bottom=0;right=0;editable=1;overflow=hidden;whiteSpace=wrap;html=1;labelBackgroundColor=none;" parent="R-MKoHGWoA9p2bsHh0tM-255" vertex="1">
          <mxGeometry width="30" height="30" as="geometry">
            <mxRectangle width="30" height="30" as="alternateBounds" />
          </mxGeometry>
        </mxCell>
        <mxCell id="R-MKoHGWoA9p2bsHh0tM-257" value="&lt;b&gt;authorId&lt;/b&gt;&amp;nbsp;&lt;font color=&quot;#cccccc&quot;&gt;UUID&lt;/font&gt;" style="shape=partialRectangle;connectable=0;fillColor=none;top=0;left=0;bottom=0;right=0;align=left;spacingLeft=6;overflow=hidden;whiteSpace=wrap;html=1;labelBackgroundColor=none;" parent="R-MKoHGWoA9p2bsHh0tM-255" vertex="1">
          <mxGeometry x="30" width="130" height="30" as="geometry">
            <mxRectangle width="130" height="30" as="alternateBounds" />
          </mxGeometry>
        </mxCell>
        <mxCell id="R-MKoHGWoA9p2bsHh0tM-258" style="edgeStyle=orthogonalEdgeStyle;rounded=1;orthogonalLoop=1;jettySize=auto;html=1;endArrow=none;endFill=0;curved=0;exitX=0;exitY=0.5;exitDx=0;exitDy=0;entryX=0;entryY=0.5;entryDx=0;entryDy=0;labelBackgroundColor=none;fontColor=default;" parent="1" source="R-MKoHGWoA9p2bsHh0tM-227" target="R-MKoHGWoA9p2bsHh0tM-255" edge="1">
          <mxGeometry relative="1" as="geometry">
            <Array as="points">
              <mxPoint x="20" y="-265" />
              <mxPoint x="20" y="-365" />
            </Array>
          </mxGeometry>
        </mxCell>
        <mxCell id="R3BKQV-CwE8eGaamidav-2" value="citation" style="shape=table;startSize=30;container=1;collapsible=1;childLayout=tableLayout;fixedRows=1;rowLines=0;fontStyle=1;align=center;resizeLast=1;html=1;rounded=1;top=1;bottom=1;labelBackgroundColor=none;swimlaneFillColor=default;" parent="1" vertex="1">
          <mxGeometry x="400" y="-570" width="160" height="90" as="geometry">
            <mxRectangle x="60" y="-420" width="70" height="30" as="alternateBounds" />
          </mxGeometry>
        </mxCell>
        <mxCell id="R3BKQV-CwE8eGaamidav-3" value="" style="shape=tableRow;horizontal=0;startSize=0;swimlaneHead=0;swimlaneBody=0;fillColor=none;collapsible=0;dropTarget=0;points=[[0,0.5],[1,0.5]];portConstraint=eastwest;top=0;left=0;right=0;bottom=0;fontStyle=0;labelBackgroundColor=none;" parent="R3BKQV-CwE8eGaamidav-2" vertex="1">
          <mxGeometry y="30" width="160" height="30" as="geometry" />
        </mxCell>
        <mxCell id="R3BKQV-CwE8eGaamidav-4" value="FK" style="shape=partialRectangle;connectable=0;fillColor=none;top=0;left=0;bottom=0;right=0;fontStyle=1;overflow=hidden;whiteSpace=wrap;html=1;labelBackgroundColor=none;" parent="R3BKQV-CwE8eGaamidav-3" vertex="1">
          <mxGeometry width="30" height="30" as="geometry">
            <mxRectangle width="30" height="30" as="alternateBounds" />
          </mxGeometry>
        </mxCell>
        <mxCell id="R3BKQV-CwE8eGaamidav-5" value="paperId&lt;font style=&quot;font-weight: normal; color: rgb(204, 204, 204);&quot;&gt; UUID&lt;/font&gt;" style="shape=partialRectangle;connectable=0;fillColor=none;top=0;left=0;bottom=0;right=0;align=left;spacingLeft=6;fontStyle=1;overflow=hidden;whiteSpace=wrap;html=1;labelBackgroundColor=none;" parent="R3BKQV-CwE8eGaamidav-3" vertex="1">
          <mxGeometry x="30" width="130" height="30" as="geometry">
            <mxRectangle width="130" height="30" as="alternateBounds" />
          </mxGeometry>
        </mxCell>
        <mxCell id="R3BKQV-CwE8eGaamidav-6" value="" style="shape=tableRow;horizontal=0;startSize=0;swimlaneHead=0;swimlaneBody=0;collapsible=0;dropTarget=0;points=[[0,0.5],[1,0.5]];portConstraint=eastwest;top=0;left=0;right=0;bottom=0;fillColor=none;fontStyle=0;labelBackgroundColor=none;" parent="R3BKQV-CwE8eGaamidav-2" vertex="1">
          <mxGeometry y="60" width="160" height="30" as="geometry" />
        </mxCell>
        <mxCell id="R3BKQV-CwE8eGaamidav-7" value="&lt;b&gt;FK&lt;/b&gt;" style="shape=partialRectangle;connectable=0;fillColor=none;top=0;left=0;bottom=0;right=0;editable=1;overflow=hidden;whiteSpace=wrap;html=1;labelBackgroundColor=none;" parent="R3BKQV-CwE8eGaamidav-6" vertex="1">
          <mxGeometry width="30" height="30" as="geometry">
            <mxRectangle width="30" height="30" as="alternateBounds" />
          </mxGeometry>
        </mxCell>
        <mxCell id="R3BKQV-CwE8eGaamidav-8" value="&lt;b&gt;citedPaperId&lt;/b&gt;&amp;nbsp;&lt;font color=&quot;#cccccc&quot;&gt;UUID&lt;/font&gt;" style="shape=partialRectangle;connectable=0;fillColor=none;top=0;left=0;bottom=0;right=0;align=left;spacingLeft=6;overflow=hidden;whiteSpace=wrap;html=1;labelBackgroundColor=none;" parent="R3BKQV-CwE8eGaamidav-6" vertex="1">
          <mxGeometry x="30" width="130" height="30" as="geometry">
            <mxRectangle width="130" height="30" as="alternateBounds" />
          </mxGeometry>
        </mxCell>
        <mxCell id="R3BKQV-CwE8eGaamidav-10" style="edgeStyle=orthogonalEdgeStyle;rounded=1;orthogonalLoop=1;jettySize=auto;html=1;endArrow=none;endFill=0;curved=0;entryX=0;entryY=0.5;entryDx=0;entryDy=0;exitX=0;exitY=0.5;exitDx=0;exitDy=0;labelBackgroundColor=none;fontColor=default;" parent="1" source="R-MKoHGWoA9p2bsHh0tM-144" target="R3BKQV-CwE8eGaamidav-3" edge="1">
          <mxGeometry relative="1" as="geometry">
            <Array as="points">
              <mxPoint x="380" y="-395" />
              <mxPoint x="380" y="-525" />
            </Array>
          </mxGeometry>
        </mxCell>
        <mxCell id="R3BKQV-CwE8eGaamidav-11" style="edgeStyle=orthogonalEdgeStyle;rounded=1;orthogonalLoop=1;jettySize=auto;html=1;endArrow=none;endFill=0;curved=0;entryX=1;entryY=0.5;entryDx=0;entryDy=0;exitX=1;exitY=0.5;exitDx=0;exitDy=0;labelBackgroundColor=none;fontColor=default;" parent="1" source="R3BKQV-CwE8eGaamidav-6" target="R-MKoHGWoA9p2bsHh0tM-144" edge="1">
          <mxGeometry relative="1" as="geometry">
            <Array as="points">
              <mxPoint x="700" y="-495" />
              <mxPoint x="700" y="-395" />
            </Array>
          </mxGeometry>
        </mxCell>
        <mxCell id="R3BKQV-CwE8eGaamidav-12" value="invitation_token" style="shape=table;startSize=30;container=1;collapsible=1;childLayout=tableLayout;fixedRows=1;rowLines=0;fontStyle=1;align=center;resizeLast=1;html=1;rounded=1;top=1;bottom=1;labelBackgroundColor=none;swimlaneFillColor=default;" parent="1" vertex="1">
          <mxGeometry x="400" y="680" width="280" height="180" as="geometry">
            <mxRectangle x="50" y="510" width="70" height="30" as="alternateBounds" />
          </mxGeometry>
        </mxCell>
        <mxCell id="R3BKQV-CwE8eGaamidav-13" value="" style="shape=tableRow;horizontal=0;startSize=0;swimlaneHead=0;swimlaneBody=0;fillColor=none;collapsible=0;dropTarget=0;points=[[0,0.5],[1,0.5]];portConstraint=eastwest;top=0;left=0;right=0;bottom=1;fontStyle=0;labelBackgroundColor=none;" parent="R3BKQV-CwE8eGaamidav-12" vertex="1">
          <mxGeometry y="30" width="280" height="30" as="geometry" />
        </mxCell>
        <mxCell id="R3BKQV-CwE8eGaamidav-14" value="PK" style="shape=partialRectangle;connectable=0;fillColor=none;top=0;left=0;bottom=0;right=0;fontStyle=1;overflow=hidden;whiteSpace=wrap;html=1;labelBackgroundColor=none;" parent="R3BKQV-CwE8eGaamidav-13" vertex="1">
          <mxGeometry width="30" height="30" as="geometry">
            <mxRectangle width="30" height="30" as="alternateBounds" />
          </mxGeometry>
        </mxCell>
        <mxCell id="R3BKQV-CwE8eGaamidav-15" value="id&lt;font style=&quot;font-weight: normal; color: rgb(204, 204, 204);&quot;&gt; UUID&lt;/font&gt;" style="shape=partialRectangle;connectable=0;fillColor=none;top=0;left=0;bottom=0;right=0;align=left;spacingLeft=6;fontStyle=1;overflow=hidden;whiteSpace=wrap;html=1;labelBackgroundColor=none;" parent="R3BKQV-CwE8eGaamidav-13" vertex="1">
          <mxGeometry x="30" width="250" height="30" as="geometry">
            <mxRectangle width="250" height="30" as="alternateBounds" />
          </mxGeometry>
        </mxCell>
        <mxCell id="R3BKQV-CwE8eGaamidav-16" value="" style="shape=tableRow;horizontal=0;startSize=0;swimlaneHead=0;swimlaneBody=0;collapsible=0;dropTarget=0;points=[[0,0.5],[1,0.5]];portConstraint=eastwest;top=0;left=0;right=0;bottom=0;fillColor=none;labelBackgroundColor=none;" parent="R3BKQV-CwE8eGaamidav-12" vertex="1">
          <mxGeometry y="60" width="280" height="30" as="geometry" />
        </mxCell>
        <mxCell id="R3BKQV-CwE8eGaamidav-17" value="" style="shape=partialRectangle;connectable=0;fillColor=none;top=0;left=0;bottom=0;right=0;editable=1;overflow=hidden;whiteSpace=wrap;html=1;labelBackgroundColor=none;" parent="R3BKQV-CwE8eGaamidav-16" vertex="1">
          <mxGeometry width="30" height="30" as="geometry">
            <mxRectangle width="30" height="30" as="alternateBounds" />
          </mxGeometry>
        </mxCell>
        <mxCell id="R3BKQV-CwE8eGaamidav-18" value="email&amp;nbsp;&lt;font style=&quot;color: rgb(204, 204, 204);&quot;&gt;TEXT, UNIQUE w/ projectId&lt;/font&gt;" style="shape=partialRectangle;connectable=0;fillColor=none;top=0;left=0;bottom=0;right=0;align=left;spacingLeft=6;overflow=hidden;whiteSpace=wrap;html=1;labelBackgroundColor=none;" parent="R3BKQV-CwE8eGaamidav-16" vertex="1">
          <mxGeometry x="30" width="250" height="30" as="geometry">
            <mxRectangle width="250" height="30" as="alternateBounds" />
          </mxGeometry>
        </mxCell>
        <mxCell id="R3BKQV-CwE8eGaamidav-25" value="" style="shape=tableRow;horizontal=0;startSize=0;swimlaneHead=0;swimlaneBody=0;collapsible=0;dropTarget=0;points=[[0,0.5],[1,0.5]];portConstraint=eastwest;top=0;left=0;right=0;bottom=0;fillColor=none;labelBackgroundColor=none;" parent="R3BKQV-CwE8eGaamidav-12" vertex="1">
          <mxGeometry y="90" width="280" height="30" as="geometry" />
        </mxCell>
        <mxCell id="R3BKQV-CwE8eGaamidav-26" value="FK" style="shape=partialRectangle;connectable=0;fillColor=none;top=0;left=0;bottom=0;right=0;editable=1;overflow=hidden;whiteSpace=wrap;html=1;labelBackgroundColor=none;" parent="R3BKQV-CwE8eGaamidav-25" vertex="1">
          <mxGeometry width="30" height="30" as="geometry">
            <mxRectangle width="30" height="30" as="alternateBounds" />
          </mxGeometry>
        </mxCell>
        <mxCell id="R3BKQV-CwE8eGaamidav-27" value="projectId&amp;nbsp;&lt;font style=&quot;color: rgb(204, 204, 204);&quot;&gt;UUID, UNIQUE w/ email&lt;/font&gt;" style="shape=partialRectangle;connectable=0;fillColor=none;top=0;left=0;bottom=0;right=0;align=left;spacingLeft=6;overflow=hidden;whiteSpace=wrap;html=1;labelBackgroundColor=none;" parent="R3BKQV-CwE8eGaamidav-25" vertex="1">
          <mxGeometry x="30" width="250" height="30" as="geometry">
            <mxRectangle width="250" height="30" as="alternateBounds" />
          </mxGeometry>
        </mxCell>
        <mxCell id="R3BKQV-CwE8eGaamidav-19" value="" style="shape=tableRow;horizontal=0;startSize=0;swimlaneHead=0;swimlaneBody=0;collapsible=0;dropTarget=0;points=[[0,0.5],[1,0.5]];portConstraint=eastwest;top=0;left=0;right=0;bottom=0;fillColor=none;labelBackgroundColor=none;" parent="R3BKQV-CwE8eGaamidav-12" vertex="1">
          <mxGeometry y="120" width="280" height="30" as="geometry" />
        </mxCell>
        <mxCell id="R3BKQV-CwE8eGaamidav-20" value="" style="shape=partialRectangle;connectable=0;fillColor=none;top=0;left=0;bottom=0;right=0;editable=1;overflow=hidden;whiteSpace=wrap;html=1;labelBackgroundColor=none;" parent="R3BKQV-CwE8eGaamidav-19" vertex="1">
          <mxGeometry width="30" height="30" as="geometry">
            <mxRectangle width="30" height="30" as="alternateBounds" />
          </mxGeometry>
        </mxCell>
        <mxCell id="R3BKQV-CwE8eGaamidav-21" value="token&amp;nbsp;&lt;span style=&quot;color: rgb(204, 204, 204);&quot;&gt;OBFUSCATED_TEXT, UNIQUE&lt;/span&gt;" style="shape=partialRectangle;connectable=0;fillColor=none;top=0;left=0;bottom=0;right=0;align=left;spacingLeft=6;overflow=hidden;whiteSpace=wrap;html=1;labelBackgroundColor=none;" parent="R3BKQV-CwE8eGaamidav-19" vertex="1">
          <mxGeometry x="30" width="250" height="30" as="geometry">
            <mxRectangle width="250" height="30" as="alternateBounds" />
          </mxGeometry>
        </mxCell>
        <mxCell id="R3BKQV-CwE8eGaamidav-22" value="" style="shape=tableRow;horizontal=0;startSize=0;swimlaneHead=0;swimlaneBody=0;collapsible=0;dropTarget=0;points=[[0,0.5],[1,0.5]];portConstraint=eastwest;top=0;left=0;right=0;bottom=0;fillColor=none;labelBackgroundColor=none;" parent="R3BKQV-CwE8eGaamidav-12" vertex="1">
          <mxGeometry y="150" width="280" height="30" as="geometry" />
        </mxCell>
        <mxCell id="R3BKQV-CwE8eGaamidav-23" value="" style="shape=partialRectangle;connectable=0;fillColor=none;top=0;left=0;bottom=0;right=0;editable=1;overflow=hidden;whiteSpace=wrap;html=1;labelBackgroundColor=none;" parent="R3BKQV-CwE8eGaamidav-22" vertex="1">
          <mxGeometry width="30" height="30" as="geometry">
            <mxRectangle width="30" height="30" as="alternateBounds" />
          </mxGeometry>
        </mxCell>
        <mxCell id="R3BKQV-CwE8eGaamidav-24" value="expiresAt&amp;nbsp;&lt;font style=&quot;color: rgb(204, 204, 204);&quot;&gt;TIMESTAMPTZ&lt;/font&gt;" style="shape=partialRectangle;connectable=0;fillColor=none;top=0;left=0;bottom=0;right=0;align=left;spacingLeft=6;overflow=hidden;whiteSpace=wrap;html=1;labelBackgroundColor=none;" parent="R3BKQV-CwE8eGaamidav-22" vertex="1">
          <mxGeometry x="30" width="250" height="30" as="geometry">
            <mxRectangle width="250" height="30" as="alternateBounds" />
          </mxGeometry>
        </mxCell>
        <mxCell id="R3BKQV-CwE8eGaamidav-28" value="project_member" style="shape=table;startSize=30;container=1;collapsible=1;childLayout=tableLayout;fixedRows=1;rowLines=0;fontStyle=1;align=center;resizeLast=1;html=1;rounded=1;top=1;bottom=1;labelBackgroundColor=none;swimlaneFillColor=default;" parent="1" vertex="1">
          <mxGeometry x="400" y="480" width="200" height="180" as="geometry">
            <mxRectangle x="50" y="510" width="70" height="30" as="alternateBounds" />
          </mxGeometry>
        </mxCell>
        <mxCell id="R3BKQV-CwE8eGaamidav-29" value="" style="shape=tableRow;horizontal=0;startSize=0;swimlaneHead=0;swimlaneBody=0;fillColor=none;collapsible=0;dropTarget=0;points=[[0,0.5],[1,0.5]];portConstraint=eastwest;top=0;left=0;right=0;bottom=0;fontStyle=0;labelBackgroundColor=none;" parent="R3BKQV-CwE8eGaamidav-28" vertex="1">
          <mxGeometry y="30" width="200" height="30" as="geometry" />
        </mxCell>
        <mxCell id="R3BKQV-CwE8eGaamidav-30" value="FK" style="shape=partialRectangle;connectable=0;fillColor=none;top=0;left=0;bottom=0;right=0;fontStyle=1;overflow=hidden;whiteSpace=wrap;html=1;labelBackgroundColor=none;" parent="R3BKQV-CwE8eGaamidav-29" vertex="1">
          <mxGeometry width="30" height="30" as="geometry">
            <mxRectangle width="30" height="30" as="alternateBounds" />
          </mxGeometry>
        </mxCell>
        <mxCell id="R3BKQV-CwE8eGaamidav-31" value="projectId&lt;font style=&quot;font-weight: normal; color: rgb(204, 204, 204);&quot;&gt; UUID&lt;/font&gt;" style="shape=partialRectangle;connectable=0;fillColor=none;top=0;left=0;bottom=0;right=0;align=left;spacingLeft=6;fontStyle=1;overflow=hidden;whiteSpace=wrap;html=1;labelBackgroundColor=none;" parent="R3BKQV-CwE8eGaamidav-29" vertex="1">
          <mxGeometry x="30" width="170" height="30" as="geometry">
            <mxRectangle width="170" height="30" as="alternateBounds" />
          </mxGeometry>
        </mxCell>
        <mxCell id="R3BKQV-CwE8eGaamidav-44" value="" style="shape=tableRow;horizontal=0;startSize=0;swimlaneHead=0;swimlaneBody=0;fillColor=none;collapsible=0;dropTarget=0;points=[[0,0.5],[1,0.5]];portConstraint=eastwest;top=0;left=0;right=0;bottom=1;fontStyle=0;labelBackgroundColor=none;" parent="R3BKQV-CwE8eGaamidav-28" vertex="1">
          <mxGeometry y="60" width="200" height="30" as="geometry" />
        </mxCell>
        <mxCell id="R3BKQV-CwE8eGaamidav-45" value="FK" style="shape=partialRectangle;connectable=0;fillColor=none;top=0;left=0;bottom=0;right=0;fontStyle=1;overflow=hidden;whiteSpace=wrap;html=1;labelBackgroundColor=none;" parent="R3BKQV-CwE8eGaamidav-44" vertex="1">
          <mxGeometry width="30" height="30" as="geometry">
            <mxRectangle width="30" height="30" as="alternateBounds" />
          </mxGeometry>
        </mxCell>
        <mxCell id="R3BKQV-CwE8eGaamidav-46" value="userId&lt;font style=&quot;font-weight: normal; color: rgb(204, 204, 204);&quot;&gt; UUID&lt;/font&gt;" style="shape=partialRectangle;connectable=0;fillColor=none;top=0;left=0;bottom=0;right=0;align=left;spacingLeft=6;fontStyle=1;overflow=hidden;whiteSpace=wrap;html=1;labelBackgroundColor=none;" parent="R3BKQV-CwE8eGaamidav-44" vertex="1">
          <mxGeometry x="30" width="170" height="30" as="geometry">
            <mxRectangle width="170" height="30" as="alternateBounds" />
          </mxGeometry>
        </mxCell>
        <mxCell id="R3BKQV-CwE8eGaamidav-32" value="" style="shape=tableRow;horizontal=0;startSize=0;swimlaneHead=0;swimlaneBody=0;collapsible=0;dropTarget=0;points=[[0,0.5],[1,0.5]];portConstraint=eastwest;top=0;left=0;right=0;bottom=0;fillColor=none;labelBackgroundColor=none;" parent="R3BKQV-CwE8eGaamidav-28" vertex="1">
          <mxGeometry y="90" width="200" height="30" as="geometry" />
        </mxCell>
        <mxCell id="R3BKQV-CwE8eGaamidav-33" value="" style="shape=partialRectangle;connectable=0;fillColor=none;top=0;left=0;bottom=0;right=0;editable=1;overflow=hidden;whiteSpace=wrap;html=1;labelBackgroundColor=none;" parent="R3BKQV-CwE8eGaamidav-32" vertex="1">
          <mxGeometry width="30" height="30" as="geometry">
            <mxRectangle width="30" height="30" as="alternateBounds" />
          </mxGeometry>
        </mxCell>
        <mxCell id="R3BKQV-CwE8eGaamidav-34" value="role&amp;nbsp;&lt;font style=&quot;color: rgb(204, 204, 204);&quot;&gt;ENUM&lt;/font&gt;" style="shape=partialRectangle;connectable=0;fillColor=none;top=0;left=0;bottom=0;right=0;align=left;spacingLeft=6;overflow=hidden;whiteSpace=wrap;html=1;labelBackgroundColor=none;" parent="R3BKQV-CwE8eGaamidav-32" vertex="1">
          <mxGeometry x="30" width="170" height="30" as="geometry">
            <mxRectangle width="170" height="30" as="alternateBounds" />
          </mxGeometry>
        </mxCell>
        <mxCell id="R3BKQV-CwE8eGaamidav-35" value="" style="shape=tableRow;horizontal=0;startSize=0;swimlaneHead=0;swimlaneBody=0;collapsible=0;dropTarget=0;points=[[0,0.5],[1,0.5]];portConstraint=eastwest;top=0;left=0;right=0;bottom=0;fillColor=none;labelBackgroundColor=none;" parent="R3BKQV-CwE8eGaamidav-28" vertex="1">
          <mxGeometry y="120" width="200" height="30" as="geometry" />
        </mxCell>
        <mxCell id="R3BKQV-CwE8eGaamidav-36" value="" style="shape=partialRectangle;connectable=0;fillColor=none;top=0;left=0;bottom=0;right=0;editable=1;overflow=hidden;whiteSpace=wrap;html=1;labelBackgroundColor=none;" parent="R3BKQV-CwE8eGaamidav-35" vertex="1">
          <mxGeometry width="30" height="30" as="geometry">
            <mxRectangle width="30" height="30" as="alternateBounds" />
          </mxGeometry>
        </mxCell>
        <mxCell id="R3BKQV-CwE8eGaamidav-37" value="createdAt&amp;nbsp;&lt;font style=&quot;color: rgb(204, 204, 204);&quot;&gt;TIMESTAMPTZ&lt;/font&gt;" style="shape=partialRectangle;connectable=0;fillColor=none;top=0;left=0;bottom=0;right=0;align=left;spacingLeft=6;overflow=hidden;whiteSpace=wrap;html=1;labelBackgroundColor=none;" parent="R3BKQV-CwE8eGaamidav-35" vertex="1">
          <mxGeometry x="30" width="170" height="30" as="geometry">
            <mxRectangle width="170" height="30" as="alternateBounds" />
          </mxGeometry>
        </mxCell>
        <mxCell id="R3BKQV-CwE8eGaamidav-38" value="" style="shape=tableRow;horizontal=0;startSize=0;swimlaneHead=0;swimlaneBody=0;collapsible=0;dropTarget=0;points=[[0,0.5],[1,0.5]];portConstraint=eastwest;top=0;left=0;right=0;bottom=0;fillColor=none;labelBackgroundColor=none;" parent="R3BKQV-CwE8eGaamidav-28" vertex="1">
          <mxGeometry y="150" width="200" height="30" as="geometry" />
        </mxCell>
        <mxCell id="R3BKQV-CwE8eGaamidav-39" value="" style="shape=partialRectangle;connectable=0;fillColor=none;top=0;left=0;bottom=0;right=0;editable=1;overflow=hidden;whiteSpace=wrap;html=1;labelBackgroundColor=none;" parent="R3BKQV-CwE8eGaamidav-38" vertex="1">
          <mxGeometry width="30" height="30" as="geometry">
            <mxRectangle width="30" height="30" as="alternateBounds" />
          </mxGeometry>
        </mxCell>
        <mxCell id="R3BKQV-CwE8eGaamidav-40" value="modifedAt&amp;nbsp;&lt;span style=&quot;color: rgb(204, 204, 204);&quot;&gt;TIMESTAMPTZ&lt;/span&gt;" style="shape=partialRectangle;connectable=0;fillColor=none;top=0;left=0;bottom=0;right=0;align=left;spacingLeft=6;overflow=hidden;whiteSpace=wrap;html=1;labelBackgroundColor=none;" parent="R3BKQV-CwE8eGaamidav-38" vertex="1">
          <mxGeometry x="30" width="170" height="30" as="geometry">
            <mxRectangle width="170" height="30" as="alternateBounds" />
          </mxGeometry>
        </mxCell>
        <mxCell id="R3BKQV-CwE8eGaamidav-49" style="edgeStyle=orthogonalEdgeStyle;rounded=1;orthogonalLoop=1;jettySize=auto;html=1;endArrow=none;endFill=0;curved=0;exitX=1;exitY=0.5;exitDx=0;exitDy=0;entryX=0;entryY=0.5;entryDx=0;entryDy=0;labelBackgroundColor=none;fontColor=default;" parent="1" source="R3BKQV-CwE8eGaamidav-25" target="R-MKoHGWoA9p2bsHh0tM-57" edge="1">
          <mxGeometry relative="1" as="geometry">
            <Array as="points">
              <mxPoint x="740" y="785" />
              <mxPoint x="740" y="525" />
            </Array>
          </mxGeometry>
        </mxCell>
        <mxCell id="R3BKQV-CwE8eGaamidav-50" style="edgeStyle=orthogonalEdgeStyle;rounded=1;orthogonalLoop=1;jettySize=auto;html=1;curved=0;endArrow=none;endFill=0;exitX=1;exitY=0.5;exitDx=0;exitDy=0;entryX=0;entryY=0.5;entryDx=0;entryDy=0;labelBackgroundColor=none;fontColor=default;" parent="1" source="R-MKoHGWoA9p2bsHh0tM-5" target="gtdaIvUS_uVvHvJYpVgE-2" edge="1">
          <mxGeometry relative="1" as="geometry" />
        </mxCell>
        <mxCell id="R3BKQV-CwE8eGaamidav-51" style="edgeStyle=orthogonalEdgeStyle;rounded=1;orthogonalLoop=1;jettySize=auto;html=1;curved=0;endArrow=none;endFill=0;exitX=0;exitY=0.5;exitDx=0;exitDy=0;entryX=1;entryY=0.5;entryDx=0;entryDy=0;labelBackgroundColor=none;fontColor=default;" parent="1" source="R-MKoHGWoA9p2bsHh0tM-93" target="gtdaIvUS_uVvHvJYpVgE-2" edge="1">
          <mxGeometry relative="1" as="geometry">
            <Array as="points">
              <mxPoint x="340" y="885" />
              <mxPoint x="340" y="525" />
            </Array>
          </mxGeometry>
        </mxCell>
        <mxCell id="R3BKQV-CwE8eGaamidav-168" value="createdBy" style="edgeLabel;align=center;verticalAlign=middle;resizable=0;points=[];labelBackgroundColor=default;labelBorderColor=none;html=1;spacingLeft=0;convertToSvg=0;" parent="R3BKQV-CwE8eGaamidav-51" vertex="1" connectable="0">
          <mxGeometry x="-0.3649" y="-1" relative="1" as="geometry">
            <mxPoint x="-126" as="offset" />
          </mxGeometry>
        </mxCell>
        <mxCell id="R3BKQV-CwE8eGaamidav-52" style="edgeStyle=orthogonalEdgeStyle;rounded=1;orthogonalLoop=1;jettySize=auto;html=1;curved=0;endArrow=none;endFill=0;exitX=0;exitY=0.5;exitDx=0;exitDy=0;entryX=1;entryY=0.5;entryDx=0;entryDy=0;labelBackgroundColor=none;fontColor=default;" parent="1" source="R-MKoHGWoA9p2bsHh0tM-99" target="gtdaIvUS_uVvHvJYpVgE-2" edge="1">
          <mxGeometry relative="1" as="geometry">
            <Array as="points">
              <mxPoint x="340" y="945" />
              <mxPoint x="340" y="525" />
            </Array>
          </mxGeometry>
        </mxCell>
        <mxCell id="R3BKQV-CwE8eGaamidav-169" value="modifiedBy" style="edgeLabel;html=1;align=center;verticalAlign=middle;resizable=0;points=[];labelBackgroundColor=default;" parent="R3BKQV-CwE8eGaamidav-52" vertex="1" connectable="0">
          <mxGeometry x="-0.1062" y="-1" relative="1" as="geometry">
            <mxPoint x="5" as="offset" />
          </mxGeometry>
        </mxCell>
        <mxCell id="R3BKQV-CwE8eGaamidav-53" style="edgeStyle=orthogonalEdgeStyle;rounded=1;orthogonalLoop=1;jettySize=auto;html=1;curved=0;endArrow=none;endFill=0;entryX=1;entryY=0.5;entryDx=0;entryDy=0;exitX=0;exitY=0.5;exitDx=0;exitDy=0;labelBackgroundColor=none;fontColor=default;" parent="1" source="R-MKoHGWoA9p2bsHh0tM-111" target="gtdaIvUS_uVvHvJYpVgE-2" edge="1">
          <mxGeometry relative="1" as="geometry">
            <Array as="points">
              <mxPoint x="340" y="1005" />
              <mxPoint x="340" y="525" />
            </Array>
          </mxGeometry>
        </mxCell>
        <mxCell id="R3BKQV-CwE8eGaamidav-170" value="deletedBy" style="edgeLabel;html=1;align=center;verticalAlign=middle;resizable=0;points=[];labelBackgroundColor=default;" parent="R3BKQV-CwE8eGaamidav-53" vertex="1" connectable="0">
          <mxGeometry x="-0.1687" y="-2" relative="1" as="geometry">
            <mxPoint x="2" y="1" as="offset" />
          </mxGeometry>
        </mxCell>
        <mxCell id="R3BKQV-CwE8eGaamidav-54" value="project_paper" style="shape=table;startSize=30;container=1;collapsible=1;childLayout=tableLayout;fixedRows=1;rowLines=0;fontStyle=1;align=center;resizeLast=1;html=1;rounded=1;top=1;labelBackgroundColor=none;swimlaneFillColor=default;" parent="1" vertex="1">
          <mxGeometry x="760" y="-470" width="280" height="330" as="geometry">
            <mxRectangle x="50" y="510" width="70" height="30" as="alternateBounds" />
          </mxGeometry>
        </mxCell>
        <mxCell id="R3BKQV-CwE8eGaamidav-55" value="" style="shape=tableRow;horizontal=0;startSize=0;swimlaneHead=0;swimlaneBody=0;fillColor=none;collapsible=0;dropTarget=0;points=[[0,0.5],[1,0.5]];portConstraint=eastwest;top=0;left=0;right=0;bottom=1;fontStyle=0;labelBackgroundColor=none;" parent="R3BKQV-CwE8eGaamidav-54" vertex="1">
          <mxGeometry y="30" width="280" height="30" as="geometry" />
        </mxCell>
        <mxCell id="R3BKQV-CwE8eGaamidav-56" value="PK" style="shape=partialRectangle;connectable=0;fillColor=none;top=0;left=0;bottom=0;right=0;fontStyle=1;overflow=hidden;whiteSpace=wrap;html=1;labelBackgroundColor=none;" parent="R3BKQV-CwE8eGaamidav-55" vertex="1">
          <mxGeometry width="30" height="30" as="geometry">
            <mxRectangle width="30" height="30" as="alternateBounds" />
          </mxGeometry>
        </mxCell>
        <mxCell id="R3BKQV-CwE8eGaamidav-57" value="id&lt;font style=&quot;font-weight: normal; color: rgb(204, 204, 204);&quot;&gt; UUID&lt;/font&gt;" style="shape=partialRectangle;connectable=0;fillColor=none;top=0;left=0;bottom=0;right=0;align=left;spacingLeft=6;fontStyle=1;overflow=hidden;whiteSpace=wrap;html=1;labelBackgroundColor=none;" parent="R3BKQV-CwE8eGaamidav-55" vertex="1">
          <mxGeometry x="30" width="250" height="30" as="geometry">
            <mxRectangle width="250" height="30" as="alternateBounds" />
          </mxGeometry>
        </mxCell>
        <mxCell id="R3BKQV-CwE8eGaamidav-58" value="" style="shape=tableRow;horizontal=0;startSize=0;swimlaneHead=0;swimlaneBody=0;collapsible=0;dropTarget=0;points=[[0,0.5],[1,0.5]];portConstraint=eastwest;top=0;left=0;right=0;bottom=0;fillColor=none;labelBackgroundColor=none;" parent="R3BKQV-CwE8eGaamidav-54" vertex="1">
          <mxGeometry y="60" width="280" height="30" as="geometry" />
        </mxCell>
        <mxCell id="R3BKQV-CwE8eGaamidav-59" value="FK" style="shape=partialRectangle;connectable=0;fillColor=none;top=0;left=0;bottom=0;right=0;editable=1;overflow=hidden;whiteSpace=wrap;html=1;labelBackgroundColor=none;" parent="R3BKQV-CwE8eGaamidav-58" vertex="1">
          <mxGeometry width="30" height="30" as="geometry">
            <mxRectangle width="30" height="30" as="alternateBounds" />
          </mxGeometry>
        </mxCell>
        <mxCell id="R3BKQV-CwE8eGaamidav-60" value="paperId&amp;nbsp;&lt;font style=&quot;color: rgb(204, 204, 204);&quot;&gt;UUID, UNIQUE w/ projectId&lt;/font&gt;" style="shape=partialRectangle;connectable=0;fillColor=none;top=0;left=0;bottom=0;right=0;align=left;spacingLeft=6;overflow=hidden;whiteSpace=wrap;html=1;labelBackgroundColor=none;" parent="R3BKQV-CwE8eGaamidav-58" vertex="1">
          <mxGeometry x="30" width="250" height="30" as="geometry">
            <mxRectangle width="250" height="30" as="alternateBounds" />
          </mxGeometry>
        </mxCell>
        <mxCell id="R3BKQV-CwE8eGaamidav-61" value="" style="shape=tableRow;horizontal=0;startSize=0;swimlaneHead=0;swimlaneBody=0;collapsible=0;dropTarget=0;points=[[0,0.5],[1,0.5]];portConstraint=eastwest;top=0;left=0;right=0;bottom=0;fillColor=none;labelBackgroundColor=none;" parent="R3BKQV-CwE8eGaamidav-54" vertex="1">
          <mxGeometry y="90" width="280" height="30" as="geometry" />
        </mxCell>
        <mxCell id="R3BKQV-CwE8eGaamidav-62" value="FK" style="shape=partialRectangle;connectable=0;fillColor=none;top=0;left=0;bottom=0;right=0;editable=1;overflow=hidden;whiteSpace=wrap;html=1;labelBackgroundColor=none;" parent="R3BKQV-CwE8eGaamidav-61" vertex="1">
          <mxGeometry width="30" height="30" as="geometry">
            <mxRectangle width="30" height="30" as="alternateBounds" />
          </mxGeometry>
        </mxCell>
        <mxCell id="R3BKQV-CwE8eGaamidav-63" value="projectId&amp;nbsp;&lt;font style=&quot;color: rgb(204, 204, 204);&quot;&gt;UUID, UNIQUE w/ paperId&lt;/font&gt;" style="shape=partialRectangle;connectable=0;fillColor=none;top=0;left=0;bottom=0;right=0;align=left;spacingLeft=6;overflow=hidden;whiteSpace=wrap;html=1;labelBackgroundColor=none;" parent="R3BKQV-CwE8eGaamidav-61" vertex="1">
          <mxGeometry x="30" width="250" height="30" as="geometry">
            <mxRectangle width="250" height="30" as="alternateBounds" />
          </mxGeometry>
        </mxCell>
        <mxCell id="R3BKQV-CwE8eGaamidav-64" value="" style="shape=tableRow;horizontal=0;startSize=0;swimlaneHead=0;swimlaneBody=0;collapsible=0;dropTarget=0;points=[[0,0.5],[1,0.5]];portConstraint=eastwest;top=0;left=0;right=0;bottom=0;fillColor=none;labelBackgroundColor=none;" parent="R3BKQV-CwE8eGaamidav-54" vertex="1">
          <mxGeometry y="120" width="280" height="30" as="geometry" />
        </mxCell>
        <mxCell id="R3BKQV-CwE8eGaamidav-65" value="" style="shape=partialRectangle;connectable=0;fillColor=none;top=0;left=0;bottom=0;right=0;editable=1;overflow=hidden;whiteSpace=wrap;html=1;labelBackgroundColor=none;" parent="R3BKQV-CwE8eGaamidav-64" vertex="1">
          <mxGeometry width="30" height="30" as="geometry">
            <mxRectangle width="30" height="30" as="alternateBounds" />
          </mxGeometry>
        </mxCell>
        <mxCell id="R3BKQV-CwE8eGaamidav-66" value="localPaperId&amp;nbsp;&lt;font style=&quot;color: rgb(204, 204, 204);&quot;&gt;LONG&lt;/font&gt;" style="shape=partialRectangle;connectable=0;fillColor=none;top=0;left=0;bottom=0;right=0;align=left;spacingLeft=6;overflow=hidden;whiteSpace=wrap;html=1;labelBackgroundColor=none;" parent="R3BKQV-CwE8eGaamidav-64" vertex="1">
          <mxGeometry x="30" width="250" height="30" as="geometry">
            <mxRectangle width="250" height="30" as="alternateBounds" />
          </mxGeometry>
        </mxCell>
        <mxCell id="R3BKQV-CwE8eGaamidav-67" value="" style="shape=tableRow;horizontal=0;startSize=0;swimlaneHead=0;swimlaneBody=0;collapsible=0;dropTarget=0;points=[[0,0.5],[1,0.5]];portConstraint=eastwest;top=0;left=0;right=0;bottom=0;fillColor=none;labelBackgroundColor=none;" parent="R3BKQV-CwE8eGaamidav-54" vertex="1">
          <mxGeometry y="150" width="280" height="30" as="geometry" />
        </mxCell>
        <mxCell id="R3BKQV-CwE8eGaamidav-68" value="" style="shape=partialRectangle;connectable=0;fillColor=none;top=0;left=0;bottom=0;right=0;editable=1;overflow=hidden;whiteSpace=wrap;html=1;labelBackgroundColor=none;" parent="R3BKQV-CwE8eGaamidav-67" vertex="1">
          <mxGeometry width="30" height="30" as="geometry">
            <mxRectangle width="30" height="30" as="alternateBounds" />
          </mxGeometry>
        </mxCell>
        <mxCell id="R3BKQV-CwE8eGaamidav-69" value="stage&amp;nbsp;&lt;font style=&quot;color: rgb(204, 204, 204);&quot;&gt;LONG&lt;/font&gt;" style="shape=partialRectangle;connectable=0;fillColor=none;top=0;left=0;bottom=0;right=0;align=left;spacingLeft=6;overflow=hidden;whiteSpace=wrap;html=1;labelBackgroundColor=none;" parent="R3BKQV-CwE8eGaamidav-67" vertex="1">
          <mxGeometry x="30" width="250" height="30" as="geometry">
            <mxRectangle width="250" height="30" as="alternateBounds" />
          </mxGeometry>
        </mxCell>
        <mxCell id="R3BKQV-CwE8eGaamidav-70" value="" style="shape=tableRow;horizontal=0;startSize=0;swimlaneHead=0;swimlaneBody=0;collapsible=0;dropTarget=0;points=[[0,0.5],[1,0.5]];portConstraint=eastwest;top=0;left=0;right=0;bottom=1;fillColor=none;labelBackgroundColor=none;" parent="R3BKQV-CwE8eGaamidav-54" vertex="1">
          <mxGeometry y="180" width="280" height="30" as="geometry" />
        </mxCell>
        <mxCell id="R3BKQV-CwE8eGaamidav-71" value="" style="shape=partialRectangle;connectable=0;fillColor=none;top=0;left=0;bottom=0;right=0;editable=1;overflow=hidden;whiteSpace=wrap;html=1;labelBackgroundColor=none;" parent="R3BKQV-CwE8eGaamidav-70" vertex="1">
          <mxGeometry width="30" height="30" as="geometry">
            <mxRectangle width="30" height="30" as="alternateBounds" />
          </mxGeometry>
        </mxCell>
        <mxCell id="R3BKQV-CwE8eGaamidav-72" value="decision&amp;nbsp;&lt;font style=&quot;color: rgb(204, 204, 204);&quot;&gt;ENUM&lt;/font&gt;" style="shape=partialRectangle;connectable=0;fillColor=none;top=0;left=0;bottom=0;right=0;align=left;spacingLeft=6;overflow=hidden;whiteSpace=wrap;html=1;labelBackgroundColor=none;" parent="R3BKQV-CwE8eGaamidav-70" vertex="1">
          <mxGeometry x="30" width="250" height="30" as="geometry">
            <mxRectangle width="250" height="30" as="alternateBounds" />
          </mxGeometry>
        </mxCell>
        <mxCell id="R3BKQV-CwE8eGaamidav-85" value="" style="shape=tableRow;horizontal=0;startSize=0;swimlaneHead=0;swimlaneBody=0;collapsible=0;dropTarget=0;points=[[0,0.5],[1,0.5]];portConstraint=eastwest;top=0;left=0;right=0;bottom=0;fillColor=none;labelBackgroundColor=none;" parent="R3BKQV-CwE8eGaamidav-54" vertex="1">
          <mxGeometry y="210" width="280" height="30" as="geometry" />
        </mxCell>
        <mxCell id="R3BKQV-CwE8eGaamidav-86" value="" style="shape=partialRectangle;connectable=0;fillColor=none;top=0;left=0;bottom=0;right=0;editable=1;overflow=hidden;whiteSpace=wrap;html=1;labelBackgroundColor=none;" parent="R3BKQV-CwE8eGaamidav-85" vertex="1">
          <mxGeometry width="30" height="30" as="geometry">
            <mxRectangle width="30" height="30" as="alternateBounds" />
          </mxGeometry>
        </mxCell>
        <mxCell id="R3BKQV-CwE8eGaamidav-87" value="createdAt&amp;nbsp;&lt;span style=&quot;color: rgb(204, 204, 204);&quot;&gt;TIMESTAMPTZ&lt;/span&gt;" style="shape=partialRectangle;connectable=0;fillColor=none;top=0;left=0;bottom=0;right=0;align=left;spacingLeft=6;overflow=hidden;whiteSpace=wrap;html=1;labelBackgroundColor=none;" parent="R3BKQV-CwE8eGaamidav-85" vertex="1">
          <mxGeometry x="30" width="250" height="30" as="geometry">
            <mxRectangle width="250" height="30" as="alternateBounds" />
          </mxGeometry>
        </mxCell>
        <mxCell id="R3BKQV-CwE8eGaamidav-82" value="" style="shape=tableRow;horizontal=0;startSize=0;swimlaneHead=0;swimlaneBody=0;collapsible=0;dropTarget=0;points=[[0,0.5],[1,0.5]];portConstraint=eastwest;top=0;left=0;right=0;bottom=0;fillColor=none;labelBackgroundColor=none;" parent="R3BKQV-CwE8eGaamidav-54" vertex="1">
          <mxGeometry y="240" width="280" height="30" as="geometry" />
        </mxCell>
        <mxCell id="R3BKQV-CwE8eGaamidav-83" value="FK" style="shape=partialRectangle;connectable=0;fillColor=none;top=0;left=0;bottom=0;right=0;editable=1;overflow=hidden;whiteSpace=wrap;html=1;labelBackgroundColor=none;" parent="R3BKQV-CwE8eGaamidav-82" vertex="1">
          <mxGeometry width="30" height="30" as="geometry">
            <mxRectangle width="30" height="30" as="alternateBounds" />
          </mxGeometry>
        </mxCell>
        <mxCell id="R3BKQV-CwE8eGaamidav-84" value="createdBy&amp;nbsp;&lt;span style=&quot;color: rgb(204, 204, 204);&quot;&gt;UUID&lt;/span&gt;" style="shape=partialRectangle;connectable=0;fillColor=none;top=0;left=0;bottom=0;right=0;align=left;spacingLeft=6;overflow=hidden;whiteSpace=wrap;html=1;labelBackgroundColor=none;" parent="R3BKQV-CwE8eGaamidav-82" vertex="1">
          <mxGeometry x="30" width="250" height="30" as="geometry">
            <mxRectangle width="250" height="30" as="alternateBounds" />
          </mxGeometry>
        </mxCell>
        <mxCell id="R3BKQV-CwE8eGaamidav-88" value="" style="shape=tableRow;horizontal=0;startSize=0;swimlaneHead=0;swimlaneBody=0;collapsible=0;dropTarget=0;points=[[0,0.5],[1,0.5]];portConstraint=eastwest;top=0;left=0;right=0;bottom=0;fillColor=none;labelBackgroundColor=none;" parent="R3BKQV-CwE8eGaamidav-54" vertex="1">
          <mxGeometry y="270" width="280" height="30" as="geometry" />
        </mxCell>
        <mxCell id="R3BKQV-CwE8eGaamidav-89" value="" style="shape=partialRectangle;connectable=0;fillColor=none;top=0;left=0;bottom=0;right=0;editable=1;overflow=hidden;whiteSpace=wrap;html=1;labelBackgroundColor=none;" parent="R3BKQV-CwE8eGaamidav-88" vertex="1">
          <mxGeometry width="30" height="30" as="geometry">
            <mxRectangle width="30" height="30" as="alternateBounds" />
          </mxGeometry>
        </mxCell>
        <mxCell id="R3BKQV-CwE8eGaamidav-90" value="modifiedAt&amp;nbsp;&lt;span style=&quot;color: rgb(204, 204, 204);&quot;&gt;TIMESTAMPTZ, NULLABLE&lt;/span&gt;" style="shape=partialRectangle;connectable=0;fillColor=none;top=0;left=0;bottom=0;right=0;align=left;spacingLeft=6;overflow=hidden;whiteSpace=wrap;html=1;labelBackgroundColor=none;" parent="R3BKQV-CwE8eGaamidav-88" vertex="1">
          <mxGeometry x="30" width="250" height="30" as="geometry">
            <mxRectangle width="250" height="30" as="alternateBounds" />
          </mxGeometry>
        </mxCell>
        <mxCell id="R3BKQV-CwE8eGaamidav-91" value="" style="shape=tableRow;horizontal=0;startSize=0;swimlaneHead=0;swimlaneBody=0;collapsible=0;dropTarget=0;points=[[0,0.5],[1,0.5]];portConstraint=eastwest;top=0;left=0;right=0;bottom=0;fillColor=none;labelBackgroundColor=none;" parent="R3BKQV-CwE8eGaamidav-54" vertex="1">
          <mxGeometry y="300" width="280" height="30" as="geometry" />
        </mxCell>
        <mxCell id="R3BKQV-CwE8eGaamidav-92" value="FK" style="shape=partialRectangle;connectable=0;fillColor=none;top=0;left=0;bottom=0;right=0;editable=1;overflow=hidden;whiteSpace=wrap;html=1;labelBackgroundColor=none;" parent="R3BKQV-CwE8eGaamidav-91" vertex="1">
          <mxGeometry width="30" height="30" as="geometry">
            <mxRectangle width="30" height="30" as="alternateBounds" />
          </mxGeometry>
        </mxCell>
        <mxCell id="R3BKQV-CwE8eGaamidav-93" value="modifiedBy&amp;nbsp;&lt;font style=&quot;color: rgb(204, 204, 204);&quot;&gt;UUID, NULLABLE&lt;/font&gt;" style="shape=partialRectangle;connectable=0;fillColor=none;top=0;left=0;bottom=0;right=0;align=left;spacingLeft=6;overflow=hidden;whiteSpace=wrap;html=1;labelBackgroundColor=none;" parent="R3BKQV-CwE8eGaamidav-91" vertex="1">
          <mxGeometry x="30" width="250" height="30" as="geometry">
            <mxRectangle width="250" height="30" as="alternateBounds" />
          </mxGeometry>
        </mxCell>
        <mxCell id="R3BKQV-CwE8eGaamidav-94" style="edgeStyle=orthogonalEdgeStyle;rounded=1;orthogonalLoop=1;jettySize=auto;html=1;curved=0;endArrow=none;endFill=0;exitX=1;exitY=0.5;exitDx=0;exitDy=0;entryX=0;entryY=0.5;entryDx=0;entryDy=0;labelBackgroundColor=none;fontColor=default;" parent="1" source="R3BKQV-CwE8eGaamidav-29" target="R-MKoHGWoA9p2bsHh0tM-57" edge="1">
          <mxGeometry relative="1" as="geometry" />
        </mxCell>
        <mxCell id="R3BKQV-CwE8eGaamidav-95" style="edgeStyle=orthogonalEdgeStyle;rounded=1;orthogonalLoop=1;jettySize=auto;html=1;curved=0;endArrow=none;endFill=0;exitX=0;exitY=0.5;exitDx=0;exitDy=0;entryX=1;entryY=0.5;entryDx=0;entryDy=0;labelBackgroundColor=none;fontColor=default;" parent="1" source="R3BKQV-CwE8eGaamidav-44" target="gtdaIvUS_uVvHvJYpVgE-2" edge="1">
          <mxGeometry relative="1" as="geometry">
            <mxPoint x="490" y="460" as="sourcePoint" />
            <mxPoint x="380" y="570" as="targetPoint" />
            <Array as="points" />
          </mxGeometry>
        </mxCell>
        <mxCell id="R3BKQV-CwE8eGaamidav-96" style="edgeStyle=orthogonalEdgeStyle;rounded=1;orthogonalLoop=1;jettySize=auto;html=1;entryX=0;entryY=0.5;entryDx=0;entryDy=0;curved=0;endArrow=none;endFill=0;exitX=0;exitY=0.5;exitDx=0;exitDy=0;labelBackgroundColor=none;fontColor=default;" parent="1" source="R-MKoHGWoA9p2bsHh0tM-174" target="R-MKoHGWoA9p2bsHh0tM-124" edge="1">
          <mxGeometry relative="1" as="geometry">
            <Array as="points">
              <mxPoint x="380" y="-155" />
              <mxPoint x="380" y="45" />
            </Array>
          </mxGeometry>
        </mxCell>
        <mxCell id="R3BKQV-CwE8eGaamidav-97" style="edgeStyle=orthogonalEdgeStyle;rounded=1;orthogonalLoop=1;jettySize=auto;html=1;entryX=1;entryY=0.5;entryDx=0;entryDy=0;curved=0;endArrow=none;endFill=0;exitX=1;exitY=0.5;exitDx=0;exitDy=0;labelBackgroundColor=none;fontColor=default;" parent="1" source="R-MKoHGWoA9p2bsHh0tM-186" target="gtdaIvUS_uVvHvJYpVgE-2" edge="1">
          <mxGeometry relative="1" as="geometry">
            <Array as="points">
              <mxPoint x="700" y="-35" />
              <mxPoint x="700" y="120" />
              <mxPoint x="360" y="120" />
              <mxPoint x="360" y="525" />
            </Array>
          </mxGeometry>
        </mxCell>
        <mxCell id="R3BKQV-CwE8eGaamidav-172" value="modifiedBy" style="edgeLabel;html=1;align=center;verticalAlign=middle;resizable=0;points=[];labelBackgroundColor=default;" parent="R3BKQV-CwE8eGaamidav-97" vertex="1" connectable="0">
          <mxGeometry x="-0.0503" relative="1" as="geometry">
            <mxPoint x="-19" y="-1" as="offset" />
          </mxGeometry>
        </mxCell>
        <mxCell id="R3BKQV-CwE8eGaamidav-98" style="edgeStyle=orthogonalEdgeStyle;rounded=1;orthogonalLoop=1;jettySize=auto;html=1;exitX=0;exitY=0.5;exitDx=0;exitDy=0;curved=0;endArrow=none;endFill=0;entryX=1;entryY=0.5;entryDx=0;entryDy=0;labelBackgroundColor=none;fontColor=default;" parent="1" source="R3BKQV-CwE8eGaamidav-91" target="gtdaIvUS_uVvHvJYpVgE-2" edge="1">
          <mxGeometry relative="1" as="geometry">
            <mxPoint x="40" y="525" as="targetPoint" />
            <Array as="points">
              <mxPoint x="740" y="-155" />
              <mxPoint x="740" y="200" />
              <mxPoint x="360" y="200" />
              <mxPoint x="360" y="525" />
            </Array>
          </mxGeometry>
        </mxCell>
        <mxCell id="R3BKQV-CwE8eGaamidav-173" value="modifiedBy" style="edgeLabel;html=1;align=center;verticalAlign=middle;resizable=0;points=[];labelBackgroundColor=default;" parent="R3BKQV-CwE8eGaamidav-98" vertex="1" connectable="0">
          <mxGeometry x="-0.8393" y="1" relative="1" as="geometry">
            <mxPoint x="-341" y="284" as="offset" />
          </mxGeometry>
        </mxCell>
        <mxCell id="R3BKQV-CwE8eGaamidav-99" style="edgeStyle=orthogonalEdgeStyle;rounded=1;orthogonalLoop=1;jettySize=auto;html=1;exitX=0;exitY=0.5;exitDx=0;exitDy=0;entryX=1;entryY=0.5;entryDx=0;entryDy=0;curved=0;endArrow=none;endFill=0;labelBackgroundColor=none;fontColor=default;" parent="1" source="R3BKQV-CwE8eGaamidav-82" target="gtdaIvUS_uVvHvJYpVgE-2" edge="1">
          <mxGeometry relative="1" as="geometry">
            <Array as="points">
              <mxPoint x="720" y="-215" />
              <mxPoint x="720" y="160" />
              <mxPoint x="360" y="160" />
              <mxPoint x="360" y="525" />
            </Array>
          </mxGeometry>
        </mxCell>
        <mxCell id="R3BKQV-CwE8eGaamidav-174" value="createdBy" style="edgeLabel;html=1;align=center;verticalAlign=middle;resizable=0;points=[];labelBackgroundColor=default;" parent="R3BKQV-CwE8eGaamidav-99" vertex="1" connectable="0">
          <mxGeometry x="-0.8273" relative="1" as="geometry">
            <mxPoint x="-320" y="312" as="offset" />
          </mxGeometry>
        </mxCell>
        <mxCell id="R3BKQV-CwE8eGaamidav-100" style="edgeStyle=orthogonalEdgeStyle;rounded=1;orthogonalLoop=1;jettySize=auto;html=1;exitX=0;exitY=0.5;exitDx=0;exitDy=0;entryX=1;entryY=0.5;entryDx=0;entryDy=0;curved=0;endArrow=none;endFill=0;labelBackgroundColor=none;fontColor=default;" parent="1" source="R3BKQV-CwE8eGaamidav-58" target="R-MKoHGWoA9p2bsHh0tM-144" edge="1">
          <mxGeometry relative="1" as="geometry" />
        </mxCell>
        <mxCell id="R3BKQV-CwE8eGaamidav-101" style="edgeStyle=orthogonalEdgeStyle;rounded=1;orthogonalLoop=1;jettySize=auto;html=1;exitX=1;exitY=0.5;exitDx=0;exitDy=0;entryX=1;entryY=0.5;entryDx=0;entryDy=0;curved=0;endArrow=none;endFill=0;labelBackgroundColor=none;fontColor=default;" parent="1" source="R3BKQV-CwE8eGaamidav-61" target="R-MKoHGWoA9p2bsHh0tM-57" edge="1">
          <mxGeometry relative="1" as="geometry">
            <Array as="points">
              <mxPoint x="1060" y="-365" />
              <mxPoint x="1060" y="525" />
            </Array>
          </mxGeometry>
        </mxCell>
        <mxCell id="R3BKQV-CwE8eGaamidav-102" value="reading_list" style="shape=table;startSize=30;container=1;collapsible=1;childLayout=tableLayout;fixedRows=1;rowLines=0;fontStyle=1;align=center;resizeLast=1;html=1;rounded=1;top=1;bottom=1;labelBackgroundColor=none;swimlaneFillColor=default;" parent="1" vertex="1">
          <mxGeometry x="40" y="320" width="200" height="120" as="geometry">
            <mxRectangle x="50" y="510" width="70" height="30" as="alternateBounds" />
          </mxGeometry>
        </mxCell>
        <mxCell id="R3BKQV-CwE8eGaamidav-103" value="" style="shape=tableRow;horizontal=0;startSize=0;swimlaneHead=0;swimlaneBody=0;fillColor=none;collapsible=0;dropTarget=0;points=[[0,0.5],[1,0.5]];portConstraint=eastwest;top=0;left=0;right=0;bottom=0;fontStyle=0;labelBackgroundColor=none;" parent="R3BKQV-CwE8eGaamidav-102" vertex="1">
          <mxGeometry y="30" width="200" height="30" as="geometry" />
        </mxCell>
        <mxCell id="R3BKQV-CwE8eGaamidav-104" value="FK" style="shape=partialRectangle;connectable=0;fillColor=none;top=0;left=0;bottom=0;right=0;fontStyle=1;overflow=hidden;whiteSpace=wrap;html=1;labelBackgroundColor=none;" parent="R3BKQV-CwE8eGaamidav-103" vertex="1">
          <mxGeometry width="30" height="30" as="geometry">
            <mxRectangle width="30" height="30" as="alternateBounds" />
          </mxGeometry>
        </mxCell>
        <mxCell id="R3BKQV-CwE8eGaamidav-105" value="paperId&lt;font style=&quot;font-weight: normal; color: rgb(204, 204, 204);&quot;&gt; UUID&lt;/font&gt;" style="shape=partialRectangle;connectable=0;fillColor=none;top=0;left=0;bottom=0;right=0;align=left;spacingLeft=6;fontStyle=1;overflow=hidden;whiteSpace=wrap;html=1;labelBackgroundColor=none;" parent="R3BKQV-CwE8eGaamidav-103" vertex="1">
          <mxGeometry x="30" width="170" height="30" as="geometry">
            <mxRectangle width="170" height="30" as="alternateBounds" />
          </mxGeometry>
        </mxCell>
        <mxCell id="R3BKQV-CwE8eGaamidav-127" value="" style="shape=tableRow;horizontal=0;startSize=0;swimlaneHead=0;swimlaneBody=0;fillColor=none;collapsible=0;dropTarget=0;points=[[0,0.5],[1,0.5]];portConstraint=eastwest;top=0;left=0;right=0;bottom=1;fontStyle=0;labelBackgroundColor=none;" parent="R3BKQV-CwE8eGaamidav-102" vertex="1">
          <mxGeometry y="60" width="200" height="30" as="geometry" />
        </mxCell>
        <mxCell id="R3BKQV-CwE8eGaamidav-128" value="FK" style="shape=partialRectangle;connectable=0;fillColor=none;top=0;left=0;bottom=0;right=0;fontStyle=1;overflow=hidden;whiteSpace=wrap;html=1;labelBackgroundColor=none;" parent="R3BKQV-CwE8eGaamidav-127" vertex="1">
          <mxGeometry width="30" height="30" as="geometry">
            <mxRectangle width="30" height="30" as="alternateBounds" />
          </mxGeometry>
        </mxCell>
        <mxCell id="R3BKQV-CwE8eGaamidav-129" value="userId&lt;font style=&quot;font-weight: normal; color: rgb(204, 204, 204);&quot;&gt; UUID&lt;/font&gt;" style="shape=partialRectangle;connectable=0;fillColor=none;top=0;left=0;bottom=0;right=0;align=left;spacingLeft=6;fontStyle=1;overflow=hidden;whiteSpace=wrap;html=1;labelBackgroundColor=none;" parent="R3BKQV-CwE8eGaamidav-127" vertex="1">
          <mxGeometry x="30" width="170" height="30" as="geometry">
            <mxRectangle width="170" height="30" as="alternateBounds" />
          </mxGeometry>
        </mxCell>
        <mxCell id="R3BKQV-CwE8eGaamidav-121" value="" style="shape=tableRow;horizontal=0;startSize=0;swimlaneHead=0;swimlaneBody=0;collapsible=0;dropTarget=0;points=[[0,0.5],[1,0.5]];portConstraint=eastwest;top=0;left=0;right=0;bottom=0;fillColor=none;labelBackgroundColor=none;" parent="R3BKQV-CwE8eGaamidav-102" vertex="1">
          <mxGeometry y="90" width="200" height="30" as="geometry" />
        </mxCell>
        <mxCell id="R3BKQV-CwE8eGaamidav-122" value="" style="shape=partialRectangle;connectable=0;fillColor=none;top=0;left=0;bottom=0;right=0;editable=1;overflow=hidden;whiteSpace=wrap;html=1;labelBackgroundColor=none;" parent="R3BKQV-CwE8eGaamidav-121" vertex="1">
          <mxGeometry width="30" height="30" as="geometry">
            <mxRectangle width="30" height="30" as="alternateBounds" />
          </mxGeometry>
        </mxCell>
        <mxCell id="R3BKQV-CwE8eGaamidav-123" value="createdAt&amp;nbsp;&lt;font style=&quot;color: rgb(204, 204, 204);&quot;&gt;TIMESTAMPTZ&lt;/font&gt;" style="shape=partialRectangle;connectable=0;fillColor=none;top=0;left=0;bottom=0;right=0;align=left;spacingLeft=6;overflow=hidden;whiteSpace=wrap;html=1;labelBackgroundColor=none;" parent="R3BKQV-CwE8eGaamidav-121" vertex="1">
          <mxGeometry x="30" width="170" height="30" as="geometry">
            <mxRectangle width="170" height="30" as="alternateBounds" />
          </mxGeometry>
        </mxCell>
        <mxCell id="R3BKQV-CwE8eGaamidav-130" style="edgeStyle=orthogonalEdgeStyle;rounded=1;orthogonalLoop=1;jettySize=auto;html=1;exitX=1;exitY=0.5;exitDx=0;exitDy=0;entryX=0;entryY=0.5;entryDx=0;entryDy=0;curved=0;endArrow=none;endFill=0;labelBackgroundColor=none;fontColor=default;" parent="1" source="R3BKQV-CwE8eGaamidav-103" target="R-MKoHGWoA9p2bsHh0tM-144" edge="1">
          <mxGeometry relative="1" as="geometry">
            <Array as="points">
              <mxPoint x="340" y="365" />
              <mxPoint x="340" y="-395" />
            </Array>
          </mxGeometry>
        </mxCell>
        <mxCell id="R3BKQV-CwE8eGaamidav-131" style="edgeStyle=orthogonalEdgeStyle;rounded=1;orthogonalLoop=1;jettySize=auto;html=1;exitX=0;exitY=0.5;exitDx=0;exitDy=0;entryX=0;entryY=0.5;entryDx=0;entryDy=0;curved=0;endArrow=none;endFill=0;labelBackgroundColor=none;fontColor=default;" parent="1" source="R3BKQV-CwE8eGaamidav-127" target="gtdaIvUS_uVvHvJYpVgE-2" edge="1">
          <mxGeometry relative="1" as="geometry">
            <Array as="points">
              <mxPoint x="20" y="395" />
              <mxPoint x="20" y="525" />
            </Array>
          </mxGeometry>
        </mxCell>
        <mxCell id="R3BKQV-CwE8eGaamidav-132" value="review_has_criterion" style="shape=table;startSize=30;container=1;collapsible=1;childLayout=tableLayout;fixedRows=1;rowLines=0;fontStyle=1;align=center;resizeLast=1;html=1;rounded=1;top=1;bottom=1;labelBackgroundColor=none;swimlaneFillColor=default;" parent="1" vertex="1">
          <mxGeometry x="1480" width="160" height="90" as="geometry">
            <mxRectangle x="50" y="510" width="70" height="30" as="alternateBounds" />
          </mxGeometry>
        </mxCell>
        <mxCell id="R3BKQV-CwE8eGaamidav-133" value="" style="shape=tableRow;horizontal=0;startSize=0;swimlaneHead=0;swimlaneBody=0;fillColor=none;collapsible=0;dropTarget=0;points=[[0,0.5],[1,0.5]];portConstraint=eastwest;top=0;left=0;right=0;bottom=0;fontStyle=0;labelBackgroundColor=none;" parent="R3BKQV-CwE8eGaamidav-132" vertex="1">
          <mxGeometry y="30" width="160" height="30" as="geometry" />
        </mxCell>
        <mxCell id="R3BKQV-CwE8eGaamidav-134" value="FK" style="shape=partialRectangle;connectable=0;fillColor=none;top=0;left=0;bottom=0;right=0;fontStyle=1;overflow=hidden;whiteSpace=wrap;html=1;labelBackgroundColor=none;" parent="R3BKQV-CwE8eGaamidav-133" vertex="1">
          <mxGeometry width="30" height="30" as="geometry">
            <mxRectangle width="30" height="30" as="alternateBounds" />
          </mxGeometry>
        </mxCell>
        <mxCell id="R3BKQV-CwE8eGaamidav-135" value="reviewId&lt;font style=&quot;font-weight: normal; color: rgb(204, 204, 204);&quot;&gt; UUID&lt;/font&gt;" style="shape=partialRectangle;connectable=0;fillColor=none;top=0;left=0;bottom=0;right=0;align=left;spacingLeft=6;fontStyle=1;overflow=hidden;whiteSpace=wrap;html=1;labelBackgroundColor=none;" parent="R3BKQV-CwE8eGaamidav-133" vertex="1">
          <mxGeometry x="30" width="130" height="30" as="geometry">
            <mxRectangle width="130" height="30" as="alternateBounds" />
          </mxGeometry>
        </mxCell>
        <mxCell id="R3BKQV-CwE8eGaamidav-136" value="" style="shape=tableRow;horizontal=0;startSize=0;swimlaneHead=0;swimlaneBody=0;collapsible=0;dropTarget=0;points=[[0,0.5],[1,0.5]];portConstraint=eastwest;top=0;left=0;right=0;bottom=0;fillColor=none;labelBackgroundColor=none;" parent="R3BKQV-CwE8eGaamidav-132" vertex="1">
          <mxGeometry y="60" width="160" height="30" as="geometry" />
        </mxCell>
        <mxCell id="R3BKQV-CwE8eGaamidav-137" value="&lt;b&gt;FK&lt;/b&gt;" style="shape=partialRectangle;connectable=0;fillColor=none;top=0;left=0;bottom=0;right=0;editable=1;overflow=hidden;whiteSpace=wrap;html=1;labelBackgroundColor=none;" parent="R3BKQV-CwE8eGaamidav-136" vertex="1">
          <mxGeometry width="30" height="30" as="geometry">
            <mxRectangle width="30" height="30" as="alternateBounds" />
          </mxGeometry>
        </mxCell>
        <mxCell id="R3BKQV-CwE8eGaamidav-138" value="&lt;b&gt;criterionId&lt;/b&gt;&amp;nbsp;&lt;font color=&quot;#cccccc&quot;&gt;UUID&lt;/font&gt;" style="shape=partialRectangle;connectable=0;fillColor=none;top=0;left=0;bottom=0;right=0;align=left;spacingLeft=6;overflow=hidden;whiteSpace=wrap;html=1;labelBackgroundColor=none;" parent="R3BKQV-CwE8eGaamidav-136" vertex="1">
          <mxGeometry x="30" width="130" height="30" as="geometry">
            <mxRectangle width="130" height="30" as="alternateBounds" />
          </mxGeometry>
        </mxCell>
        <mxCell id="R3BKQV-CwE8eGaamidav-139" value="review" style="shape=table;startSize=30;container=1;collapsible=1;childLayout=tableLayout;fixedRows=1;rowLines=0;fontStyle=1;align=center;resizeLast=1;html=1;rounded=1;top=1;bottom=1;labelBackgroundColor=none;swimlaneFillColor=default;" parent="1" vertex="1">
          <mxGeometry x="1120" width="270" height="210" as="geometry">
            <mxRectangle x="50" y="510" width="70" height="30" as="alternateBounds" />
          </mxGeometry>
        </mxCell>
        <mxCell id="R3BKQV-CwE8eGaamidav-164" value="" style="shape=tableRow;horizontal=0;startSize=0;swimlaneHead=0;swimlaneBody=0;fillColor=none;collapsible=0;dropTarget=0;points=[[0,0.5],[1,0.5]];portConstraint=eastwest;top=0;left=0;right=0;bottom=1;fontStyle=0;labelBackgroundColor=none;" parent="R3BKQV-CwE8eGaamidav-139" vertex="1">
          <mxGeometry y="30" width="270" height="30" as="geometry" />
        </mxCell>
        <mxCell id="R3BKQV-CwE8eGaamidav-165" value="PK" style="shape=partialRectangle;connectable=0;fillColor=none;top=0;left=0;bottom=0;right=0;fontStyle=1;overflow=hidden;whiteSpace=wrap;html=1;labelBackgroundColor=none;" parent="R3BKQV-CwE8eGaamidav-164" vertex="1">
          <mxGeometry width="30" height="30" as="geometry">
            <mxRectangle width="30" height="30" as="alternateBounds" />
          </mxGeometry>
        </mxCell>
        <mxCell id="R3BKQV-CwE8eGaamidav-166" value="id&lt;font style=&quot;font-weight: normal; color: rgb(204, 204, 204);&quot;&gt; UUID&lt;/font&gt;" style="shape=partialRectangle;connectable=0;fillColor=none;top=0;left=0;bottom=0;right=0;align=left;spacingLeft=6;fontStyle=1;overflow=hidden;whiteSpace=wrap;html=1;labelBackgroundColor=none;" parent="R3BKQV-CwE8eGaamidav-164" vertex="1">
          <mxGeometry x="30" width="240" height="30" as="geometry">
            <mxRectangle width="240" height="30" as="alternateBounds" />
          </mxGeometry>
        </mxCell>
        <mxCell id="R3BKQV-CwE8eGaamidav-143" value="" style="shape=tableRow;horizontal=0;startSize=0;swimlaneHead=0;swimlaneBody=0;collapsible=0;dropTarget=0;points=[[0,0.5],[1,0.5]];portConstraint=eastwest;top=0;left=0;right=0;bottom=0;fillColor=none;labelBackgroundColor=none;" parent="R3BKQV-CwE8eGaamidav-139" vertex="1">
          <mxGeometry y="60" width="270" height="30" as="geometry" />
        </mxCell>
        <mxCell id="R3BKQV-CwE8eGaamidav-144" value="FK" style="shape=partialRectangle;connectable=0;fillColor=none;top=0;left=0;bottom=0;right=0;editable=1;overflow=hidden;whiteSpace=wrap;html=1;labelBackgroundColor=none;" parent="R3BKQV-CwE8eGaamidav-143" vertex="1">
          <mxGeometry width="30" height="30" as="geometry">
            <mxRectangle width="30" height="30" as="alternateBounds" />
          </mxGeometry>
        </mxCell>
        <mxCell id="R3BKQV-CwE8eGaamidav-145" value="projectPaperId&amp;nbsp;&lt;font color=&quot;#cccccc&quot;&gt;UUID, UNIQUE w/ userId&lt;/font&gt;" style="shape=partialRectangle;connectable=0;fillColor=none;top=0;left=0;bottom=0;right=0;align=left;spacingLeft=6;overflow=hidden;whiteSpace=wrap;html=1;labelBackgroundColor=none;" parent="R3BKQV-CwE8eGaamidav-143" vertex="1">
          <mxGeometry x="30" width="240" height="30" as="geometry">
            <mxRectangle width="240" height="30" as="alternateBounds" />
          </mxGeometry>
        </mxCell>
        <mxCell id="R3BKQV-CwE8eGaamidav-146" value="" style="shape=tableRow;horizontal=0;startSize=0;swimlaneHead=0;swimlaneBody=0;collapsible=0;dropTarget=0;points=[[0,0.5],[1,0.5]];portConstraint=eastwest;top=0;left=0;right=0;bottom=0;fillColor=none;labelBackgroundColor=none;" parent="R3BKQV-CwE8eGaamidav-139" vertex="1">
          <mxGeometry y="90" width="270" height="30" as="geometry" />
        </mxCell>
        <mxCell id="R3BKQV-CwE8eGaamidav-147" value="FK" style="shape=partialRectangle;connectable=0;fillColor=none;top=0;left=0;bottom=0;right=0;editable=1;overflow=hidden;whiteSpace=wrap;html=1;labelBackgroundColor=none;" parent="R3BKQV-CwE8eGaamidav-146" vertex="1">
          <mxGeometry width="30" height="30" as="geometry">
            <mxRectangle width="30" height="30" as="alternateBounds" />
          </mxGeometry>
        </mxCell>
        <mxCell id="R3BKQV-CwE8eGaamidav-148" value="userId&amp;nbsp;&lt;span style=&quot;color: rgb(204, 204, 204);&quot;&gt;UUID, UNIQUE w/ projectPaperId&lt;/span&gt;" style="shape=partialRectangle;connectable=0;fillColor=none;top=0;left=0;bottom=0;right=0;align=left;spacingLeft=6;overflow=hidden;whiteSpace=wrap;html=1;labelBackgroundColor=none;" parent="R3BKQV-CwE8eGaamidav-146" vertex="1">
          <mxGeometry x="30" width="240" height="30" as="geometry">
            <mxRectangle width="240" height="30" as="alternateBounds" />
          </mxGeometry>
        </mxCell>
        <mxCell id="R3BKQV-CwE8eGaamidav-149" value="" style="shape=tableRow;horizontal=0;startSize=0;swimlaneHead=0;swimlaneBody=0;collapsible=0;dropTarget=0;points=[[0,0.5],[1,0.5]];portConstraint=eastwest;top=0;left=0;right=0;bottom=1;fillColor=none;labelBackgroundColor=none;" parent="R3BKQV-CwE8eGaamidav-139" vertex="1">
          <mxGeometry y="120" width="270" height="30" as="geometry" />
        </mxCell>
        <mxCell id="R3BKQV-CwE8eGaamidav-150" value="" style="shape=partialRectangle;connectable=0;fillColor=none;top=0;left=0;bottom=0;right=0;editable=1;overflow=hidden;whiteSpace=wrap;html=1;labelBackgroundColor=none;" parent="R3BKQV-CwE8eGaamidav-149" vertex="1">
          <mxGeometry width="30" height="30" as="geometry">
            <mxRectangle width="30" height="30" as="alternateBounds" />
          </mxGeometry>
        </mxCell>
        <mxCell id="R3BKQV-CwE8eGaamidav-151" value="decision&amp;nbsp;&lt;font style=&quot;color: rgb(204, 204, 204);&quot;&gt;ENUM&lt;/font&gt;" style="shape=partialRectangle;connectable=0;fillColor=none;top=0;left=0;bottom=0;right=0;align=left;spacingLeft=6;overflow=hidden;whiteSpace=wrap;html=1;labelBackgroundColor=none;" parent="R3BKQV-CwE8eGaamidav-149" vertex="1">
          <mxGeometry x="30" width="240" height="30" as="geometry">
            <mxRectangle width="240" height="30" as="alternateBounds" />
          </mxGeometry>
        </mxCell>
        <mxCell id="R3BKQV-CwE8eGaamidav-158" value="" style="shape=tableRow;horizontal=0;startSize=0;swimlaneHead=0;swimlaneBody=0;collapsible=0;dropTarget=0;points=[[0,0.5],[1,0.5]];portConstraint=eastwest;top=0;left=0;right=0;bottom=0;fillColor=none;labelBackgroundColor=none;" parent="R3BKQV-CwE8eGaamidav-139" vertex="1">
          <mxGeometry y="150" width="270" height="30" as="geometry" />
        </mxCell>
        <mxCell id="R3BKQV-CwE8eGaamidav-159" value="" style="shape=partialRectangle;connectable=0;fillColor=none;top=0;left=0;bottom=0;right=0;editable=1;overflow=hidden;whiteSpace=wrap;html=1;labelBackgroundColor=none;" parent="R3BKQV-CwE8eGaamidav-158" vertex="1">
          <mxGeometry width="30" height="30" as="geometry">
            <mxRectangle width="30" height="30" as="alternateBounds" />
          </mxGeometry>
        </mxCell>
        <mxCell id="R3BKQV-CwE8eGaamidav-160" value="createdAt&amp;nbsp;&lt;font style=&quot;color: rgb(204, 204, 204);&quot;&gt;TIMESTAMPTZ&lt;/font&gt;" style="shape=partialRectangle;connectable=0;fillColor=none;top=0;left=0;bottom=0;right=0;align=left;spacingLeft=6;overflow=hidden;whiteSpace=wrap;html=1;labelBackgroundColor=none;" parent="R3BKQV-CwE8eGaamidav-158" vertex="1">
          <mxGeometry x="30" width="240" height="30" as="geometry">
            <mxRectangle width="240" height="30" as="alternateBounds" />
          </mxGeometry>
        </mxCell>
        <mxCell id="R3BKQV-CwE8eGaamidav-161" value="" style="shape=tableRow;horizontal=0;startSize=0;swimlaneHead=0;swimlaneBody=0;collapsible=0;dropTarget=0;points=[[0,0.5],[1,0.5]];portConstraint=eastwest;top=0;left=0;right=0;bottom=0;fillColor=none;labelBackgroundColor=none;" parent="R3BKQV-CwE8eGaamidav-139" vertex="1">
          <mxGeometry y="180" width="270" height="30" as="geometry" />
        </mxCell>
        <mxCell id="R3BKQV-CwE8eGaamidav-162" value="" style="shape=partialRectangle;connectable=0;fillColor=none;top=0;left=0;bottom=0;right=0;editable=1;overflow=hidden;whiteSpace=wrap;html=1;labelBackgroundColor=none;" parent="R3BKQV-CwE8eGaamidav-161" vertex="1">
          <mxGeometry width="30" height="30" as="geometry">
            <mxRectangle width="30" height="30" as="alternateBounds" />
          </mxGeometry>
        </mxCell>
        <mxCell id="R3BKQV-CwE8eGaamidav-163" value="modifiedAt&amp;nbsp;&lt;font style=&quot;color: rgb(204, 204, 204);&quot;&gt;TIMESTAMPTZ, NULLABLE&lt;/font&gt;" style="shape=partialRectangle;connectable=0;fillColor=none;top=0;left=0;bottom=0;right=0;align=left;spacingLeft=6;overflow=hidden;whiteSpace=wrap;html=1;labelBackgroundColor=none;" parent="R3BKQV-CwE8eGaamidav-161" vertex="1">
          <mxGeometry x="30" width="240" height="30" as="geometry">
            <mxRectangle width="240" height="30" as="alternateBounds" />
          </mxGeometry>
        </mxCell>
        <mxCell id="R3BKQV-CwE8eGaamidav-167" style="edgeStyle=orthogonalEdgeStyle;rounded=1;orthogonalLoop=1;jettySize=auto;html=1;exitX=0;exitY=0.5;exitDx=0;exitDy=0;entryX=1;entryY=0.5;entryDx=0;entryDy=0;curved=0;endArrow=none;endFill=0;labelBackgroundColor=none;fontColor=default;" parent="1" source="R-MKoHGWoA9p2bsHh0tM-120" target="gtdaIvUS_uVvHvJYpVgE-2" edge="1">
          <mxGeometry relative="1" as="geometry">
            <Array as="points">
              <mxPoint x="340" y="1065" />
              <mxPoint x="340" y="525" />
            </Array>
          </mxGeometry>
        </mxCell>
        <mxCell id="R3BKQV-CwE8eGaamidav-171" value="archivedBy" style="edgeLabel;html=1;align=center;verticalAlign=middle;resizable=0;points=[];labelBackgroundColor=default;" parent="R3BKQV-CwE8eGaamidav-167" vertex="1" connectable="0">
          <mxGeometry x="-0.2235" y="-2" relative="1" as="geometry">
            <mxPoint y="1" as="offset" />
          </mxGeometry>
        </mxCell>
        <mxCell id="R3BKQV-CwE8eGaamidav-175" style="edgeStyle=orthogonalEdgeStyle;rounded=1;orthogonalLoop=1;jettySize=auto;html=1;exitX=0;exitY=0.5;exitDx=0;exitDy=0;entryX=1;entryY=0.5;entryDx=0;entryDy=0;curved=0;endArrow=none;endFill=0;labelBackgroundColor=none;fontColor=default;" parent="1" source="R3BKQV-CwE8eGaamidav-143" target="R3BKQV-CwE8eGaamidav-55" edge="1">
          <mxGeometry relative="1" as="geometry">
            <Array as="points">
              <mxPoint x="1080" y="75" />
              <mxPoint x="1080" y="-425" />
            </Array>
          </mxGeometry>
        </mxCell>
        <mxCell id="R3BKQV-CwE8eGaamidav-176" style="edgeStyle=orthogonalEdgeStyle;rounded=1;orthogonalLoop=1;jettySize=auto;html=1;exitX=0;exitY=0.5;exitDx=0;exitDy=0;entryX=1;entryY=0.5;entryDx=0;entryDy=0;curved=0;endArrow=none;endFill=0;labelBackgroundColor=none;fontColor=default;" parent="1" source="R3BKQV-CwE8eGaamidav-146" target="gtdaIvUS_uVvHvJYpVgE-2" edge="1">
          <mxGeometry relative="1" as="geometry">
            <Array as="points">
              <mxPoint x="1100" y="105" />
              <mxPoint x="1100" y="280" />
              <mxPoint x="360" y="280" />
              <mxPoint x="360" y="525" />
            </Array>
          </mxGeometry>
        </mxCell>
        <mxCell id="R3BKQV-CwE8eGaamidav-177" style="edgeStyle=orthogonalEdgeStyle;rounded=1;orthogonalLoop=1;jettySize=auto;html=1;exitX=0;exitY=0.5;exitDx=0;exitDy=0;entryX=1;entryY=0.5;entryDx=0;entryDy=0;curved=0;endArrow=none;endFill=0;labelBackgroundColor=none;fontColor=default;" parent="1" source="R3BKQV-CwE8eGaamidav-133" target="R3BKQV-CwE8eGaamidav-164" edge="1">
          <mxGeometry relative="1" as="geometry" />
        </mxCell>
        <mxCell id="R3BKQV-CwE8eGaamidav-178" style="edgeStyle=orthogonalEdgeStyle;rounded=1;orthogonalLoop=1;jettySize=auto;html=1;exitX=0;exitY=0.5;exitDx=0;exitDy=0;entryX=0;entryY=0.5;entryDx=0;entryDy=0;curved=0;endArrow=none;endFill=0;labelBackgroundColor=none;fontColor=default;" parent="1" source="R3BKQV-CwE8eGaamidav-136" target="R-MKoHGWoA9p2bsHh0tM-202" edge="1">
          <mxGeometry relative="1" as="geometry" />
        </mxCell>
        <mxCell id="R3BKQV-CwE8eGaamidav-179" style="edgeStyle=orthogonalEdgeStyle;rounded=1;orthogonalLoop=1;jettySize=auto;html=1;exitX=0;exitY=0.5;exitDx=0;exitDy=0;entryX=1;entryY=0.5;entryDx=0;entryDy=0;curved=0;endArrow=none;endFill=0;labelBackgroundColor=none;fontColor=default;" parent="1" source="R-MKoHGWoA9p2bsHh0tM-217" target="R-MKoHGWoA9p2bsHh0tM-57" edge="1">
          <mxGeometry relative="1" as="geometry">
            <Array as="points">
              <mxPoint x="1080" y="325" />
              <mxPoint x="1080" y="525" />
            </Array>
          </mxGeometry>
        </mxCell>
        <mxCell id="R3BKQV-CwE8eGaamidav-180" style="edgeStyle=orthogonalEdgeStyle;rounded=1;orthogonalLoop=1;jettySize=auto;html=1;exitX=0;exitY=0.5;exitDx=0;exitDy=0;entryX=1;entryY=0.5;entryDx=0;entryDy=0;curved=0;endArrow=none;endFill=0;labelBackgroundColor=none;fontColor=default;" parent="1" source="R-MKoHGWoA9p2bsHh0tM-223" target="gtdaIvUS_uVvHvJYpVgE-2" edge="1">
          <mxGeometry relative="1" as="geometry">
            <Array as="points">
              <mxPoint x="1100" y="385" />
              <mxPoint x="1100" y="1120" />
              <mxPoint x="340" y="1120" />
              <mxPoint x="340" y="525" />
            </Array>
          </mxGeometry>
        </mxCell>
        <mxCell id="R3BKQV-CwE8eGaamidav-181" value="createdBy" style="edgeLabel;html=1;align=center;verticalAlign=middle;resizable=0;points=[];labelBackgroundColor=default;" parent="R3BKQV-CwE8eGaamidav-180" vertex="1" connectable="0">
          <mxGeometry x="0.5749" y="-1" relative="1" as="geometry">
            <mxPoint x="39" y="84" as="offset" />
          </mxGeometry>
        </mxCell>
        <mxCell id="5ZzNtc1i7gGfenOPtsRH-1" value="&lt;font style=&quot;font-size: 60px;&quot;&gt;SnowballR Database Schema&lt;/font&gt;" style="text;html=1;align=center;verticalAlign=middle;whiteSpace=wrap;rounded=0;" parent="1" vertex="1">
          <mxGeometry x="1160" y="-320" width="520" height="160" as="geometry" />
        </mxCell>
      </root>
    </mxGraphModel>
  </diagram>
</mxfile>
